<?xml version="1.0" encoding="utf-8"?>
<!-- Generator: Adobe Illustrator 14.0.0, SVG Export Plug-In . SVG Version: 6.00 Build 43363)  -->
<!DOCTYPE svg PUBLIC "-//W3C//DTD SVG 1.1//EN" "http://www.w3.org/Graphics/SVG/1.1/DTD/svg11.dtd">
<svg version="1.1" id="图层_1" xmlns="http://www.w3.org/2000/svg" xmlns:xlink="http://www.w3.org/1999/xlink" x="0px" y="0px"
	 width="20px" height="20px" viewBox="0 0 20 20" enable-background="new 0 0 20 20" xml:space="preserve">
<g>
	<path fill="#FFFFFF" d="M9.206,17.387C4.681,17.387,1,13.712,1,9.193C1,4.676,4.681,1,9.206,1c4.524,0,8.207,3.676,8.207,8.193
		C17.413,13.712,13.73,17.387,9.206,17.387L9.206,17.387z M9.206,2.092c-3.921,0-7.111,3.186-7.111,7.101
		c0,3.915,3.19,7.101,7.111,7.101c3.922,0,7.112-3.186,7.112-7.101C16.318,5.278,13.128,2.092,9.206,2.092L9.206,2.092z"/>
</g>
<g opacity="0.4">
	<g>
		<path fill="#FFFFFF" d="M18.453,19c-0.141,0-0.279-0.054-0.387-0.16l-3.775-3.771c-0.214-0.213-0.214-0.559,0-0.772
			c0.214-0.213,0.56-0.213,0.773,0l3.775,3.771c0.214,0.213,0.214,0.56,0,0.772C18.733,18.946,18.593,19,18.453,19L18.453,19z"/>
	</g>
</g>
<g opacity="0.4">
	<path fill="#FFFFFF" d="M3.736,9.74c-0.303,0-0.547-0.243-0.547-0.546c0-3.313,2.7-6.008,6.018-6.008
		c0.302,0,0.547,0.245,0.547,0.546c0,0.303-0.245,0.546-0.547,0.546c-2.715,0-4.923,2.207-4.923,4.916
		C4.283,9.497,4.038,9.74,3.736,9.74L3.736,9.74z"/>
</g>
</svg>
