<svg xmlns="http://www.w3.org/2000/svg" width="177" height="184"><defs><linearGradient id="PSgrad_0" x1="0%" x2="0%" y1="100%" y2="0%"><stop offset="0%" stop-color="#29f19c"/><stop offset="100%" stop-color="#02a1f9"/></linearGradient></defs><path fill="url(#PSgrad_0)" fill-rule="evenodd" d="m174.504 86.764-3.229.198a.63.63 0 0 1-.675-.593c0-.339.253-.649.589-.649l3.23-.226c.337 0 .646.254.674.593 0 .367-.253.649-.589.677m-.507-5.646-3.2.395c-.337.057-.646-.197-.702-.536-.028-.367.197-.678.561-.706l3.201-.423h.057c.308 0 .59.225.645.564a.674.674 0 0 1-.562.706m-.842-5.618-3.172.593c-.338.085-.647-.141-.731-.48a.667.667 0 0 1 .505-.762l3.173-.593c.057 0 .085-.028.142-.028.28 0 .533.226.589.536.055.339-.169.678-.506.734m-1.178-5.561-3.117.818c-.337.085-.702-.112-.787-.451-.084-.339.113-.706.45-.791l3.116-.79c.057 0 .112-.028.169-.028.281 0 .533.197.618.48a.624.624 0 0 1-.449.762m-1.545-5.448-3.061.988c-.336.113-.701-.057-.785-.396-.113-.338.055-.706.392-.79l3.061-1.017c.056-.028.14-.028.196-.028.252 0 .505.17.59.424a.643.643 0 0 1-.393.819m-1.881-5.365-3.005 1.186c-.308.141-.673-.028-.814-.339-.112-.339.028-.705.364-.818l2.977-1.214c.085-.029.169-.029.226-.029.28 0 .504.142.616.396.114.31-.028.706-.364.818m-2.218-5.222-2.892 1.383a.65.65 0 0 1-.843-.31c-.139-.311-.028-.706.309-.847l2.892-1.383a.8.8 0 0 1 .281-.057c.225 0 .449.141.561.367.14.311.029.706-.308.847m-2.527-5.082-2.809 1.553a.64.64 0 0 1-.869-.254c-.141-.283-.057-.677.253-.847l2.836-1.553a.56.56 0 0 1 .308-.085c.197 0 .421.113.534.339.167.283.055.678-.253.847m-2.837-4.912-2.722 1.75c-.281.17-.674.085-.842-.197-.198-.311-.113-.706.168-.876l2.723-1.75a.75.75 0 0 1 .337-.085c.225 0 .421.085.533.283.197.31.113.706-.197.875m-4.099-4.009v7.481a86 86 0 0 1 6.795 13.778c3.679 9.626 5.587 19.93 5.616 30.065a86 86 0 0 1-1.263 14.99c-.843 4.912-2.079 9.656-3.763 14.201a82.5 82.5 0 0 1-5.924 12.873c-.281.508-.562.988-.87 1.496l-.591 1.017v7.904l.956.706.14.903a.623.623 0 0 1-.87.141l-.226-.169v18.068h-19.653l.87 1.214c.197.253.14.649-.14.874l-.87-.14-1.404-1.948h-6.262c-.505.31-1.01.649-1.515.931-1.601.904-3.146 1.807-4.718 2.541-.786.395-1.543.791-2.301 1.157-.787.339-1.546.65-2.303.989-.393.169-.758.338-1.124.508-.392.141-.757.282-1.122.423-.759.282-1.489.564-2.219.848a79.2 79.2 0 0 1-15.498 3.923c-1.095.198-2.134.311-3.116.424-.479.056-.955.085-1.432.141-.45.056-.899.113-1.32.113-.871.056-1.656.112-2.386.141-.731.056-1.376.085-1.966.085-2.387.028-3.65.028-3.65.028s1.263-.057 3.622-.17c.589 0 1.263-.084 1.994-.141.7-.084 1.515-.141 2.357-.225.422-.029.871-.113 1.32-.17.45-.085.928-.141 1.405-.226.982-.14 2.021-.254 3.087-.48 4.353-.762 9.548-2.089 15.247-4.319.73-.311 1.431-.593 2.162-.903.365-.142.73-.311 1.123-.452.337-.169.701-.339 1.094-.537.73-.338 1.461-.677 2.219-1.044s1.488-.79 2.245-1.186c1.433-.706 2.781-1.553 4.212-2.399h-12.493c-2.163.903-4.493 1.722-6.908 2.54l-2.358.678c-.394.141-.787.254-1.207.367-.394.085-.815.197-1.236.282-.815.198-1.656.396-2.499.593-.841.169-1.713.311-2.582.48-.451.057-.871.169-1.32.226l-1.348.169c-.899.113-1.797.254-2.695.339-.926.084-1.853.169-2.809.226l-.701.056-.701.028c-.479.028-.956.028-1.433.057-.478 0-.955.028-1.431.028-.506.029-.956 0-1.46 0-.956-.028-1.938-.028-2.921-.057-1.965-.14-3.987-.254-6.008-.536-6.682-.79-13.618-2.625-20.328-5.476H42.148c.955.564 1.909 1.101 2.864 1.637l-.617 1.13a98 98 0 0 1-4.66-2.767H18.142v-19.734a108 108 0 0 1-2.611-3.585l1.039-.706c.505.734 1.04 1.468 1.572 2.202v-9.768c-1.965-3.303-3.734-6.747-5.193-10.304-1.827-4.404-3.285-9.005-4.24-13.664a80 80 0 0 1-1.685-14.115l-.056-1.75v-.255l.029-.225v-.423l.027-.876c.028-1.157 0-2.314.112-3.5.029-.565.084-1.158.113-1.75.056-.594.084-1.159.169-1.751.14-1.158.28-2.287.449-3.444.674-4.574 1.797-9.034 3.228-13.269a81 81 0 0 1 5.307-12.11 103 103 0 0 1 1.74-3.021v-9.204a94 94 0 0 0-3.565 5.223l-1.067-.677a93 93 0 0 1 4.211-6.099l.421.311V23.923h9.912l-1.095-1.356.085-.875.897.085 1.769 2.146h5.924c.449-.339.899-.678 1.376-1.045.814-.593 1.685-1.158 2.611-1.779 3.679-2.484 8.368-5.166 14.095-7.593.701-.283 1.46-.565 2.191-.847.364-.142.758-.283 1.123-.452l.589-.198.561-.198c1.573-.536 3.173-1.1 4.858-1.524 3.34-.988 6.935-1.694 10.725-2.258.927-.142 1.91-.254 2.864-.368l2.949-.254c.982-.112 1.993-.112 3.004-.169.504 0 1.01-.028 1.515-.028.281-.028.506-.028.787-.028h.786c1.01.028 2.05.056 3.088.056 1.039.057 2.106.142 3.173.198.533.056 1.066.085 1.6.141l1.6.17c.534.084 1.068.14 1.629.197l.814.113.814.141c1.068.169 2.162.367 3.257.564 1.095.227 2.19.48 3.286.735l.813.169.815.226c.562.141 1.095.31 1.657.451.534.17 1.094.311 1.656.48.533.169 1.095.339 1.628.537 4.381 1.439 8.761 3.246 13 5.533a86.6 86.6 0 0 1 11.035 7.03h4.239l1.797-2.146.87-.085.085.875-1.095 1.356h15.441v14.426l.226-.17a.62.62 0 0 1 .87.142l-.14.875zm0 38.592.057.282h-.057v1.835l.31-.057v.424l-.31.056v1.807l.113-.028-.084.452h-.029v48.388c2.023-3.811 3.847-7.792 5.307-11.998 1.6-4.405 2.753-9.063 3.537-13.834.787-4.771 1.152-9.598 1.152-14.567a83.6 83.6 0 0 0-5.559-29.191 83 83 0 0 0-4.437-9.682zM18.142 96.448h-.056l-.084-.424h.14v-1.778h-.449l-.083-.424.532-.028v-1.778h-.841l-.086-.424h.927v-1.778l-1.235-.029-.084-.424 1.319.029v-1.779l-1.628-.113-.084-.423 1.712.113v-1.779l-2.05-.197-.055-.452 2.105.198v-1.779l-2.386-.31-.028-.424 2.414.311v-1.835l-2.246-.368.084-.395 2.162.339v-1.863l-1.488-.283.198-.366 1.29.254v-1.864l-.084-.028.084-.112V55.598c-1.936 3.67-3.621 7.481-4.997 11.546-1.404 4.122-2.527 8.441-3.2 12.902-.169 1.101-.31 2.23-.451 3.331a18 18 0 0 0-.168 1.693c-.055.565-.083 1.13-.14 1.694-.113 1.101-.113 2.287-.169 3.444l-.027.876v.649l-.028.113v.056l.055 1.723a79 79 0 0 0 1.461 13.804 77 77 0 0 0 4.015 13.382 74 74 0 0 0 3.649 7.707zm.056 43.644h5.7a81 81 0 0 1-5.7-8.243zm0-23.233h6.178l4.015-1.61c-.197-.48-.366-.988-.562-1.496l-8.451 3.077v-.452l8.31-3.02a96 96 0 0 1-.504-1.496l-7.806 2.54v-.423l7.666-2.513c-.142-.508-.31-1.016-.45-1.524l-7.216 2.089v-.424l7.076-2.089a29 29 0 0 1-.393-1.524l-6.683 1.722v-.451l6.571-1.694a25 25 0 0 1-.366-1.553l-6.205 1.411v-.452l6.093-1.354c-.028-.113-.057-.226-.057-.339h-7.216zm7.329 0h3.538a54 54 0 0 1-.506-1.215zm-7.329-11.631h7.189c-.085-.395-.141-.791-.225-1.186l-5.784 1.129v-.451l5.7-1.074c-.084-.536-.197-1.044-.253-1.581l-5.615.904-.056-.424 5.586-.903c-.083-.508-.14-1.044-.224-1.581l-5.672.734-.084-.423 5.7-.734c-.056-.508-.112-1.045-.169-1.581l-5.839.564-.057-.423 5.869-.565c-.056-.508-.085-1.044-.141-1.58l-5.925.395zm0-9.204 5.925-.395c-.057-.537-.057-1.045-.085-1.581l-5.84.169zm0-2.23 3.987-.113h-3.987zm0-.169h5.812c0-.537 0-1.073-.028-1.609h-5.784zm0-2.033h5.784c.028-.536.028-1.045.028-1.581l-5.812-.197zm0-2.174 5.84.17c.028-.537.028-1.073.085-1.609l-5.925-.368zm0-2.23 5.925.367c.056-.508.085-1.045.141-1.581l-6.066-.565zm0-2.23 6.093.593c.057-.537.113-1.045.169-1.582l-6.262-.79zm0-2.202 6.318.79c.084-.508.141-.988.224-1.496h-6.542zm0-.763h6.542v-.028l-6.542-1.044zm0-1.496 6.627 1.045c.056-.509.169-1.045.253-1.553l-6.88-1.327zm0-2.258 6.964 1.327c.112-.509.197-1.045.309-1.553l-7.273-1.638zm0-2.061.17-.198 7.215 1.61c.112-.509.225-1.045.366-1.554l-6.402-1.637.196-.395 6.318 1.637c.112-.536.252-1.044.393-1.552l-5.981-1.751.14-.395 5.981 1.75c.14-.508.308-1.016.45-1.524l-5.252-1.722h-3.594zm8.986-4.404c.14-.452.28-.875.449-1.327H23.14zm-8.986-20.552a66 66 0 0 1 2.64-4.009h-2.64zm11.484-22.275c-.617.537-.954.82-.954.82s.337-.311.954-.876v-3.754l-.674-.057-.898-1.101h-9.912v11.575h3.622a98 98 0 0 1 2.837-3.049l.898.875a73 73 0 0 0-2.022 2.174h6.149zm0 6.663h-6.205a73 73 0 0 0-2.78 3.219l-.981-.791c.673-.818 1.374-1.638 2.049-2.428h-3.567v5.307l.535.396c-.169.226-.365.48-.535.706v5.137h2.668a74 74 0 0 1 2.527-3.359c1.236-1.637 2.583-3.162 3.903-4.658.702-.706 1.375-1.412 2.077-2.118.113-.112.197-.225.309-.337zm0 3.811c-.309.339-.617.706-.954 1.045-1.264 1.468-2.555 2.964-3.763 4.573-.308.395-.589.791-.899 1.186l-.673.931h6.289zm0 18.04-3.228-1.92.14-.395 3.088 1.835V54.92l-2.442-1.552.139-.424 2.303 1.468v-2.117l-1.657-1.129.142-.424 1.515 1.045v-2.203l-.871-.649.141-.423.73.536v-1.835h-6.317l-.168.254c-.59.847-1.18 1.665-1.713 2.541-.562.875-1.123 1.722-1.657 2.625-.505.904-1.039 1.807-1.544 2.71l-.085.17v3.274h9.49l-1.993-1.1.14-.423 2.752 1.523h1.095zm0 1.383h-.983l.983.537zm0 5.674-5.503-2.596.141-.425 5.362 2.541v-1.806l-4.745-2.428.141-.395 4.604 2.343v-1.863l-1.909-1.045h-9.575v11.547h3.426l-.421-.142.141-.395 1.627.537h4.662c.027-.057.027-.085.055-.142L21.96 68.16l.141-.395 5.728 2.089c.196-.508.365-.988.562-1.496l-5.7-2.258.14-.396 5.728 2.259c.197-.48.393-.989.618-1.468l-5.756-2.485.169-.395 5.756 2.485.336-.763zm0 1.864a58 58 0 0 0-1.515 3.811c-.029.056-.057.141-.085.198h1.6zm0 4.065h-1.6a35 35 0 0 0-.561 1.637c-.197.65-.394 1.271-.59 1.92v.028a45 45 0 0 0-.534 1.864v.084c-.168.622-.309 1.271-.448 1.892v.028c-.17.649-.283 1.299-.422 1.948v.028l-.337 1.948v.028c0 .056-.028.084-.028.141h4.52zm0 11.603h-4.52c-.112.593-.168 1.157-.253 1.75v.028a63 63 0 0 0-.505 7.989c0 .594 0 1.214.027 1.808h5.251zm0 11.631h-5.251c.056 2.06.226 4.093.478 6.098v.057c.085.648.169 1.298.281 1.947v.029l.337 1.947v.028c.112.481.196.961.308 1.441h3.847zm0 11.603h-3.847c.029.141.084.282.114.423v.028c.139.65.28 1.271.448 1.92v.057c.168.621.337 1.27.534 1.892v.027c.196.621.393 1.271.59 1.892.195.649.42 1.27.646 1.891.224.65.448 1.271.701 1.892.197.508.421 1.044.645 1.553h.169zm0 11.631h-.14c.028.113.084.226.14.339zm0 7.312-5.166 2.852-.225-.368 5.391-2.964v-1.892l-6.429 3.303-.225-.367 6.654-3.416v-1.806l-7.693 3.641-.253-.338 7.946-3.783v-.819l-.336-.762-8.649 3.755-.224-.367 8.704-3.783c-.028-.057-.056-.142-.085-.198h-3.705l-5.644 2.258-.112-.423 4.604-1.835h-6.037v11.546h7.61l3.874-2.287zm0 2.428-3.032 1.806h3.032zm0 7.932-.169.113-.224-.367.393-.282v-2.23l-1.404.96-.253-.339 1.657-1.129v-2.118l-2.667 1.694-.224-.339 2.891-1.863v-.169h-3.117l-.814.48-.224-.367.196-.113h-7.525v.113a77.4 77.4 0 0 0 7.637 11.461h3.847zm0 5.562h-3.79a70 70 0 0 0 3.509 4.065c.085.113.197.198.281.311zm0 6.436c-.449-.451-.899-.903-1.347-1.383a84 84 0 0 1-4.381-5.053h-5.756v1.468a81 81 0 0 0 2.809 3.529l-.983.819a50 50 0 0 1-1.826-2.287v8.017h7.048a70 70 0 0 1-3.145-3.302l.927-.847c1.292 1.411 2.611 2.822 3.987 4.149h2.667zm0 9.289-.029-.029.029-.028v-4.065h-2.611c.366.339.702.677 1.067 1.016l-.842.931a137 137 0 0 1-1.994-1.947h-7.104v11.546h11.484zm115.649-7.877a80 80 0 0 0 3.93-4.686c.338-.424.647-.847.984-1.271l.505-.649.477-.677c.141-.198.253-.367.394-.565h-6.29zm0-29.106c.309-.65.59-1.327.87-1.976h-.87zm0-2.032h.9a38 38 0 0 0 .644-1.553c.225-.621.478-1.242.703-1.892.224-.621.42-1.242.645-1.891.197-.621.393-1.271.59-1.892v-.027c.167-.622.364-1.271.506-1.892v-.028l.027-.029c.169-.649.309-1.27.449-1.92v-.028l.085-.423h-4.549zm1.348 0h3.538l-3.033-1.215c-.168.424-.337.819-.505 1.215m-1.348-11.631h4.577c.084-.48.196-.96.281-1.441v-.028c.14-.649.253-1.298.364-1.947v-.029c.085-.649.197-1.299.281-1.947v-.057a73 73 0 0 0 .45-6.098h-5.953zm0-11.603h5.953c.028-.594.028-1.214.028-1.808a68 68 0 0 0-.478-7.989V83.8c-.084-.593-.168-1.157-.252-1.75h-5.251zm0-11.632h5.251c-.029-.057-.029-.085-.029-.141v-.028a46 46 0 0 0-.364-1.948v-.028a48 48 0 0 0-.394-1.948v-.028c-.14-.621-.28-1.27-.449-1.892l-.027-.028v-.056c-.142-.622-.339-1.243-.506-1.864v-.028c-.197-.649-.393-1.27-.59-1.92-.196-.536-.365-1.101-.562-1.637h-2.33zm3.229-10.219 4.044-1.327h-4.494c.169.452.31.875.45 1.327m-3.229-1.383h2.303a.5.5 0 0 0-.056-.198c-.225-.622-.478-1.243-.703-1.864a57 57 0 0 0-1.544-3.584zm0-8.273 6.431-3.274h-3.819l-2.612 1.44zm0-2.314 1.713-.96h-1.713zm0-10.22 3.229-2.371h-3.173l-.056.057zm0-9.005 1.04-.932.252.367-1.292 1.158v2.569l2.247-1.864.139.423-2.386 1.977v2.456l2.948-2.315.141.424-2.948 2.314h3.173l.335-.253.057.253h4.773a80 80 0 0 0-7.889-10.417c-.197-.226-.393-.423-.59-.649zM133.763 158.64c2.695-2.061 5.391-4.347 7.975-6.888h-7.975zm0-18.548h1.824l-1.824-1.835zm0-2.427 2.415 2.427h2.527l-4.437-4.178q-.251.255-.505.509zm0-1.836a67 67 0 0 0 5.981-7.311h-5.981zm0-77.042h8.368a63.7 63.7 0 0 0-8.368-10.981zm.787-10.755c.364.366.701.762 1.066 1.157l2.219-1.976h-2.415zm.253-.819h-1.011c.168.169.309.339.476.508zm1.094 2.315c.338.395.702.791 1.039 1.214l4.241-3.529h-2.669zm1.291 1.525c.338.423.674.818 1.012 1.242l6.514-5.082h-2.893zm-3.425-11.914 3.088-3.529h-2.47l-.618.762zm0-3.444.084-.085h-.084zm-11.539 123.228a78 78 0 0 0 6.458-4.038c1.6-1.101 2.976-2.202 4.183-3.133h-9.49l.113.197-.366.198-.224-.395h-.674zm0-7.228h.646l-.646-1.072zm0-6.267c2.443-1.609 4.801-3.359 6.991-5.279h-6.991zm0-98.272h10.921c-3.284-3.387-6.962-6.38-10.921-8.977zm1.712-8.327c.421.31.871.621 1.291.931l3.005-4.15h-2.134zm1.656-3.219h-2.021l-1.32 2.089c.449.31.9.593 1.32.876zm-.028 4.376c.422.338.843.649 1.264.959l4.127-5.335h-2.217zm-3.34-2.965.87-1.411h-.87zm-.056 126.277v-3.839a79 79 0 0 1-6.178 3.162c-.505.226-1.01.451-1.543.677zm-6.402-1.157a76 76 0 0 0 6.402-3.19v-7.199h-1.291l.701 1.27-.365.226-.814-1.496h-1.91l1.18 2.372-.365.196-1.292-2.568h-1.853l1.6 3.472-.364.198-1.713-3.67h-1.769l1.937 4.573-.365.198-2.05-4.771h-1.74l2.245 5.674-.392.198-2.303-5.872h-.421c-.055.028-.084.028-.141.056v3.134l1.293 3.613-.365.198-.928-2.597v7.142h2.332a82 82 0 0 0 2.751-1.157m-5.083-133.419v3.105c.171.057.339.141.507.198l2.162-5.505.393.169-2.162 5.477c.477.198.982.423 1.46.621l2.274-5.307.394.169-2.276 5.308c.478.225.955.423 1.433.648l2.442-5.194.365.198-2.415 5.195c.477.225.955.451 1.405.705l2.611-5.166.421.141-2.639 5.194c.449.254.927.509 1.404.763l2.947-5.42.394.141-2.921 5.392h1.825l1.461-2.485v-9.09h-11.485v3.473l.675-1.891.393.168zm0 3.557v3.275h7.105a63 63 0 0 0-6.57-3.077c-.168-.057-.364-.142-.535-.198m8.144 3.36c.449.253.897.536 1.374.79l.478-.819h-1.824zm2.386-.085h.955v-1.637zm-.028.056-.619 1.044c.45.283.899.537 1.349.848l.253-.396V35.61zm-3.285 0h-7.217v11.546h11.485v-9.005a66 66 0 0 0-4.268-2.541m-7.217 11.603v11.574h11.485V47.213zm0 11.631v11.547h11.485V58.844zm0 11.603v11.546h11.485V70.447zm0 11.603v11.575h11.485V82.05zm0 11.631v11.547h11.485V93.681zm0 11.603v11.575h11.485v-11.575zm0 11.631v11.546h11.485v-11.546zm0 11.603v11.574h11.485v-11.574zm0 11.631v11.208c.171-.085.367-.142.535-.226 3.847-1.553 7.525-3.444 10.95-5.675v-5.307zm.282 11.546h.253l-.028-.084c-.085.028-.14.056-.225.084m.618-.253.112.253h1.713l-.365-.874c-.478.225-.983.423-1.46.621m5.082-2.316c-.45.226-.928.481-1.405.706l.871 1.863h1.826zm1.797 2.569h1.909l-1.909-3.5c-.477.254-.955.479-1.404.734zm-3.594-1.693c-.478.225-.955.451-1.433.649l.451 1.044h1.767zm7.047-3.868c-.45.282-.899.565-1.349.818l1.602 2.739v-3.162zm-1.714 1.045c-.477.282-.925.536-1.374.79l2.021 3.726h1.32v-1.185zm-45.342 20.664c1.993.311 3.958.424 5.896.593l2.919.085c.477 0 .982.056 1.433.028.476 0 .953 0 1.431-.028.449 0 .927-.028 1.403-.028h.702l.703-.057c.927-.056 1.825-.141 2.752-.197.897-.057 1.796-.198 2.695-.311.449-.056.87-.085 1.319-.141.45-.056.871-.169 1.32-.226.842-.141 1.712-.31 2.555-.451.842-.17 1.684-.368 2.498-.537.394-.113.815-.197 1.209-.282.42-.113.813-.227 1.206-.339.786-.226 1.572-.424 2.331-.649 1.966-.622 3.846-1.242 5.644-1.948h-9.267l-.056.028v-.028h-1.909l.197.988-.393.197-.224-1.185h-1.882l.281 1.778-.394.057-.28-1.835h-1.88l.251 1.919-.309-.028-.14-.028-.224-1.863h-1.853l.169 1.666-.422-.057-.141-1.609h-1.852l.083 1.411-.42-.028-.084-1.383h-1.825l.056 1.383h-.422l-.056-1.383h-1.797v1.383h-.421v-1.383h-1.825l-.028 1.383h-.421l.028-1.383H83.59l-.084 1.383h-.422l.084-1.383h-1.795l-.141 1.383h-.422l.141-1.383H79.07l-.169 1.383h-.421l.168-1.383h-1.825l-.224 1.383h-.421l.225-1.383h-1.91l-.253 1.355-.421-.029.252-1.326h-1.88l-.197.846-.392-.169.14-.677H57.478a74.4 74.4 0 0 0 17.381 4.488M100.044 28.75c.504.113 1.038.226 1.543.338l1.123-5.109h-1.769zm.476-4.771h-1.404v4.602c.17.056.338.084.506.113zm1.489 5.195c.506.112 1.038.253 1.543.366l1.433-5.561h-1.825zm1.936.479c.534.142 1.04.282 1.545.424l1.741-6.098h-1.825zm1.938.537c.505.141 1.011.311 1.516.48l1.965-6.07.394.17-1.965 6.012c.505.17 1.011.34 1.515.537l1.292-3.642v-3.698h-2.921zm3.818 1.27c.31.113.59.226.899.339v-2.852zm-.337.311c-.616-.226-1.263-.423-1.88-.649-.647-.198-1.264-.396-1.91-.593h-.028l-1.852-.508h-.057l-.029-.029c-.617-.17-1.235-.31-1.88-.452h-.028c-.647-.141-1.292-.282-1.938-.395-.224-.057-.421-.084-.646-.141v6.55H110.6V32.25c-.421-.169-.814-.338-1.236-.479M99.116 35.61v11.546H110.6V35.61zm0 11.603v11.574H110.6V47.213zm0 11.631v11.547H110.6V58.844zm0 11.603v11.546H110.6V70.447zm0 11.603v11.575H110.6V82.05zm0 11.631v11.547H110.6V93.681zm0 11.603v11.575H110.6v-11.575zm0 11.631v11.546H110.6v-11.546zm0 11.603v11.574H110.6v-11.574zm0 11.631v11.546h10.642c.281-.112.561-.197.842-.31v-11.236zm.506 14.793-.506.085v6.859l.225 1.412h1.882zm2.021 8.356h1.881l-1.937-8.751c-.505.113-1.011.197-1.543.31zm-1.881-8.808c.646-.141 1.291-.254 1.938-.395v-.028h.028a37 37 0 0 0 1.88-.452h.086a45 45 0 0 0 1.852-.537h.028c.646-.197 1.263-.395 1.91-.592a48 48 0 0 0 1.88-.65c.084-.028.142-.056.226-.084H99.116v2.851c.225-.028.422-.085.646-.113m9.939-2.315.899 2.513v-2.852c-.309.113-.589.227-.899.339m-.393.141-1.515.509 2.218 6.832-.366.225-2.246-6.916c-.505.141-1.011.31-1.516.451l2.134 7.397-.365.226-2.162-7.482c-.505.141-1.011.283-1.545.424l2.05 7.99-.365.225-2.078-8.13c-.505.141-1.037.253-1.543.367l1.936 8.723-.251.141h6.906v-7.368zM96.084 28.129c.534.057 1.039.141 1.572.198l.675-4.348h-1.713zm.085-4.15h-1.713l-.365 3.924c.534.028 1.038.085 1.572.17zm1.908 4.432c.309.056.646.113.983.17v-4.602h-.28zm-.281.367h-.028c-.645-.084-1.291-.197-1.936-.254l-.029-.028c-2.611-.31-5.25-.48-7.945-.48h-.281v7.538H99.06v-6.55c-.421-.085-.842-.141-1.264-.226m-3.762-4.799h-1.712l-.224 3.755c.504.028 1.038.084 1.572.112zm-2.134 0h-1.712l-.111 3.642 1.599.085zm-2.133 0h-1.685v3.614c.533 0 1.067 0 1.573.028zm-2.106 3.614v-3.614h-.084v3.614zm-.084 8.017v11.546H99.06V35.61zm0 11.603v11.574H99.06V47.213zm0 11.631v11.547H99.06V58.844zm0 11.603v11.546H99.06V70.447zm0 11.603v11.575H99.06V82.05zm0 11.631v11.547H99.06V93.681zm0 11.603v11.575H99.06v-11.575zm0 11.631v11.546H99.06v-11.546zm0 11.603v11.574H99.06v-11.574zm0 11.631v11.546H99.06v-11.546zm0 11.603v3.867h.281c2.695 0 5.334-.169 7.945-.507h.029c.645-.085 1.291-.17 1.936-.283h.028c.422-.085.843-.141 1.264-.226v-2.851zm0 4.291v7.255h.084v-7.255zm.505 0v7.255h1.797l-.224-7.283c-.506 0-1.04.028-1.573.028m7.581-.48c-.534.056-1.038.113-1.572.169l.702 7.566h1.825zm1.405 7.735h1.852l-1.264-8.018c-.533.086-1.038.142-1.572.227zm-3.398-7.538c-.534.057-1.068.085-1.572.142l.449 7.396h1.825zm-1.994.17c-.533.028-1.067.028-1.599.057l.224 7.311h1.825zm6.401-.706.983 6.296v-6.465c-.337.057-.674.112-.983.169M79.94 28.496l-.028.028h-.028c-.645.057-1.292.17-1.937.254h-.029c-.644.113-1.291.226-1.936.367h-.03v6.409h11.513v-7.538a73 73 0 0 0-7.525.48m7.525-.903v-3.614h-1.517l.112 3.642c.478-.028.927-.028 1.405-.028m-1.826.028-.112-3.642h-1.713l.253 3.727zm-1.992.113-.225-3.755h-1.713l.365 3.867c.506-.028 1.038-.084 1.573-.112m-5.56.593c.505-.057 1.038-.141 1.573-.198l-.535-4.15h-1.712zm-1.123-4.348h-1.012v3.952l.142.763a31 31 0 0 1 1.571-.283zm3.116 4.094a14 14 0 0 1 1.573-.17l-.365-3.924h-1.741zm-4.128 7.537v11.546h11.513V35.61zm0 11.603v11.574h11.513V47.213zm0 11.631v11.547h11.513V58.844zm0 11.603v11.546h11.513V70.447zm0 11.603v11.575h11.513V82.05zm0 11.631v11.547h11.513V93.681zm0 11.603v11.575h11.513v-11.575zm0 11.631v11.546h11.513v-11.546zm0 11.603v11.574h11.513v-11.574zm0 11.631v11.546h11.513v-11.546zm0 11.603v2.738h.03l1.936.339h.029c.645.113 1.292.198 1.937.283h.056c2.443.31 4.998.479 7.525.507v-3.867zm7.695 4.15c-.535-.057-1.067-.085-1.573-.142l-.701 7.538h1.795zm-.057 7.396h1.825l.224-7.311c-.505-.029-1.038-.029-1.572-.057zm-1.937-7.566c-.534-.056-1.067-.113-1.573-.169l-.983 7.735h1.854zm-1.993-.225c-.535-.085-1.068-.141-1.573-.227l-1.264 8.018h1.854zm-1.995-.283c-.532-.085-1.038-.197-1.571-.282l-.142.734v7.622h.451zm8.395.791-.224 7.283h1.629v-7.255c-.478 0-.927-.028-1.405-.028M66.435 31.319a24 24 0 0 1 1.489-.537l-2.219-6.803h-1.292v1.694zm-2.022-4.404v4.743l.141.367c.477-.198.983-.396 1.488-.565zm3.902 3.755c.507-.169 1.012-.339 1.516-.48l-1.795-6.211h-1.882zm1.938-.593 1.517-.424-1.46-5.674h-1.825zm1.938-.537c.505-.113 1.01-.254 1.544-.366l-1.15-5.195h-1.826zm1.937-.452c.534-.112 1.039-.225 1.572-.338l-.899-4.771h-1.796zm1.769-1.439v-3.67h-.675zm-1.854 1.891h-.027c-.646.142-1.263.282-1.91.452l-.028.029h-.028c-.617.169-1.263.338-1.881.508h-.028c-.617.197-1.263.395-1.881.593-.645.226-1.264.423-1.882.649-.645.226-1.263.479-1.88.706-.029 0-.058.028-.085.028v3.049h11.484v-6.38c-.618.084-1.235.225-1.854.366m-9.63 6.07v11.546h11.484V35.61zm0 11.603v11.574h11.484V47.213zm0 11.631v11.547h11.484V58.844zm0 11.603v11.546h11.484V70.447zm0 11.603v11.575h11.484V82.05zm0 11.631v11.547h11.484V93.681zm0 11.603v11.575h11.484v-11.575zm0 11.631v11.546h11.484v-11.546zm0 11.603v11.574h11.484v-11.574zm0 11.631v10.953c.027 0 .056.029.085.029.477.198.982.395 1.488.564h9.911v-11.546zm9.322 14.285a26 26 0 0 1-1.544-.367l-2.302 8.977-.365-.254 2.246-8.808-1.517-.424-2.329 8.075-.366-.255 2.273-7.961c-.504-.141-1.009-.31-1.516-.451l-2.357 7.312-.365-.198 2.331-7.255c-.507-.17-1.012-.339-1.489-.509l-2.022 5.647v5.335h7.357zm-1.544 8.864h1.88l1.629-8.441c-.533-.113-1.038-.197-1.572-.31zm-6.149-11.123a47 47 0 0 1-1.123-.423h-.421l-.085.226v4.715zm-1.263-.48c-.085-.028-.141-.056-.225-.084l-.028.084zm1.347.057.252.084c.618.227 1.237.452 1.882.65.618.197 1.264.395 1.881.592h.028c.618.198 1.264.368 1.881.537h.056c.647.169 1.264.311 1.91.452l.027.028c.619.141 1.236.254 1.854.367v-2.71zm8.395 11.546h1.376v-7.311zm-21.676 0h1.404c-.448-.198-.926-.395-1.404-.621zm0-1.948a70 70 0 0 0 4.493 1.948h7.02v-5.166l-.45 1.242-.393-.169.843-2.344v-4.742l-2.527 6.38-.394-.169 2.611-6.578h-1.74l-2.555 5.9-.366-.169 2.444-5.731h-1.769l-2.359 5.025-.394-.169 2.276-4.856h-1.854l-2.106 4.15-.393-.142 2.022-4.008h-1.91l-1.796 3.303-.393-.17 1.712-3.133h-1.993l-.029.028zm11.316-9.908a24 24 0 0 1-1.461-.621l-.365.874h1.713zm-8.788.253h1.909l1.404-2.766c-.478-.255-.926-.48-1.404-.734zm1.544-3.726c-.45-.254-.927-.508-1.376-.79l-2.639 4.516h1.994zm.843 3.726h1.853l.869-1.863c-.477-.225-.955-.48-1.431-.706zm2.329 0h1.77l.449-1.044c-.477-.198-.955-.424-1.431-.649zm-7.244-.761 2.331-3.982c-.449-.253-.899-.536-1.348-.818l-.983 1.553zm0-4.038.619-.988c-.198-.141-.421-.283-.619-.423zm0-1.92a61.5 61.5 0 0 0 11.513 6.098v-10.925H52.845zm0-4.884h11.513v-11.574H52.845zm0-11.631h11.513v-11.546H52.845zm0-11.602h11.513v-11.575H52.845zm0-11.631h11.513V93.681H52.845zm0-11.603h11.513V82.05H52.845zm0-11.632h11.513V70.447H52.845zm0-11.602h11.513V58.844H52.845zm0-11.604h11.513V47.213H52.845zm0-11.631h11.513V35.61h-6.543a69 69 0 0 0-4.97 3.02zm10.502-23.177h-1.965l2.976 7.538v-4.743zm1.011 1.553v-1.553h-.562zm0 10.022v-3.021a58 58 0 0 0-6.43 3.021zm-7.441.085-.028-.029h-1.825l.477.819c.449-.254.926-.537 1.376-.79m-4.072 2.484c.198-.142.421-.282.619-.424l-.619-.988zm0-2.174.983 1.553c.449-.311.899-.565 1.348-.848l-.618-1.044h-1.713zm0-.395h1.685l-1.685-2.88zm0-3.698 2.191 3.698h1.824l-3.734-6.832.338-.282 3.818 7.001c.478-.254.926-.509 1.404-.763l-3.79-7.452.336-.283 3.819 7.566c.476-.254.954-.48 1.431-.705l-3.762-8.075.31-.282 3.847 8.158c.476-.225.954-.423 1.431-.648l-3.764-8.724.367-.226 3.789 8.78c.478-.198.956-.423 1.461-.621l-3.229-8.187h-8.087zM41.306 162.847c.253.141.505.31.73.451H52.79v-.649a100 100 0 0 1-2.471-1.158 76 76 0 0 1-9.013-5.251zm0-8.187a72 72 0 0 0 9.546 5.73q.968.51 1.938.932v-9.457l-1.348 2.315-.394-.17 1.32-2.258h-2.105l-.955 1.524-.393-.169.842-1.355h-2.134l-.449.649-.393-.169.337-.48h-5.812zm10.837-9.627-4.492 6.662h2.163l2.976-4.714v-1.525c-.226-.141-.422-.282-.647-.423m.647-.085v-4.799H46.5a65 65 0 0 0 6.29 4.799m-2.471 6.747h2.077l.394-.649v-3.275zm-9.013 0h5.84l4.661-6.916c-.449-.282-.87-.594-1.291-.903l-5.504 7.622-.421-.169 5.587-7.708c-.449-.31-.87-.621-1.263-.96l-6.121 7.905-.393-.169 6.177-7.99c-.421-.338-.842-.649-1.236-.988l-6.036 7.312zm0-3.642 5.699-6.916a210 210 0 0 1-1.15-.988h-.112l-4.437 5.053zm4.183-8.243c-.392-.338-.785-.705-1.179-1.072l-1.263 1.354h2.19zm-4.183 4.771 3.874-4.432h-2.189l-1.685 1.806zm0-3.246 1.123-1.186h-1.123zm0-1.243h1.151l1.545-1.637c-.366-.367-.76-.734-1.123-1.101l-1.573 1.581zm0-1.778 1.264-1.271c-.365-.366-.73-.762-1.095-1.129l-.169.17zm0-3.191c1.628 1.751 3.314 3.416 5.138 4.969h6.346v-11.574H41.306zm0-6.662H52.79v-11.546H41.306zm0-11.602H52.79v-11.575H41.306zm0-11.631H52.79V93.681H41.306zm0-11.603H52.79V82.05H41.306zm0-11.632H52.79V70.447H41.306zm0-11.602H52.79V58.844H41.306zm0-11.604H52.79V47.213H42.541c-.42.423-.843.847-1.235 1.299zM52.143 35.61h-2.02l2.02 2.965c.225-.142.421-.283.647-.424v-1.525zm.647.254v-.254h-.168zm-3.174-.254h-2.105l3.005 4.15c.421-.31.842-.621 1.291-.931zm-7.018 11.546H52.79v-8.497a65.5 65.5 0 0 0-10.192 8.497m-1.292.396.169.169c.168-.169.309-.339.477-.508h-.646zm0-.396h.702c.197-.197.365-.394.562-.592l-1.264-1.27zm0-2.456 1.573 1.582c.363-.396.757-.763 1.123-1.13l-2.696-2.88zm0-3.048 3.004 3.218c.394-.367.787-.706 1.179-1.073l-4.183-4.771zm0-3.247 4.493 5.11c.392-.339.814-.678 1.206-1.044l-4.407-5.365.336-.225 4.408 5.335c.394-.339.815-.677 1.236-1.016l-4.156-5.336.365-.254 4.128 5.335c.393-.31.814-.621 1.263-.959l-3.173-4.376h-5.699zm0-2.851h5.644l-.759-1.045.337-.254.927 1.299h2.133l-1.684-2.485.338-.254 1.852 2.739h2.022l-2.471-3.925.309-.253 2.639 4.178h.197v-2.965l-1.404-2.399.308-.283 1.096 1.864v-7.792h-3.145c-.029 0-.029.028-.057.028-.364.198-.702.396-1.066.565-.365.226-.702.423-1.039.621-.702.423-1.432.847-2.134 1.271-.702.479-1.404.931-2.133 1.411-.337.226-.73.452-1.068.706l-.842.593zm0-8.385 1.011-.678a59 59 0 0 0 2.218-1.382c.673-.368 1.348-.763 2.05-1.13h-5.279zm-11.54 128.535.703-.819a89 89 0 0 0 5.728 4.545l-.731 1.017a80 80 0 0 1-5.7-4.517v7.368h9.855c-.505-.338-1.038-.677-1.543-1.017l.673-1.072c.814.536 1.657 1.072 2.5 1.61v-6.607c-2.051-1.383-4.016-2.879-5.953-4.46h-5.532zm11.485-1.101v-2.851h-3.764a63 63 0 0 0 3.764 2.851m-11.485-2.908h5.475c-1.881-1.581-3.734-3.246-5.475-5.025zm0-7.085a82 82 0 0 0 7.637 7.085h3.848v-2.907l-.703.847-.308-.142-.085-.028 1.096-1.327v-2.851l-2.809 3.19-.309-.254 3.118-3.557v-2.654l-4.465 4.8-.282-.34 4.747-5.081v-1.242h-1.152l-4.605 4.602-.196-.368 4.183-4.234h-2.499l-2.667 2.512-.224-.367 2.274-2.145H33.64l-.504.452-.197-.367.085-.085h-3.258zm11.485-9.571v-6.521H36a62 62 0 0 0 5.251 6.521m-1.124-.621-6.429 5.674h2.723l4.773-4.488c-.366-.395-.731-.79-1.067-1.186m-3.088 5.674h2.498l1.714-1.722v-2.258zm3.116 0h1.096v-1.101zm-10.389 0h3.342l6.738-5.985c-.365-.395-.702-.818-1.038-1.214l-6.823 5.676-.197-.368 6.738-5.646c-.309-.395-.645-.819-.982-1.242l-6.767 5.307-.225-.367 6.739-5.279c-.309-.396-.646-.819-.955-1.27l-6.57 4.799zm0-6.097 6.317-4.63-.589-.847h-.982l-4.746 3.246zm4.829-5.534h.842c-.084-.141-.167-.254-.252-.395zm.338-.733c-.281-.453-.59-.876-.871-1.328l-3.228 2.061h3.032zm-5.167 3.528 4.016-2.738h-3.033l-.983.621zm0-2.625.196-.113h-.196zm0-.17h.282l3.79-2.428a32 32 0 0 1-.814-1.354l-3.258 1.947zm0-2.342 3.032-1.808c-.28-.451-.532-.931-.785-1.383l-2.247 1.242zm0-2.428 2.049-1.13c-.252-.48-.504-.931-.757-1.411l-1.292.649zm0-2.344 1.095-.564c-.224-.481-.478-.96-.701-1.441l-.394.199zm0-2.287.225-.113c-.084-.169-.14-.31-.225-.479zm0-1.609a66 66 0 0 0 6.178 11.01h5.307v-11.546H29.766zm0-.592h11.485v-11.575H29.766zm0-11.631h11.485V93.681H29.766zm0-11.603h11.485V82.05H29.766zm0-11.632h11.485V70.447H29.766zm0-11.602h11.485V58.844h-7.695a67 67 0 0 0-3.79 7.34zm9.042-19.649c.336-.423.673-.819 1.038-1.214l-2.611-2.315h-2.667zm-4.886-3.529h-2.891l6.513 5.082c.337-.424.673-.819.982-1.242zm6.205 1.976c.336-.395.701-.791 1.067-1.157l-.871-.819h-2.414zm1.124-1.693v-.283h-.31zm-7.666 11.291h7.666V48.568a65 65 0 0 0-7.666 10.219m-.505.057h-.253l.197.113c.028-.028.028-.085.056-.113m-3.314 6.296c.085-.17.141-.311.225-.48l-.225-.114zm0-1.073.394.197c.223-.48.477-.96.701-1.411l-1.095-.565zm0-2.258 1.292.649c.253-.452.505-.932.757-1.383l-2.049-1.13zm0-2.372 2.247 1.242c.253-.452.505-.903.785-1.383l-.757-.452h-2.275zm0-.65h2.161l-2.161-1.298zm0-1.749 2.976 1.749h.366c.224-.423.477-.819.73-1.213l-4.072-2.597zm0-2.569 4.296 2.766c.281-.452.59-.904.871-1.327l-5.167-3.557zm0-2.626 5.419 3.698c.281-.423.589-.875.898-1.299l-6.317-4.601zm0-2.739 6.57 4.8c.309-.424.646-.847.955-1.271l-6.935-5.42h-.59zm0-2.342v.394h.506zl.253-.34.926.734h2.921l-2.611-2.173.308-.283 2.949 2.456h2.667l-4.043-3.585.364-.254 4.324 3.839h2.443l-5.194-4.911.364-.254 5.449 5.165h.365v-1.92l-4.269-4.291.365-.253 3.904 3.952v-2.428l-2.387-2.569.365-.226 2.022 2.174v-2.654l-.507-.564.338-.226.169.198V35.61H33.5c-.28.254-.532.48-.785.734-.338.31-.674.649-1.012.988a18 18 0 0 0-1.011 1.017c-.309.31-.617.649-.926.987zm11.485-11.208V29.23c-.057.028-.114.085-.169.113a72 72 0 0 0-7.526 6.211zm-11.485 1.045c.196-.199.422-.424.646-.622.14-.113.253-.254.393-.367h-1.039zm0-12.62.225.282-.084.904h-.141v3.67c.422-.395.983-.904 1.657-1.497q.673-.592 1.516-1.27c.59-.48 1.18-1.016 1.853-1.524.253-.17.506-.368.758-.565zm5.223.819c-.701.479-1.32.988-1.909 1.411-.562.452-1.095.847-1.573 1.214-.73.593-1.291 1.101-1.741 1.468v6.663h1.095c.197-.198.422-.367.619-.565 2.808-2.625 5.699-4.997 8.647-7.001l1.095-.762s.029 0 .029-.029v-3.218h-5.084c-.42.282-.814.536-1.178.819m88.47-5.928c-4.099-2.288-8.367-4.066-12.605-5.534-.535-.198-1.068-.367-1.602-.565-.534-.141-1.066-.31-1.6-.451a34 34 0 0 0-1.6-.48l-.787-.226-.814-.198-3.201-.762c-1.066-.198-2.134-.395-3.173-.593l-.786-.141-.814-.113c-.506-.085-1.038-.141-1.572-.226-.533-.056-1.039-.141-1.572-.197a29 29 0 0 0-1.545-.142c-1.039-.084-2.05-.197-3.088-.253-1.039-.029-2.078-.057-3.088-.113l-.758-.029-.73.029h-1.517c-.982.028-1.965.028-2.947.113-.956.056-1.938.112-2.893.169-.954.113-1.881.197-2.836.31-.926.085-1.853.254-2.751.396-.449.056-.898.141-1.349.197q-.672.085-1.346.255c-.87.169-1.742.338-2.612.536-.421.084-.842.169-1.262.282-.422.113-.843.226-1.264.311-1.658.395-3.258.903-4.829 1.383l-.562.169-.562.198c-.393.141-.757.282-1.151.395-.73.282-1.46.508-2.19.819a83 83 0 0 0-14.179 7.085c-.926.621-1.825 1.158-2.611 1.723a71 71 0 0 1-1.038.706h10.444c.029 0 .029-.029.056-.029.365-.225.73-.423 1.095-.621.365-.169.729-.367 1.095-.536.73-.367 1.432-.734 2.162-1.073.702-.339 1.432-.649 2.134-.96 1.375-.649 2.807-1.129 4.155-1.665.674-.255 1.348-.48 1.993-.706.675-.198 1.32-.424 1.965-.621 1.292-.395 2.556-.706 3.764-1.045 1.207-.31 2.386-.508 3.509-.762.561-.141 1.095-.197 1.656-.31.534-.085 1.039-.17 1.573-.255.506-.056.982-.169 1.489-.197.476-.057.953-.113 1.403-.169.926-.085 1.768-.198 2.582-.255 1.601-.085 2.948-.197 4.073-.197h3.368v.197s-1.179.057-3.368.17c-.535 0-1.152.085-1.826.141-.674.084-1.404.141-2.219.226-.785.056-1.628.225-2.527.339-.448.084-.925.141-1.402.225-.478.057-.955.17-1.461.254-.505.113-1.01.226-1.545.311-.533.113-1.066.226-1.627.367-1.095.282-2.246.536-3.426.875-1.179.367-2.414.706-3.678 1.129-.618.226-1.264.452-1.909.678-.646.225-1.32.451-1.966.734-1.32.565-2.695 1.073-4.043 1.75-.673.339-1.376.649-2.077.988-.619.339-1.264.678-1.91 1.017h11.146l-.28-.734.394-.113.336.847h1.994l-.478-1.299.422-.085.505 1.384h1.909l-.59-1.808.422-.084.617 1.892h1.882l-.674-2.315.421-.085.702 2.4h1.825l-.73-2.824.421-.084.758 2.908h1.797l-.73-3.332.392-.113.759 3.445h1.796l-.73-3.84.057-.028.366-.056.729 3.924h1.769l-.674-4.235.421-.085.674 4.32h1.74l-.589-4.602.422-.085.589 4.687h1.741l-.478-4.969.422-.084.477 5.053h1.713l-.338-5.364.393-.057.337 5.421h1.713l-.168-5.731.421-.057.168 5.788h1.713v-6.099l.421-.084v6.183h1.685l.225-6.494.422-.056-.226 6.55H91.9l.422-6.72h.421l-.421 6.72h1.712l.591-6.352.42.141-.589 6.211h1.741l.673-5.393.393.198-.645 5.195h1.74l.675-4.348.392.198-.645 4.15h1.74l.646-3.303.394.197-.59 3.106h1.768l.506-2.287.393.17-.477 2.117h1.825l.336-1.299.393.197-.28 1.102h1.825l.084-.311.393.198-.029.113h23.867c-2.64-1.864-5.335-3.558-8.115-5.053m10.249 6.606a55 55 0 0 0-2.05-1.497h-9.434v9.005l1.319-2.258.422.113-1.741 2.993v1.722h.898l2.612-4.15.421.141-2.554 4.009h2.019l2.332-3.444.421.14-2.218 3.304h2.105l1.966-2.711.421.141-1.853 2.57h2.217l1.518-1.977.42.142-1.432 1.835h2.191zm0 10.134h-2.219l-4.323 5.59c.421.339.842.677 1.235 1.016l5.307-6.436zm0 .819-4.97 6.042c.394.366.785.705 1.179 1.044l3.791-4.319zm0 3.416-3.454 3.952c.393.367.785.706 1.15 1.073l2.304-2.456zm0 3.19-1.994 2.117c.393.367.786.734 1.151 1.13l.843-.848zm0 2.964-.563.565.563.564zm0 1.75c-.168-.169-.337-.367-.506-.536h-10.978v11.574h11.484zm0 11.095h-11.484v11.547h11.484zm0 11.603h-11.484v11.546h11.484zm0 11.603h-11.484v11.575h11.484zm0 11.631h-11.484v11.547h11.484zm0 11.603h-11.484v11.575h11.484zm0 11.631h-11.484v11.546h11.484zm0 11.603h-11.484v11.574h7.075a63 63 0 0 0 4.409-4.206zm-3.454 11.292.252.282h2.163l-1.265-1.354c-.365.367-.757.734-1.15 1.072m3.454-3.331c-.197.198-.365.395-.563.564l.563.565zm0 1.722-.843-.847c-.365.367-.758.734-1.151 1.101l1.545 1.637h.449zm0 1.948h-.394l.394.423zm0 1.044-.984-1.044h-2.161l3.145 3.614zm0 3.219-3.735-4.263h-.112c-.365.339-.759.677-1.123.988l4.97 6.042zm0 3.444-5.307-6.437c-.393.339-.814.65-1.235.988l5.334 6.888-.421.17-5.251-6.804c-.421.339-.842.65-1.264.96l4.578 6.352-.478.056-4.437-6.153c-.42.309-.87.621-1.291.903l3.651 5.392-.45.113-3.566-5.251c-.42.282-.871.592-1.32.875l3.146 4.969-.365.197-2.808-4.461v3.163l1.123 1.919h9.602c.029-.028.084-.056.112-.084.224-.198.45-.367.647-.537zm0 3.586c-.084.084-.197.169-.282.253h.282zm0 .31h-.365l-.084.084c-1.264.989-2.696 2.174-4.381 3.331a79 79 0 0 1-6.654 4.263v3.868h4.689c.085-.056.196-.113.28-.169.787-.452 1.545-.988 2.303-1.468.758-.509 1.543-1.017 2.302-1.581.645-.451 1.263-.932 1.91-1.411zm0 8.751-1.096.763c-.758.564-1.573 1.072-2.358 1.553-.252.169-.506.31-.758.479h4.212zm1.6-133.785c-.505-.396-1.04-.819-1.545-1.186v10.022h.112l1.011-1.214.422.141-.871 1.073h2.471l.392-.452.451.141-.281.311h7.356a85 85 0 0 0-9.518-8.836m9.968 1.213-.731.791-.899.028-.028-.904 1.658-1.778v-2.089h-3.904l-.898 1.101-.899.085-.084-.904.225-.282h-4.1a83 83 0 0 1 9.66 8.498zm0 8.102c-.142-.141-.253-.282-.394-.423h-7.44l-3.679 4.178v2.569l6.037-6.465.45.141-6.487 6.917v2.428l8.591-8.667.423.17-9.014 9.062v1.213h1.096l9.77-9.231.337.254-9.49 8.977h2.444l7.356-6.549zm0 5.167-6.711 5.956h2.668l4.043-3.359zm0 3.134-3.399 2.822h2.892l.507-.394zm0 2.963-6.823 5.336c.308.424.617.847.953 1.271l5.87-4.291zm0 2.824-5.644 4.121c.308.424.618.876.926 1.299l4.718-3.218zm0 2.71-4.464 3.077c.279.423.56.875.869 1.327l3.595-2.315zm0 2.597-3.371 2.146c.253.394.478.79.703 1.213h.393l2.275-1.354zm-2.611 3.416c0 .028.027.085.055.113l.197-.113zm2.611-.932-1.489.875h1.489zm0 .932h-1.573l-.758.452c.252.48.533.931.786 1.383l1.545-.847zm0 1.468-1.348.763c.252.451.505.931.757 1.383l.591-.311zm0 2.315-.422.226c.14.254.28.536.422.819zm0 2.004a63 63 0 0 0-3.09-5.787h-8.423v11.547h11.513zm0 5.816h-11.513v11.546h11.513zm0 11.603h-11.513v11.575h11.513zm0 11.631h-11.513v11.547h11.513zm0 11.603h-11.513v11.575h11.513zm0 11.631h-11.513v11.546h6.009a62 62 0 0 0 5.504-9.457zm-4.718 11.151c-.084.141-.197.254-.281.395h.871zm1.319.395h3.033l-3.229-2.061c-.309.452-.59.875-.869 1.328zm3.399-8.525q-.213.423-.422.847l.422.226zm0 1.524-.591-.31c-.252.48-.505.931-.757 1.411l1.348.734zm0 2.315-1.545-.847c-.253.452-.534.932-.786 1.383l2.331 1.384zm0 2.428-2.556-1.524c-.281.451-.534.903-.815 1.354l3.371 2.146zm0 2.512-.282-.197h-3.032l3.314 2.258zm0 2.598-4.072-2.795h-.954c-.197.282-.422.565-.618.847l4.913 3.585-.225.367-4.914-3.613c-.336.451-.645.874-.953 1.27l4.885 3.84-.225.367-4.913-3.868c-.338.423-.674.847-1.012 1.242l4.97 4.15-.224.338-4.998-4.15c-.337.396-.701.819-1.039 1.214l5.054 4.489-.224.339-5.111-4.517c-.365.396-.702.791-1.066 1.186l4.772 4.488h5.954zm0 8.836h-5.896l.364.339-.224.367-.759-.706h-2.526l2.273 2.286-.224.368-2.639-2.654h-1.882v.48l3.51 3.754-.252.368-3.258-3.501v2.597l2.218 2.541-.253.339-1.965-2.23v2.766l.674.819-.336.254-.338-.395v3.077c.927-.791 1.741-1.468 2.387-2.061 1.628-1.496 2.471-2.315 2.471-2.315l.14.17s-.841.818-2.443 2.342c-.702.622-1.572 1.384-2.555 2.231v.31h8.031a86 86 0 0 0 3.482-3.642zm0 10.502c-.337.367-.674.706-1.012 1.044h1.012zm0 6.916-1.658-1.807.028-.875.899.028.731.791v-3.952h-1.068c-.73.706-1.488 1.411-2.218 2.089-.757.734-1.544 1.355-2.331 2.033-.757.649-1.516 1.326-2.33 1.919-.786.621-1.543 1.214-2.331 1.807-.392.282-.813.593-1.235.875v2.823h1.853l-.45-.621a.633.633 0 0 1 .142-.875l.899.141.981 1.355h8.088zm11.539-133.588h-11.484v2.033l.478-.508.899-.028.027.874-1.404 1.525v4.658c.814.847 1.6 1.694 2.386 2.569.141.141.281.311.393.452h3.284l2.22-1.835.87.085-.084.874-1.038.876h3.453zm0 15.979-1.574 1.157a.66.66 0 0 1-.897-.141c-.197-.282-.14-.706.14-.903l2.331-1.694V35.61h-3.538l-1.348 1.129-.899-.085.084-.874.198-.17h-3.146a80.7 80.7 0 0 1 8.565 11.546h.084zm0 7.255h-.057c.028.028.028.057.057.084zm0 5.082a93 93 0 0 0-2.977-5.082h-4.773l.028.141-3.762 2.738v2.203l4.296-2.937.112.424-4.408 3.02v2.09l4.942-3.162.112.423-5.054 3.219v2.033l5.588-3.332.111.424-5.699 3.387v.903h1.825l4.38-2.427.113.423-3.594 2.004h3.818l.281-.14.029.14h4.632zm0 6.549h-4.605l.056.198-6.935 3.557v1.185c.084.17.141.311.225.48l7.216-3.388.112.424-7.132 3.36c.225.48.421.959.646 1.44l6.964-3.021.112.423-6.908 2.993c.197.479.421.988.618 1.468l6.766-2.682.057.226.056.169-6.738 2.682c.196.508.392.988.562 1.496l6.569-2.371.085.423-6.514 2.343c.028.057.028.085.056.142h4.689l2.161-.706.085.395-.955.311h2.752zm0 11.603h-2.921l-5.222 1.722c.168.508.337 1.016.478 1.524l6.262-1.834.083.423-6.234 1.807c.141.508.281 1.016.422 1.552l6.205-1.609.085.424-6.178 1.58c.113.509.253 1.045.365 1.554l6.205-1.384.084.396-6.204 1.411c.113.508.225 1.044.337 1.553l6.233-1.215zm0 8.356-6.177 1.186c.112.508.196 1.044.281 1.553l5.896-.932zm0 2.23-5.812.932v.028h5.812zm0 1.017h-5.812c.056.508.139.988.224 1.496l5.588-.706zm0 1.214-5.559.705c.084.537.138 1.045.168 1.582l5.166-.481-.084.424-5.026.48c.028.536.085 1.073.113 1.581l4.603-.282-.083.423-4.492.283.084 1.609 4.183-.142v.424l-4.183.141c.028.536.028 1.045.028 1.581h4.155v.424h-4.155c0 .536 0 1.072-.028 1.609h5.11zm0 10.417h-3.034l2.107.057v.423l-4.183-.113-.084 1.581 4.267.282v.424l-4.295-.282c-.028.536-.085 1.072-.113 1.58l4.408.424v.424l-4.464-.424c-.03.536-.084 1.073-.168 1.581l4.632.593v.423l-4.661-.593a35 35 0 0 0-.224 1.581l4.885.79v.424l-4.969-.791a32 32 0 0 1-.281 1.581l5.25.989v.423l-5.306-1.016-.253 1.186h6.486zm0 11.603h-6.486l-.084.339 5.643 1.27v.423l-5.728-1.298c-.112.536-.252 1.044-.365 1.553l6.093 1.58v.424l-6.205-1.581-.422 1.524 6.627 1.948v.424l-6.738-1.948c-.141.508-.31 1.016-.478 1.524l7.216 2.344v.451l-7.328-2.399a24 24 0 0 1-.533 1.496l7.833 2.851v.424l-7.973-2.88c-.17.508-.366 1.016-.562 1.496l4.043 1.61h5.447zm0 11.631h-5.307l3.987 1.581-.141.423-4.996-2.004h-3.707c-.028.056-.056.141-.085.198l7.975 3.472-.253.367-7.89-3.444c-.225.48-.421.96-.646 1.439l7.301 3.473-.281.339-7.216-3.417c-.084.17-.141.312-.225.481v1.214l6.177 3.133-.281.339-5.896-3.021v1.836l4.661 2.568-.309.339-4.352-2.428v1.92l3.145 1.892-.281.31-2.864-1.694v2.005l.365.225h11.119zm0 11.603h-11.006l1.178.762-.279.339-1.377-.875v2.061l.393.282-.224.367-.169-.113v8.751h6.318c.478-.677.955-1.383 1.431-2.061.59-.959 1.179-1.891 1.797-2.85.282-.453.562-.961.842-1.44.254-.48.534-.988.815-1.468.084-.17.197-.339.281-.537zm0 7.368c-.084.142-.141.254-.225.367-.617.96-1.264 1.92-1.853 2.879-.225.311-.478.65-.702.96h2.78zm0 9.373-2.331-1.722a.63.63 0 0 1-.14-.876.66.66 0 0 1 .897-.141l1.574 1.158v-3.529h-2.808a64 64 0 0 0-1.235 1.722l-.506.677-.504.65c-.338.423-.703.875-1.04 1.299s-.674.875-1.011 1.27c-.365.423-.731.846-1.095 1.242-.701.819-1.403 1.637-2.162 2.399-.365.396-.758.791-1.123 1.186v1.101h2.163l-.028-.677.897-.029.73.706h7.722zm0 6.493h-7.665l1.544 1.468.028.904h-.87l-2.358-2.203v-.169h-2.163v4.008l1.404 1.497-.027.903-.899-.028-.478-.508v5.674h11.484zm-2.415-2.823.084.903-.87.084-2.5-2.06-.084-.904.899-.085zm-6.037-116.311-.897-.029.028-.903 2.358-2.202.87.028-.028.904zm-7.889 125.937 2.05 2.485-.085.903-.87-.085-2.078-2.512.084-.875zM22.747 26.35l.028-.874.899.028 2.218 2.342-.028.904-.899-.028zm113.46-4.658a.663.663 0 0 1-.899.142.673.673 0 0 1-.142-.904l1.911-2.597.87-.141c.28.197.337.592.14.875zm-4.493-3.105a.623.623 0 0 1-.87.169c-.281-.169-.365-.564-.197-.847l1.741-2.738a.592.592 0 0 1 .871-.197c.281.169.365.564.194.874zm-4.661-2.823a.66.66 0 0 1-.87.226c-.281-.142-.394-.537-.225-.847l1.544-2.823a.61.61 0 0 1 .534-.339c.112 0 .224.028.308.085.31.169.422.536.253.846zm-4.829-2.541a.63.63 0 0 1-.843.311.655.655 0 0 1-.309-.847l1.376-2.908c.113-.254.338-.395.562-.395.084 0 .197.028.281.084.31.142.449.509.31.848zm-4.998-2.202c-.112.339-.476.48-.814.367-.309-.141-.477-.508-.337-.819l1.179-3.02c.084-.254.337-.396.591-.396.055 0 .14 0 .223.029a.646.646 0 0 1 .365.818zm-5.11-1.892c-.083.339-.449.509-.786.396-.337-.085-.506-.452-.393-.791l.983-3.077a.63.63 0 0 1 .589-.423c.056 0 .14 0 .196.028.338.113.534.452.422.79zm-5.193-1.552c-.086.339-.451.536-.787.452s-.535-.452-.45-.791l.815-3.133c.083-.283.309-.48.59-.48.056 0 .111.028.168.028.336.085.534.423.448.79zm-6.066-.734c-.337-.085-.561-.395-.477-.763l.59-3.161a.63.63 0 0 1 .617-.508h.113c.337.056.562.395.505.734l-.59 3.19a.663.663 0 0 1-.758.508m-5.334-.847c-.337-.057-.59-.367-.534-.705l.393-3.219c.057-.311.337-.565.645-.565h.057c.364.057.59.367.562.706l-.421 3.218c-.028.339-.338.593-.702.565m-5.363-.537a.59.59 0 0 1-.589-.649l.196-3.246c.028-.339.31-.593.673-.593.338.028.59.339.59.677l-.225 3.219a.59.59 0 0 1-.645.592m-5.419-.168a.625.625 0 0 1-.617-.622V1.423c0-.339.28-.621.617-.621a.63.63 0 0 1 .646.621v3.246c0 .339-.28.622-.646.622m-5.391.168c-.365.029-.646-.225-.673-.592l-.197-3.219a.63.63 0 0 1 .59-.677c.337 0 .645.254.673.593l.197 3.246a.61.61 0 0 1-.59.649m-5.391.537c-.336.028-.644-.226-.701-.565l-.393-3.218c-.057-.339.196-.649.534-.706h.055c.309 0 .617.254.646.565l.421 3.219a.673.673 0 0 1-.562.705m-5.334.847a.635.635 0 0 1-.73-.508l-.618-3.19c-.056-.339.169-.678.506-.734h.112a.63.63 0 0 1 .618.508l.617 3.161a.667.667 0 0 1-.505.763m-5.278 1.186a.62.62 0 0 1-.758-.452l-.815-3.134a.655.655 0 0 1 .477-.79c.057 0 .112-.028.169-.028.28 0 .506.197.59.48l.786 3.133c.084.339-.112.706-.449.791m-5.195 1.496a.617.617 0 0 1-.786-.396l-.983-3.077a.61.61 0 0 1 .394-.79c.083-.028.14-.028.196-.028.281 0 .505.169.588.423l1.012 3.077a.615.615 0 0 1-.421.791m-5.081 1.863a.643.643 0 0 1-.815-.367L51.077 8c-.14-.31.029-.677.337-.818.084-.029.168-.029.224-.029.281 0 .505.142.618.396l1.179 3.02a.647.647 0 0 1-.364.819m-4.942 2.146c-.338.141-.702.028-.843-.311l-1.376-2.907c-.14-.339-.027-.706.31-.848a.47.47 0 0 1 .28-.084c.225 0 .421.141.534.395l1.376 2.908a.62.62 0 0 1-.281.847M43.3 15.99a.626.626 0 0 1-.843-.226l-1.571-2.852a.613.613 0 0 1 .251-.846.56.56 0 0 1 .309-.085c.225 0 .45.113.562.339l1.544 2.823c.169.31.056.705-.252.847m-4.661 2.766a.63.63 0 0 1-.871-.169l-1.712-2.739c-.197-.31-.112-.705.196-.874a.54.54 0 0 1 .337-.114c.197 0 .421.114.534.311l1.713 2.738a.585.585 0 0 1-.197.847m-5.335 2.936-1.909-2.625a.63.63 0 0 1 .14-.875l.898.141 1.882 2.597a.67.67 0 0 1-.14.904.624.624 0 0 1-.871-.142M8.455 55.993a81 81 0 0 1 3.427-6.606l1.067.65a74 74 0 0 0-3.341 6.492zm-3.873 9.881a90 90 0 0 1 2.583-6.973l1.15.508a84 84 0 0 0-2.527 6.86zM3.233 76.432l-1.235-.254a90 90 0 0 1 1.657-7.228l1.236.339a88 88 0 0 0-1.658 7.143M1.97 86.821l-1.263-.085c.14-2.456.392-4.94.758-7.396l1.236.197a90 90 0 0 0-.731 7.284m.028 10.474-1.263.084a83 83 0 0 1-.168-7.453l1.263.029c-.056 2.428 0 4.912.168 7.34m1.321 10.389-1.237.225a81 81 0 0 1-1.094-7.34l1.263-.141a90 90 0 0 0 1.068 7.256m2.61 10.134-1.178.395a79 79 0 0 1-2.022-7.17l1.235-.283a88 88 0 0 0 1.965 7.058m3.874 9.712-1.122.564c-1.068-2.258-2.05-4.545-2.893-6.86l1.18-.451a84 84 0 0 0 2.835 6.747m5.054 9.175-1.066.677c-1.32-2.089-2.583-4.235-3.706-6.436l1.094-.593a79 79 0 0 0 3.678 6.352m39.588 32.719-.476 1.186a96 96 0 0 1-6.739-2.992l.533-1.158a74 74 0 0 0 6.682 2.964m9.913 3.219-.31 1.242c-2.386-.621-4.773-1.327-7.075-2.146l.393-1.186a86 86 0 0 0 6.992 2.09m10.248 1.947-.169 1.243a92 92 0 0 1-7.301-1.214l.281-1.242c2.36.508 4.774.903 7.189 1.213m10.135 3.727a.63.63 0 0 1 .646.621v3.247c0 .338-.28.621-.646.621a.625.625 0 0 1-.617-.621v-3.247c0-.339.28-.621.617-.621m5.419-.169h.056c.309 0 .589.281.589.593l.225 3.218c0 .367-.252.65-.59.678a.634.634 0 0 1-.673-.594l-.196-3.218c-.028-.367.224-.649.589-.677m5.363-.508h.112c.309 0 .562.225.59.536l.421 3.219c.028.337-.198.677-.562.705-.337.056-.645-.198-.702-.537l-.393-3.218c-.056-.339.197-.677.534-.705m5.334-.848c.056 0 .113-.028.14-.028.309 0 .534.226.618.537l.59 3.161c.057.339-.168.678-.505.734a.596.596 0 0 1-.73-.479l-.59-3.191a.6.6 0 0 1 .477-.734m5.279-1.185c.056 0 .113-.028.169-.028a.66.66 0 0 1 .618.48l.784 3.133a.62.62 0 0 1-.448.762.62.62 0 0 1-.758-.451l-.815-3.134a.623.623 0 0 1 .45-.762m5.194-1.524c.056-.029.141-.029.196-.029.281 0 .534.169.59.424l1.011 3.077a.657.657 0 0 1-.422.819c-.308.113-.672-.085-.785-.425l-.983-3.076a.61.61 0 0 1 .393-.79m5.082-1.836a.8.8 0 0 1 .253-.056.61.61 0 0 1 .561.395l1.207 3.021c.114.339-.028.706-.365.819a.61.61 0 0 1-.814-.339l-1.179-3.021a.616.616 0 0 1 .337-.819m4.969-2.174c.084-.027.169-.056.254-.056.224 0 .476.141.589.367l1.377 2.936c.139.311 0 .678-.31.847a.65.65 0 0 1-.843-.311l-1.376-2.936c-.14-.31 0-.677.309-.847m4.802-2.455a.56.56 0 0 1 .308-.085c.226 0 .45.113.562.339l1.544 2.823a.647.647 0 0 1-.253.875.61.61 0 0 1-.842-.254l-1.544-2.852c-.169-.282-.056-.677.225-.846m4.661-2.767a.53.53 0 0 1 .336-.113c.224 0 .421.113.534.31l1.739 2.739a.67.67 0 0 1-.194.875c-.31.169-.703.085-.871-.198l-1.741-2.738a.666.666 0 0 1 .197-.875m26.561-26.678a.59.59 0 0 1 .505-.31c.112 0 .224.027.337.112l2.722 1.723c.31.197.394.592.197.874-.169.311-.561.396-.87.198l-2.723-1.722c-.281-.198-.366-.593-.168-.875m2.723-4.687a.62.62 0 0 1 .562-.339c.111 0 .223.029.307.085l2.809 1.553c.308.169.42.565.253.875a.61.61 0 0 1-.842.254l-2.836-1.581c-.31-.169-.394-.536-.253-.847m2.47-4.855a.65.65 0 0 1 .561-.367.54.54 0 0 1 .282.085l2.892 1.355a.637.637 0 0 1 .308.846c-.14.311-.505.452-.842.311l-2.892-1.383c-.337-.142-.448-.508-.309-.847m2.134-4.969a.635.635 0 0 1 .59-.395c.084 0 .14 0 .224.028l3.005 1.186a.647.647 0 0 1 .364.819c-.14.338-.505.508-.842.367l-2.977-1.186a.65.65 0 0 1-.364-.819m1.854-5.11c.055-.282.307-.452.589-.452.056 0 .141 0 .196.029l3.061 1.016c.336.085.505.452.393.791a.606.606 0 0 1-.786.395l-3.061-.989a.62.62 0 0 1-.392-.79m1.487-5.222a.66.66 0 0 1 .618-.48c.056 0 .112.027.169.027l3.117.791a.624.624 0 0 1 .449.762.665.665 0 0 1-.787.48l-3.116-.818a.624.624 0 0 1-.45-.762m1.179-5.308c.084-.31.338-.508.618-.508h.113l3.172.621c.337.056.561.396.506.734a.635.635 0 0 1-.731.508l-3.173-.621c-.336-.056-.561-.395-.505-.734m.843-5.364a.66.66 0 0 1 .645-.564h.057l3.2.423c.337.028.59.367.562.706-.055.339-.364.593-.702.536l-3.201-.395a.65.65 0 0 1-.561-.706m4.549-10.219h-3.229a.626.626 0 0 1-.618-.622c0-.366.281-.649.618-.649h3.229c.336 0 .617.283.617.649a.626.626 0 0 1-.617.622m-3.455 5.477c-.336-.029-.589-.339-.589-.678.028-.311.309-.593.618-.593h.057l3.229.198c.336.028.589.338.589.677a.63.63 0 0 1-.674.593z"/><path fill="none" d="M86.079 154.066c-34.643 0-62.727-28.083-62.727-62.726s28.084-62.726 62.727-62.726"/><path fill="none" d="M58.922 41.056c27.904-16.11 63.584-6.55 79.694 21.354 16.11 27.903 6.549 63.583-21.354 79.692"/><path fill="none" d="M87.282 39.068c28.868 0 52.271 23.403 52.271 52.272s-23.403 52.272-52.271 52.272S35.01 120.209 35.01 91.34s23.403-52.272 52.272-52.272"/></svg>