<?xml version="1.0" encoding="utf-8"?>
<!-- Generator: Adobe Illustrator 25.2.1, SVG Export Plug-In . SVG Version: 6.00 Build 0)  -->
<svg version="1.1" id="图层_1" xmlns="http://www.w3.org/2000/svg" xmlns:xlink="http://www.w3.org/1999/xlink" x="0px" y="0px"
	 viewBox="0 0 200 200" style="enable-background:new 0 0 200 200;" xml:space="preserve">
<style type="text/css">
	.st0{fill:#FFFFFF;}
</style>
<path class="st0" d="M129.7,72c2,0,3.9,0.1,5.8,0.4c-5.2-24-31.1-41.8-60.7-41.8c-33.1,0-60.2,22.3-60.2,50.6
	c0,16.3,9,29.8,24.1,40.2l-6,17.9l21-10.4c7.5,1.5,13.6,3,21.1,3c1.9,0,3.8-0.1,5.6-0.2c-1.2-4-1.9-8.1-1.9-12.5
	C78.6,93.1,101.2,72,129.7,72z M97.4,55.8c4.5,0,7.5,3,7.5,7.4c0,4.5-3,7.5-7.5,7.5c-4.5,0-9-3-9-7.5C88.4,58.8,92.9,55.8,97.4,55.8
	z M55.3,70.7c-4.5,0-9.1-3-9.1-7.5c0-4.5,4.5-7.4,9.1-7.4c4.5,0,7.5,3,7.5,7.4C62.8,67.7,59.8,70.7,55.3,70.7z M184.7,118.4
	c0-23.8-24.1-43.2-51.1-43.2c-28.6,0-51.2,19.4-51.2,43.2c0,23.8,22.5,43.2,51.2,43.2c6,0,12-1.5,18.1-3l16.5,8.9l-4.5-14.9
	C175.7,143.7,184.7,131.8,184.7,118.4z M117,110.9c-3,0-6-2.9-6-6c0-3,3-6,6-6c4.5,0,7.5,3,7.5,6C124.5,108,121.5,110.9,117,110.9z
	 M150,110.9c-3,0-6-2.9-6-6c0-3,3-6,6-6c4.5,0,7.5,3,7.5,6C157.6,108,154.6,110.9,150,110.9z"/>
</svg>
