<?xml version="1.0" encoding="utf-8"?>
<!-- Generator: Adobe Illustrator 14.0.0, SVG Export Plug-In . SVG Version: 6.00 Build 43363)  -->
<!DOCTYPE svg PUBLIC "-//W3C//DTD SVG 1.1//EN" "http://www.w3.org/Graphics/SVG/1.1/DTD/svg11.dtd">
<svg version="1.1" id="图层_1" xmlns="http://www.w3.org/2000/svg" xmlns:xlink="http://www.w3.org/1999/xlink" x="0px" y="0px"
	 width="20px" height="20px" viewBox="0 0 20 20" enable-background="new 0 0 20 20" xml:space="preserve">
<path fill="#FFFFFF" d="M17.88,3.895c0.182,2.453,0.027,6.497-2.361,9.502c-2.167,2.723-5.781,4.104-10.741,4.104
	c-0.853,0-1.754-0.042-2.69-0.124C2.192,15.221,2.693,9.74,5.094,7.088c1.811-2.002,3.6-2.26,4.956-2.26
	c0.73,0,1.461,0.084,2.167,0.166c0.695,0.08,1.354,0.155,2.004,0.155c0.487,0,0.916-0.044,1.311-0.133
	C16.521,4.793,17.292,4.364,17.88,3.895 M18.562,1.499c0,0-0.846,1.998-3.25,2.542c-0.346,0.078-0.709,0.108-1.09,0.108
	c-1.245,0-2.666-0.321-4.171-0.321c-1.832,0-3.788,0.477-5.698,2.588c-3.313,3.662-3.292,11.863-3.292,11.863
	c1.335,0.15,2.57,0.222,3.717,0.222C22.53,18.501,18.562,1.499,18.562,1.499L18.562,1.499z"/>
<path opacity="0.4" fill="#FFFFFF" d="M18.387,7.834c-0.253-0.111-0.548,0.004-0.659,0.257c-0.273,0.622-1.622,1.029-3.021,1.24
	c2.521-2.12,3.871-5.302,3.941-5.473c0.106-0.254-0.015-0.547-0.27-0.652c-0.254-0.104-0.547,0.015-0.654,0.27
	c-0.019,0.047-1.852,4.387-5.101,6.068l0,0c-0.201,0.104-0.406,0.2-0.618,0.282c-0.69,0.267-1.333,0.495-1.946,0.705
	c0.269-0.922,1.054-2.995,3.154-5.545c0.175-0.213,0.145-0.528-0.068-0.704c-0.214-0.177-0.528-0.146-0.704,0.068
	c-3.038,3.688-3.482,6.435-3.499,6.55c0,0.002,0,0.004,0,0.006c-0.064,0.021-0.139,0.047-0.202,0.068
	c-1.34,0.443-2.504,0.83-3.515,1.35c-0.181-0.959-0.348-3.748,2.769-7.043C8.17,5.094,8.163,4.801,7.977,4.625
	C7.792,4.451,7.5,4.457,7.323,4.643c-3.754,3.969-3.145,7.379-2.936,8.166c-1.206,0.8-2.162,1.923-2.916,3.797
	c-0.103,0.256,0.021,0.547,0.277,0.65c0.061,0.023,0.125,0.035,0.187,0.035c0.198,0,0.385-0.118,0.464-0.313
	c0.789-1.964,1.785-2.977,3.186-3.718c0.044,0.044,0.097,0.081,0.158,0.106c0.203,0.085,3.817,1.57,7.118,1.57
	c1.152,0,2.268-0.182,3.185-0.667c0.244-0.13,0.337-0.432,0.208-0.676s-0.432-0.337-0.676-0.208
	c-2.514,1.33-7.046-0.068-8.762-0.683c0.666-0.261,1.406-0.507,2.24-0.782c0.976-0.322,2.083-0.688,3.311-1.164
	c0.198-0.077,0.388-0.168,0.576-0.261c1.014-0.028,4.931-0.249,5.701-2.005C18.755,8.24,18.64,7.944,18.387,7.834z"/>
</svg>
