<svg 
 xmlns="http://www.w3.org/2000/svg"
 xmlns:xlink="http://www.w3.org/1999/xlink"
 width="177px" height="184px">
<defs>
<linearGradient id="PSgrad_0" x1="0%" x2="0%" y1="100%" y2="0%">
  <stop offset="0%" stop-color="rgb(41,241,156)" stop-opacity="1" />
  <stop offset="100%" stop-color="rgb(2,161,249)" stop-opacity="1" />
</linearGradient>

</defs>
<path fill-rule="evenodd"  fill="url(#PSgrad_0)"
 d="M174.504,86.764 L171.275,86.962 C170.937,86.990 170.628,86.736 170.600,86.369 C170.600,86.030 170.853,85.720 171.189,85.720 L174.419,85.494 C174.756,85.494 175.065,85.748 175.093,86.087 C175.093,86.454 174.840,86.736 174.504,86.764 ZM173.997,81.118 L170.797,81.513 C170.460,81.570 170.151,81.316 170.095,80.977 C170.067,80.610 170.292,80.299 170.656,80.271 L173.857,79.848 C173.885,79.848 173.885,79.848 173.914,79.848 C174.222,79.848 174.504,80.073 174.559,80.412 C174.587,80.751 174.334,81.062 173.997,81.118 ZM173.155,75.500 L169.983,76.093 C169.645,76.178 169.336,75.952 169.252,75.613 C169.196,75.246 169.421,74.935 169.757,74.851 L172.930,74.258 C172.987,74.258 173.015,74.230 173.072,74.230 C173.352,74.230 173.605,74.456 173.661,74.766 C173.716,75.105 173.492,75.444 173.155,75.500 ZM171.977,69.939 L168.860,70.757 C168.523,70.842 168.158,70.645 168.073,70.306 C167.989,69.967 168.186,69.600 168.523,69.515 L171.639,68.725 C171.696,68.725 171.751,68.697 171.808,68.697 C172.089,68.697 172.341,68.894 172.426,69.177 C172.510,69.515 172.313,69.854 171.977,69.939 ZM170.432,64.491 L167.371,65.479 C167.035,65.592 166.670,65.422 166.586,65.083 C166.473,64.745 166.641,64.377 166.978,64.293 L170.039,63.276 C170.095,63.248 170.179,63.248 170.235,63.248 C170.487,63.248 170.740,63.418 170.825,63.672 C170.937,64.010 170.768,64.377 170.432,64.491 ZM168.551,59.126 L165.546,60.312 C165.238,60.453 164.873,60.284 164.732,59.973 C164.620,59.634 164.760,59.268 165.096,59.155 L168.073,57.941 C168.158,57.912 168.242,57.912 168.299,57.912 C168.579,57.912 168.803,58.054 168.915,58.308 C169.029,58.618 168.887,59.014 168.551,59.126 ZM166.333,53.904 L163.441,55.287 C163.132,55.428 162.739,55.287 162.598,54.977 C162.459,54.666 162.570,54.271 162.907,54.130 L165.799,52.747 C165.884,52.718 165.967,52.690 166.080,52.690 C166.305,52.690 166.529,52.831 166.641,53.057 C166.781,53.368 166.670,53.763 166.333,53.904 ZM163.806,48.822 L160.997,50.375 C160.690,50.544 160.296,50.432 160.128,50.121 C159.987,49.838 160.071,49.444 160.381,49.274 L163.217,47.721 C163.301,47.665 163.412,47.636 163.525,47.636 C163.722,47.636 163.946,47.749 164.059,47.975 C164.226,48.258 164.114,48.653 163.806,48.822 ZM160.969,43.910 L158.247,45.660 C157.966,45.830 157.573,45.745 157.405,45.463 C157.207,45.152 157.292,44.757 157.573,44.587 L160.296,42.837 C160.408,42.781 160.521,42.752 160.633,42.752 C160.858,42.752 161.054,42.837 161.166,43.035 C161.363,43.345 161.279,43.741 160.969,43.910 ZM156.870,39.901 L156.870,47.382 C159.538,51.758 161.812,56.360 163.665,61.160 C167.344,70.786 169.252,81.090 169.281,91.225 C169.308,96.250 168.860,101.331 168.018,106.215 C167.175,111.127 165.939,115.871 164.255,120.416 C162.627,124.933 160.633,129.252 158.331,133.289 C158.050,133.797 157.769,134.277 157.461,134.785 C157.264,135.123 157.067,135.462 156.870,135.802 L156.870,143.706 L157.826,144.412 L157.966,145.315 C157.769,145.597 157.376,145.654 157.096,145.456 L156.870,145.287 L156.870,163.355 L137.217,163.355 L138.087,164.569 C138.284,164.822 138.227,165.218 137.947,165.443 L137.077,165.303 L135.673,163.355 L129.411,163.355 C128.906,163.665 128.401,164.004 127.896,164.286 C126.295,165.190 124.750,166.093 123.178,166.827 C122.392,167.222 121.635,167.618 120.877,167.984 C120.090,168.323 119.331,168.634 118.574,168.973 C118.181,169.142 117.816,169.311 117.450,169.481 C117.058,169.622 116.693,169.763 116.328,169.904 C115.569,170.186 114.839,170.468 114.109,170.752 C108.298,172.868 102.991,174.026 98.611,174.675 C97.516,174.873 96.477,174.986 95.495,175.099 C95.016,175.155 94.540,175.184 94.063,175.240 C93.613,175.296 93.164,175.353 92.743,175.353 C91.872,175.409 91.087,175.465 90.357,175.494 C89.626,175.550 88.981,175.579 88.391,175.579 C86.004,175.607 84.741,175.607 84.741,175.607 C84.741,175.607 86.004,175.550 88.363,175.437 C88.952,175.437 89.626,175.353 90.357,175.296 C91.057,175.212 91.872,175.155 92.714,175.071 C93.136,175.042 93.585,174.958 94.034,174.901 C94.484,174.816 94.962,174.760 95.439,174.675 C96.421,174.535 97.460,174.421 98.526,174.195 C102.879,173.433 108.074,172.106 113.773,169.876 C114.503,169.565 115.204,169.283 115.935,168.973 C116.300,168.831 116.665,168.662 117.058,168.521 C117.395,168.352 117.759,168.182 118.152,167.984 C118.882,167.646 119.613,167.307 120.371,166.940 C121.129,166.573 121.859,166.150 122.616,165.754 C124.049,165.048 125.397,164.201 126.828,163.355 L114.335,163.355 C112.172,164.258 109.842,165.077 107.427,165.895 C106.642,166.122 105.854,166.347 105.069,166.573 C104.675,166.714 104.282,166.827 103.862,166.940 C103.468,167.025 103.047,167.137 102.626,167.222 C101.811,167.420 100.970,167.618 100.127,167.815 C99.286,167.984 98.414,168.126 97.545,168.295 C97.094,168.352 96.674,168.464 96.225,168.521 C95.775,168.577 95.326,168.634 94.877,168.690 C93.978,168.803 93.080,168.944 92.182,169.029 C91.256,169.113 90.329,169.198 89.373,169.255 L88.672,169.311 L87.971,169.339 C87.492,169.367 87.015,169.367 86.538,169.396 C86.060,169.396 85.583,169.424 85.107,169.424 C84.601,169.453 84.151,169.424 83.647,169.424 C82.691,169.396 81.709,169.396 80.726,169.367 C78.761,169.227 76.739,169.113 74.718,168.831 C68.036,168.041 61.100,166.206 54.390,163.355 L42.148,163.355 C43.103,163.919 44.057,164.456 45.012,164.992 L44.395,166.122 C42.823,165.246 41.251,164.314 39.735,163.355 L18.142,163.355 L18.142,143.621 C17.244,142.435 16.374,141.250 15.531,140.036 L16.570,139.330 C17.075,140.064 17.610,140.798 18.142,141.532 L18.142,131.764 C16.177,128.461 14.408,125.017 12.949,121.460 C11.122,117.056 9.664,112.455 8.709,107.796 C7.726,103.139 7.165,98.396 7.024,93.681 L6.968,91.931 L6.968,91.789 L6.968,91.676 L6.997,91.451 L6.997,91.028 L7.024,90.152 C7.052,88.995 7.024,87.838 7.136,86.652 C7.165,86.087 7.220,85.494 7.249,84.902 C7.305,84.308 7.333,83.743 7.418,83.151 C7.558,81.993 7.698,80.864 7.867,79.707 C8.541,75.133 9.664,70.673 11.095,66.438 C12.555,62.176 14.353,58.139 16.402,54.328 C16.963,53.310 17.553,52.295 18.142,51.307 L18.142,42.103 C16.907,43.797 15.699,45.547 14.577,47.326 L13.510,46.649 C14.829,44.559 16.261,42.499 17.721,40.550 L18.142,40.861 L18.142,23.923 L28.054,23.923 L26.959,22.567 L27.044,21.692 L27.941,21.777 L29.710,23.923 L35.634,23.923 C36.083,23.584 36.533,23.245 37.010,22.878 C37.824,22.285 38.695,21.720 39.621,21.099 C43.300,18.615 47.989,15.933 53.716,13.506 C54.417,13.223 55.176,12.941 55.907,12.659 C56.271,12.517 56.665,12.376 57.030,12.207 L57.619,12.009 L58.180,11.811 C59.753,11.275 61.353,10.711 63.038,10.287 C66.378,9.299 69.973,8.593 73.763,8.029 C74.690,7.887 75.673,7.775 76.627,7.661 C77.610,7.577 78.592,7.492 79.576,7.407 C80.558,7.295 81.569,7.295 82.580,7.238 C83.084,7.238 83.590,7.210 84.095,7.210 C84.376,7.182 84.601,7.182 84.882,7.182 L85.668,7.182 C86.678,7.210 87.718,7.238 88.756,7.238 C89.795,7.295 90.862,7.380 91.929,7.436 C92.462,7.492 92.995,7.521 93.529,7.577 C94.063,7.634 94.596,7.690 95.129,7.747 C95.663,7.831 96.197,7.887 96.758,7.944 L97.572,8.057 L98.386,8.198 C99.454,8.367 100.548,8.565 101.643,8.762 C102.738,8.989 103.833,9.242 104.929,9.497 L105.742,9.666 L106.557,9.892 C107.119,10.033 107.652,10.202 108.214,10.343 C108.748,10.513 109.308,10.654 109.870,10.823 C110.403,10.992 110.965,11.162 111.498,11.360 C115.879,12.799 120.259,14.606 124.498,16.893 C128.289,18.926 131.995,21.269 135.533,23.923 L139.772,23.923 L141.569,21.777 L142.439,21.692 L142.524,22.567 L141.429,23.923 L156.870,23.923 L156.870,38.349 L157.096,38.179 C157.376,37.981 157.769,38.038 157.966,38.321 L157.826,39.196 L156.870,39.901 ZM156.870,78.493 L156.927,78.775 L156.870,78.775 L156.870,80.610 L157.180,80.553 L157.180,80.977 L156.870,81.033 L156.870,82.840 L156.983,82.812 L156.899,83.264 L156.870,83.264 L156.870,131.652 C158.893,127.841 160.717,123.860 162.177,119.654 C163.777,115.249 164.930,110.591 165.714,105.820 C166.501,101.049 166.866,96.222 166.866,91.253 C166.781,81.372 164.901,71.407 161.307,62.062 C160.044,58.760 158.556,55.513 156.870,52.380 L156.870,78.493 ZM18.142,96.448 L18.086,96.448 L18.002,96.024 L18.142,96.024 L18.142,94.246 L17.693,94.246 L17.610,93.822 L18.142,93.794 L18.142,93.681 L18.142,93.625 L18.142,92.016 L17.301,92.016 L17.215,91.592 L18.142,91.592 L18.142,89.814 L16.907,89.785 L16.823,89.361 L18.142,89.390 L18.142,87.611 L16.514,87.498 L16.430,87.075 L18.142,87.188 L18.142,85.409 L16.092,85.212 L16.037,84.760 L18.142,84.958 L18.142,83.179 L15.756,82.869 L15.728,82.445 L18.142,82.756 L18.142,80.921 L15.896,80.553 L15.980,80.158 L18.142,80.497 L18.142,78.634 L16.654,78.351 L16.852,77.985 L18.142,78.239 L18.142,76.375 L18.058,76.347 L18.142,76.235 L18.142,55.598 C16.206,59.268 14.521,63.079 13.145,67.144 C11.741,71.266 10.618,75.585 9.945,80.046 C9.776,81.147 9.635,82.276 9.494,83.377 C9.411,83.942 9.355,84.506 9.326,85.070 C9.271,85.635 9.243,86.200 9.186,86.764 C9.073,87.865 9.073,89.051 9.017,90.208 L8.990,91.084 L8.990,91.507 L8.990,91.733 L8.962,91.846 L8.962,91.902 L9.017,93.625 C9.102,98.226 9.579,102.856 10.478,107.429 C11.405,112.003 12.752,116.463 14.493,120.811 C15.559,123.464 16.795,126.033 18.142,128.518 L18.142,96.448 ZM18.198,140.092 L23.898,140.092 C21.849,137.495 19.940,134.728 18.198,131.849 L18.198,140.092 ZM18.198,116.859 L24.376,116.859 L28.391,115.249 C28.194,114.769 28.025,114.261 27.829,113.753 L19.378,116.830 L19.378,116.661 L19.378,116.378 L27.688,113.358 C27.521,112.877 27.351,112.370 27.184,111.862 L19.378,114.402 L19.378,113.979 L27.044,111.466 C26.902,110.958 26.734,110.450 26.594,109.942 L19.378,112.031 L19.378,111.607 L26.454,109.518 C26.313,109.010 26.173,108.502 26.061,107.994 L19.378,109.716 L19.378,109.265 L25.949,107.571 C25.808,107.062 25.695,106.554 25.583,106.018 L19.378,107.429 L19.378,106.977 L25.471,105.623 C25.443,105.510 25.414,105.397 25.414,105.284 L18.198,105.284 L18.198,116.859 ZM25.527,116.859 L29.065,116.859 C28.896,116.463 28.728,116.068 28.559,115.644 L25.527,116.859 ZM18.198,105.228 L25.387,105.228 C25.302,104.833 25.246,104.437 25.162,104.042 L19.378,105.171 L19.378,104.720 L25.078,103.646 C24.994,103.110 24.881,102.602 24.825,102.065 L19.210,102.969 L19.154,102.545 L24.740,101.642 C24.657,101.134 24.600,100.598 24.516,100.061 L18.844,100.795 L18.760,100.372 L24.460,99.638 C24.404,99.130 24.348,98.593 24.291,98.057 L18.452,98.621 L18.395,98.198 L24.264,97.633 C24.208,97.125 24.179,96.589 24.123,96.053 L18.198,96.448 L18.198,105.228 ZM18.198,96.024 L24.123,95.629 C24.066,95.092 24.066,94.584 24.038,94.048 L18.198,94.217 L18.198,96.024 ZM18.198,93.794 L22.185,93.681 L18.198,93.681 L18.198,93.794 ZM18.198,93.625 L24.010,93.625 C24.010,93.088 24.010,92.552 23.982,92.016 L18.198,92.016 L18.198,93.625 ZM18.198,91.592 L23.982,91.592 C24.010,91.056 24.010,90.547 24.010,90.011 L18.198,89.814 L18.198,91.592 ZM18.198,89.418 L24.038,89.588 C24.066,89.051 24.066,88.515 24.123,87.979 L18.198,87.611 L18.198,89.418 ZM18.198,87.188 L24.123,87.555 C24.179,87.047 24.208,86.510 24.264,85.974 L18.198,85.409 L18.198,87.188 ZM18.198,84.958 L24.291,85.551 C24.348,85.014 24.404,84.506 24.460,83.969 L18.198,83.179 L18.198,84.958 ZM18.198,82.756 L24.516,83.546 C24.600,83.038 24.657,82.558 24.740,82.050 L18.198,82.050 L18.198,82.756 ZM18.198,81.993 L24.740,81.993 L24.740,81.965 L18.198,80.921 L18.198,81.993 ZM18.198,80.497 L24.825,81.542 C24.881,81.033 24.994,80.497 25.078,79.989 L18.198,78.662 L18.198,80.497 ZM18.198,78.239 L25.162,79.566 C25.274,79.057 25.359,78.521 25.471,78.013 L18.198,76.375 L18.198,78.239 ZM18.198,76.178 L18.368,75.980 L25.583,77.590 C25.695,77.081 25.808,76.545 25.949,76.036 L19.547,74.399 L19.743,74.004 L26.061,75.641 C26.173,75.105 26.313,74.597 26.454,74.089 L20.473,72.338 L20.613,71.943 L26.594,73.693 C26.734,73.185 26.902,72.677 27.044,72.169 L21.792,70.447 L18.198,70.447 L18.198,76.178 ZM27.184,71.774 C27.324,71.322 27.464,70.899 27.633,70.447 L23.140,70.447 L27.184,71.774 ZM18.198,51.222 C19.041,49.838 19.911,48.512 20.838,47.213 L18.198,47.213 L18.198,51.222 ZM29.682,28.947 C29.065,29.484 28.728,29.767 28.728,29.767 C28.728,29.767 29.065,29.456 29.682,28.891 L29.682,25.137 L29.008,25.080 L28.110,23.979 L18.198,23.979 L18.198,35.554 L21.820,35.554 C22.747,34.509 23.702,33.493 24.657,32.505 L25.555,33.380 C24.881,34.085 24.179,34.820 23.533,35.554 L29.682,35.554 L29.682,28.947 ZM29.682,35.610 L23.477,35.610 C22.522,36.654 21.568,37.755 20.697,38.829 L19.716,38.038 C20.389,37.220 21.090,36.400 21.765,35.610 L18.198,35.610 L18.198,40.917 L18.733,41.313 C18.564,41.539 18.368,41.793 18.198,42.019 L18.198,47.156 L20.866,47.156 C21.680,45.999 22.522,44.898 23.393,43.797 C24.629,42.160 25.976,40.635 27.296,39.139 C27.998,38.433 28.671,37.727 29.373,37.021 C29.486,36.909 29.570,36.796 29.682,36.684 L29.682,35.610 ZM29.682,39.421 C29.373,39.760 29.065,40.127 28.728,40.466 C27.464,41.934 26.173,43.430 24.965,45.039 C24.657,45.434 24.376,45.830 24.066,46.225 C23.843,46.536 23.617,46.846 23.393,47.156 L29.682,47.156 L29.682,39.421 ZM29.682,57.461 L26.454,55.541 L26.594,55.146 L29.682,56.981 L29.682,54.920 L27.240,53.368 L27.379,52.944 L29.682,54.412 L29.682,52.295 L28.025,51.166 L28.167,50.742 L29.682,51.787 L29.682,49.584 L28.811,48.935 L28.952,48.512 L29.682,49.048 L29.682,47.213 L23.365,47.213 C23.309,47.297 23.253,47.382 23.197,47.467 C22.607,48.314 22.017,49.132 21.484,50.008 C20.922,50.883 20.361,51.730 19.827,52.633 C19.322,53.537 18.788,54.440 18.283,55.343 C18.255,55.400 18.227,55.456 18.198,55.513 L18.198,58.787 L27.688,58.787 L25.695,57.687 L25.835,57.264 L28.587,58.787 L29.682,58.787 L29.682,57.461 ZM29.682,58.844 L28.699,58.844 L29.682,59.381 L29.682,58.844 ZM29.682,64.518 L24.179,61.922 L24.320,61.497 L29.682,64.038 L29.682,62.232 L24.937,59.804 L25.078,59.409 L29.682,61.752 L29.682,59.889 L27.773,58.844 L18.198,58.844 L18.198,70.391 L21.624,70.391 L21.203,70.249 L21.344,69.854 L22.971,70.391 L27.633,70.391 C27.660,70.334 27.660,70.306 27.688,70.249 L21.960,68.160 L22.101,67.765 L27.829,69.854 C28.025,69.346 28.194,68.866 28.391,68.358 L22.691,66.100 L22.831,65.704 L28.559,67.963 C28.756,67.483 28.952,66.974 29.177,66.495 L23.421,64.010 L23.590,63.615 L29.346,66.100 C29.457,65.845 29.570,65.592 29.682,65.337 L29.682,64.518 ZM29.682,66.382 C29.401,67.031 29.121,67.680 28.868,68.329 C28.615,68.950 28.391,69.571 28.167,70.193 C28.138,70.249 28.110,70.334 28.082,70.391 L29.682,70.391 L29.682,66.382 ZM29.682,70.447 L28.082,70.447 C27.885,70.983 27.688,71.548 27.521,72.084 C27.324,72.734 27.127,73.355 26.931,74.004 L26.931,74.032 C26.734,74.653 26.565,75.274 26.397,75.896 L26.397,75.952 L26.397,75.980 C26.229,76.602 26.088,77.251 25.949,77.872 L25.949,77.900 C25.779,78.549 25.666,79.199 25.527,79.848 L25.527,79.876 C25.414,80.525 25.302,81.175 25.190,81.824 L25.190,81.852 C25.190,81.908 25.162,81.936 25.162,81.993 L29.682,81.993 L29.682,70.447 ZM29.682,82.050 L25.162,82.050 C25.050,82.643 24.994,83.207 24.909,83.800 L24.909,83.828 C24.572,86.454 24.404,89.108 24.404,91.817 C24.404,92.411 24.404,93.031 24.431,93.625 L29.682,93.625 L29.682,82.050 ZM29.682,93.681 L24.431,93.681 C24.487,95.741 24.657,97.774 24.909,99.779 L24.909,99.807 L24.909,99.836 C24.994,100.484 25.078,101.134 25.190,101.783 L25.190,101.812 C25.302,102.461 25.414,103.110 25.527,103.759 L25.527,103.787 C25.639,104.268 25.723,104.748 25.835,105.228 L29.682,105.228 L29.682,93.681 ZM29.682,105.284 L25.835,105.284 C25.864,105.425 25.919,105.566 25.949,105.707 L25.949,105.735 C26.088,106.385 26.229,107.006 26.397,107.655 L26.397,107.684 L26.397,107.712 C26.565,108.333 26.734,108.982 26.931,109.604 L26.931,109.631 C27.127,110.252 27.324,110.902 27.521,111.523 C27.716,112.172 27.941,112.793 28.167,113.414 C28.391,114.064 28.615,114.685 28.868,115.306 C29.065,115.814 29.289,116.350 29.513,116.859 L29.682,116.859 L29.682,105.284 ZM29.682,116.915 L29.542,116.915 C29.570,117.028 29.626,117.141 29.682,117.254 L29.682,116.915 ZM29.682,124.227 L24.516,127.079 L24.291,126.711 L29.682,123.747 L29.682,121.855 L23.253,125.158 L23.028,124.791 L29.682,121.375 L29.682,119.569 L21.989,123.210 L21.736,122.872 L29.682,119.089 L29.682,118.270 C29.570,118.016 29.457,117.762 29.346,117.508 L20.697,121.263 L20.473,120.896 L29.177,117.113 C29.149,117.056 29.121,116.971 29.092,116.915 L25.387,116.915 L19.743,119.173 L19.631,118.750 L24.235,116.915 L18.198,116.915 L18.198,128.461 L25.808,128.461 L29.682,126.174 L29.682,124.227 ZM29.682,126.655 L26.650,128.461 L29.682,128.461 L29.682,126.655 ZM29.682,134.587 L29.513,134.700 L29.289,134.333 L29.682,134.051 L29.682,131.821 L28.278,132.781 L28.025,132.442 L29.682,131.313 L29.682,129.195 L27.015,130.889 L26.791,130.550 L29.682,128.687 L29.682,128.518 L26.565,128.518 L25.751,128.998 L25.527,128.631 L25.723,128.518 L18.198,128.518 L18.198,128.631 C20.417,132.696 22.971,136.536 25.835,140.092 L29.682,140.092 L29.682,134.587 ZM29.682,140.149 L25.892,140.149 C27.015,141.560 28.194,142.915 29.401,144.214 C29.486,144.327 29.598,144.412 29.682,144.525 L29.682,140.149 ZM29.682,146.585 C29.233,146.134 28.783,145.682 28.335,145.202 C26.818,143.593 25.359,141.900 23.954,140.149 L18.198,140.149 L18.198,141.617 C19.097,142.803 20.024,143.989 21.007,145.146 L20.024,145.965 C19.406,145.231 18.788,144.468 18.198,143.678 L18.198,151.695 L25.246,151.695 C24.151,150.623 23.113,149.521 22.101,148.393 L23.028,147.546 C24.320,148.957 25.639,150.368 27.015,151.695 L29.682,151.695 L29.682,146.585 ZM29.682,155.874 L29.653,155.845 L29.682,155.817 L29.682,151.752 L27.071,151.752 C27.437,152.091 27.773,152.429 28.138,152.768 L27.296,153.699 C26.622,153.050 25.949,152.401 25.302,151.752 L18.198,151.752 L18.198,163.298 L29.682,163.298 L29.682,155.874 ZM145.331,147.997 C146.679,146.500 147.998,144.948 149.261,143.311 C149.599,142.887 149.908,142.464 150.245,142.040 L150.750,141.391 L151.227,140.714 C151.368,140.516 151.480,140.347 151.621,140.149 L145.331,140.149 L145.331,147.997 ZM145.331,118.891 C145.640,118.241 145.921,117.564 146.201,116.915 L145.331,116.915 L145.331,118.891 ZM145.331,116.859 L146.231,116.859 C146.454,116.350 146.679,115.814 146.875,115.306 C147.100,114.685 147.353,114.064 147.578,113.414 C147.802,112.793 147.998,112.172 148.223,111.523 C148.420,110.902 148.616,110.252 148.813,109.631 L148.813,109.604 C148.980,108.982 149.177,108.333 149.319,107.712 L149.319,107.684 L149.346,107.655 C149.515,107.006 149.655,106.385 149.795,105.735 L149.795,105.707 C149.823,105.566 149.852,105.425 149.880,105.284 L145.331,105.284 L145.331,116.859 ZM146.679,116.859 L150.217,116.859 L147.184,115.644 C147.016,116.068 146.847,116.463 146.679,116.859 ZM145.331,105.228 L149.908,105.228 C149.992,104.748 150.104,104.268 150.189,103.787 L150.189,103.759 C150.329,103.110 150.442,102.461 150.553,101.812 L150.553,101.783 C150.638,101.134 150.750,100.484 150.834,99.836 L150.834,99.807 L150.834,99.779 C151.059,97.774 151.227,95.741 151.284,93.681 L145.331,93.681 L145.331,105.228 ZM145.331,93.625 L151.284,93.625 C151.312,93.031 151.312,92.411 151.312,91.817 C151.312,89.108 151.142,86.454 150.834,83.828 L150.834,83.800 C150.750,83.207 150.666,82.643 150.582,82.050 L145.331,82.050 L145.331,93.625 ZM145.331,81.993 L150.582,81.993 C150.553,81.936 150.553,81.908 150.553,81.852 L150.553,81.824 C150.442,81.175 150.329,80.525 150.189,79.876 L150.189,79.848 C150.076,79.199 149.936,78.549 149.795,77.900 L149.795,77.872 C149.655,77.251 149.515,76.602 149.346,75.980 L149.319,75.952 L149.319,75.896 C149.177,75.274 148.980,74.653 148.813,74.032 L148.813,74.004 C148.616,73.355 148.420,72.734 148.223,72.084 C148.027,71.548 147.858,70.983 147.661,70.447 L145.331,70.447 L145.331,81.993 ZM148.560,71.774 L152.604,70.447 L148.110,70.447 C148.279,70.899 148.420,71.322 148.560,71.774 ZM145.331,70.391 L147.634,70.391 C147.634,70.334 147.605,70.249 147.578,70.193 C147.353,69.571 147.100,68.950 146.875,68.329 C146.398,67.116 145.893,65.930 145.331,64.745 L145.331,70.391 ZM145.331,62.118 L151.762,58.844 L147.943,58.844 L145.331,60.284 L145.331,62.118 ZM145.331,59.804 L147.044,58.844 L145.331,58.844 L145.331,59.804 ZM145.331,49.584 L148.560,47.213 L145.387,47.213 L145.331,47.270 L145.331,49.584 ZM145.331,40.579 L146.371,39.647 L146.623,40.014 L145.331,41.172 L145.331,43.741 L147.578,41.877 L147.717,42.300 L145.331,44.277 L145.331,46.733 L148.279,44.418 L148.420,44.842 L145.472,47.156 L148.645,47.156 L148.980,46.903 L149.037,47.156 L153.810,47.156 C151.452,43.458 148.813,39.958 145.921,36.739 C145.724,36.513 145.528,36.316 145.331,36.090 L145.331,40.579 ZM133.763,158.640 C136.458,156.579 139.154,154.293 141.738,151.752 L133.763,151.752 L133.763,158.640 ZM133.763,140.092 L135.587,140.092 L133.763,138.257 L133.763,140.092 ZM133.763,137.665 L136.178,140.092 L138.705,140.092 L134.268,135.914 C134.101,136.084 133.932,136.253 133.763,136.423 L133.763,137.665 ZM133.763,135.829 C135.926,133.543 137.920,131.087 139.744,128.518 L133.763,128.518 L133.763,135.829 ZM133.763,58.787 L142.131,58.787 C139.744,54.836 136.936,51.137 133.763,47.806 L133.763,58.787 ZM134.550,48.032 C134.914,48.398 135.251,48.794 135.616,49.189 L137.835,47.213 L135.420,47.213 L134.550,48.032 ZM134.803,47.213 L133.792,47.213 C133.960,47.382 134.101,47.552 134.268,47.721 L134.803,47.213 ZM135.897,49.528 C136.235,49.923 136.599,50.319 136.936,50.742 L141.177,47.213 L138.508,47.213 L135.897,49.528 ZM137.188,51.053 C137.526,51.476 137.862,51.871 138.200,52.295 L144.714,47.213 L141.821,47.213 L137.188,51.053 ZM133.763,39.139 L136.851,35.610 L134.381,35.610 L133.763,36.372 L133.763,39.139 ZM133.763,35.695 L133.847,35.610 L133.763,35.610 L133.763,35.695 ZM122.224,158.923 C124.667,157.567 126.800,156.184 128.682,154.885 C130.282,153.784 131.658,152.683 132.865,151.752 L123.375,151.752 L123.488,151.949 L123.122,152.147 L122.898,151.752 L122.224,151.752 L122.224,158.923 ZM122.224,151.695 L122.870,151.695 L122.224,150.623 L122.224,151.695 ZM122.224,145.428 C124.667,143.819 127.025,142.069 129.215,140.149 L122.224,140.149 L122.224,145.428 ZM122.224,47.156 L133.145,47.156 C129.861,43.769 126.183,40.776 122.224,38.179 L122.224,47.156 ZM123.936,38.829 C124.357,39.139 124.807,39.450 125.227,39.760 L128.232,35.610 L126.098,35.610 L123.936,38.829 ZM125.592,35.610 L123.571,35.610 L122.251,37.699 C122.700,38.009 123.151,38.292 123.571,38.575 L125.592,35.610 ZM125.564,39.986 C125.986,40.324 126.407,40.635 126.828,40.945 L130.955,35.610 L128.738,35.610 L125.564,39.986 ZM122.224,37.021 L123.094,35.610 L122.224,35.610 L122.224,37.021 ZM122.168,163.298 L122.168,159.459 C120.287,160.531 118.209,161.605 115.990,162.621 C115.485,162.847 114.980,163.072 114.447,163.298 L122.168,163.298 ZM115.766,162.141 C118.096,161.124 120.230,160.024 122.168,158.951 L122.168,151.752 L120.877,151.752 L121.578,153.022 L121.213,153.248 L120.399,151.752 L118.489,151.752 L119.669,154.124 L119.304,154.320 L118.012,151.752 L116.159,151.752 L117.759,155.224 L117.395,155.422 L115.682,151.752 L113.913,151.752 L115.850,156.325 L115.485,156.523 L113.435,151.752 L111.695,151.752 L113.940,157.426 L113.548,157.624 L111.245,151.752 L110.824,151.752 C110.769,151.780 110.740,151.780 110.683,151.808 L110.683,154.942 L111.976,158.555 L111.611,158.753 L110.683,156.156 L110.683,163.298 L113.015,163.298 C113.940,162.931 114.868,162.536 115.766,162.141 ZM110.683,28.722 L110.683,31.827 C110.854,31.884 111.022,31.968 111.190,32.025 L113.352,26.520 L113.745,26.689 L111.583,32.166 C112.060,32.364 112.565,32.589 113.043,32.787 L115.317,27.480 L115.711,27.649 L113.435,32.957 C113.913,33.182 114.390,33.380 114.868,33.605 L117.310,28.411 L117.675,28.609 L115.260,33.804 C115.737,34.029 116.215,34.255 116.665,34.509 L119.276,29.343 L119.697,29.484 L117.058,34.678 C117.507,34.932 117.985,35.187 118.462,35.441 L121.409,30.021 L121.803,30.162 L118.882,35.554 L120.707,35.554 L122.168,33.069 L122.168,23.979 L110.683,23.979 L110.683,27.452 L111.358,25.561 L111.751,25.729 L110.683,28.722 ZM110.683,32.279 L110.683,35.554 L117.788,35.554 C115.653,34.396 113.464,33.380 111.218,32.477 C111.050,32.420 110.854,32.335 110.683,32.279 ZM118.827,35.639 C119.276,35.892 119.724,36.175 120.201,36.429 L120.679,35.610 L118.855,35.610 L118.827,35.639 ZM121.213,35.554 L122.168,35.554 L122.168,33.917 L121.213,35.554 ZM121.185,35.610 L120.566,36.654 C121.016,36.937 121.465,37.191 121.915,37.502 L122.168,37.106 L122.168,35.610 L121.185,35.610 ZM117.900,35.610 L110.683,35.610 L110.683,47.156 L122.168,47.156 L122.168,38.151 C120.763,37.248 119.360,36.400 117.900,35.610 ZM110.683,47.213 L110.683,58.787 L122.168,58.787 L122.168,47.213 L110.683,47.213 ZM110.683,58.844 L110.683,70.391 L122.168,70.391 L122.168,58.844 L110.683,58.844 ZM110.683,70.447 L110.683,81.993 L122.168,81.993 L122.168,70.447 L110.683,70.447 ZM110.683,82.050 L110.683,93.625 L122.168,93.625 L122.168,82.050 L110.683,82.050 ZM110.683,93.681 L110.683,105.228 L122.168,105.228 L122.168,93.681 L110.683,93.681 ZM110.683,105.284 L110.683,116.859 L122.168,116.859 L122.168,105.284 L110.683,105.284 ZM110.683,116.915 L110.683,128.461 L122.168,128.461 L122.168,116.915 L110.683,116.915 ZM110.683,128.518 L110.683,140.092 L122.168,140.092 L122.168,128.518 L110.683,128.518 ZM110.683,140.149 L110.683,151.357 C110.854,151.272 111.050,151.215 111.218,151.131 C115.065,149.578 118.743,147.687 122.168,145.456 L122.168,140.149 L110.683,140.149 ZM110.965,151.695 L111.218,151.695 L111.190,151.611 C111.105,151.639 111.050,151.667 110.965,151.695 ZM111.583,151.442 L111.695,151.695 L113.408,151.695 L113.043,150.821 C112.565,151.046 112.060,151.244 111.583,151.442 ZM116.665,149.126 C116.215,149.352 115.737,149.607 115.260,149.832 L116.131,151.695 L117.957,151.695 L116.665,149.126 ZM118.462,151.695 L120.371,151.695 L118.462,148.195 C117.985,148.449 117.507,148.674 117.058,148.929 L118.462,151.695 ZM114.868,150.002 C114.390,150.227 113.913,150.453 113.435,150.651 L113.886,151.695 L115.653,151.695 L114.868,150.002 ZM121.915,146.134 C121.465,146.416 121.016,146.699 120.566,146.952 L122.168,149.691 L122.168,146.529 L121.915,146.134 ZM120.201,147.179 C119.724,147.461 119.276,147.715 118.827,147.969 L120.848,151.695 L122.168,151.695 L122.168,150.510 L120.201,147.179 ZM74.859,167.843 C76.852,168.154 78.817,168.267 80.755,168.436 C81.737,168.464 82.719,168.493 83.674,168.521 C84.151,168.521 84.656,168.577 85.107,168.549 C85.583,168.549 86.060,168.549 86.538,168.521 C86.987,168.521 87.465,168.493 87.941,168.493 L88.643,168.493 L89.346,168.436 C90.273,168.380 91.171,168.295 92.098,168.239 C92.995,168.182 93.894,168.041 94.793,167.928 C95.242,167.872 95.663,167.843 96.112,167.787 C96.562,167.731 96.983,167.618 97.432,167.561 C98.274,167.420 99.144,167.251 99.987,167.110 C100.829,166.940 101.671,166.742 102.485,166.573 C102.879,166.460 103.300,166.376 103.694,166.291 C104.114,166.178 104.507,166.064 104.900,165.952 C105.686,165.726 106.472,165.528 107.231,165.303 C109.197,164.681 111.077,164.061 112.875,163.355 L103.608,163.355 L103.552,163.383 L103.552,163.355 L101.643,163.355 L101.840,164.343 L101.447,164.540 L101.223,163.355 L99.341,163.355 L99.622,165.133 L99.228,165.190 L98.948,163.355 L97.068,163.355 L97.319,165.274 L97.010,165.246 L96.870,165.218 L96.646,163.355 L94.793,163.355 L94.962,165.021 L94.540,164.964 L94.399,163.355 L92.547,163.355 L92.630,164.766 L92.210,164.738 L92.126,163.355 L90.301,163.355 L90.357,164.738 L89.935,164.738 L89.879,163.355 L88.082,163.355 L88.082,164.738 L87.661,164.738 L87.661,163.355 L87.520,163.355 L85.836,163.355 L85.808,164.738 L85.387,164.738 L85.415,163.355 L83.590,163.355 L83.506,164.738 L83.084,164.738 L83.168,163.355 L81.373,163.355 L81.232,164.738 L80.810,164.738 L80.951,163.355 L79.070,163.355 L78.901,164.738 L78.480,164.738 L78.648,163.355 L76.823,163.355 L76.599,164.738 L76.178,164.738 L76.403,163.355 L74.493,163.355 L74.240,164.710 L73.819,164.681 L74.071,163.355 L72.191,163.355 L71.994,164.201 L71.602,164.032 L71.742,163.355 L57.478,163.355 C63.234,165.613 69.103,167.082 74.859,167.843 ZM100.044,28.750 C100.548,28.863 101.082,28.976 101.587,29.088 L102.710,23.979 L100.941,23.979 L100.044,28.750 ZM100.520,23.979 L99.116,23.979 L99.116,28.581 C99.286,28.637 99.454,28.665 99.622,28.694 L100.520,23.979 ZM102.009,29.174 C102.515,29.286 103.047,29.427 103.552,29.540 L104.985,23.979 L103.160,23.979 L102.009,29.174 ZM103.945,29.653 C104.479,29.795 104.985,29.935 105.490,30.077 L107.231,23.979 L105.406,23.979 L103.945,29.653 ZM105.883,30.190 C106.388,30.331 106.894,30.501 107.399,30.670 L109.364,24.600 L109.758,24.770 L107.793,30.782 C108.298,30.952 108.804,31.122 109.308,31.319 L110.600,27.677 L110.600,23.979 L107.679,23.979 L105.883,30.190 ZM109.701,31.460 C110.011,31.573 110.291,31.686 110.600,31.799 L110.600,28.947 L109.701,31.460 ZM109.364,31.771 C108.748,31.545 108.101,31.348 107.484,31.122 C106.837,30.924 106.220,30.726 105.574,30.529 L105.546,30.529 C104.929,30.359 104.311,30.190 103.694,30.021 L103.637,30.021 L103.608,29.992 C102.991,29.822 102.373,29.682 101.728,29.540 L101.700,29.540 C101.053,29.399 100.408,29.258 99.762,29.145 C99.538,29.088 99.341,29.061 99.116,29.004 L99.116,35.554 L110.600,35.554 L110.600,32.250 C110.179,32.081 109.786,31.912 109.364,31.771 ZM99.116,35.610 L99.116,47.156 L110.600,47.156 L110.600,35.610 L99.116,35.610 ZM99.116,47.213 L99.116,58.787 L110.600,58.787 L110.600,47.213 L99.116,47.213 ZM99.116,58.844 L99.116,70.391 L110.600,70.391 L110.600,58.844 L99.116,58.844 ZM99.116,70.447 L99.116,81.993 L110.600,81.993 L110.600,70.447 L99.116,70.447 ZM99.116,82.050 L99.116,93.625 L110.600,93.625 L110.600,82.050 L99.116,82.050 ZM99.116,93.681 L99.116,105.228 L110.600,105.228 L110.600,93.681 L99.116,93.681 ZM99.116,105.284 L99.116,116.859 L110.600,116.859 L110.600,105.284 L99.116,105.284 ZM99.116,116.915 L99.116,128.461 L110.600,128.461 L110.600,116.915 L99.116,116.915 ZM99.116,128.518 L99.116,140.092 L110.600,140.092 L110.600,128.518 L99.116,128.518 ZM99.116,140.149 L99.116,151.695 L109.758,151.695 C110.039,151.583 110.319,151.498 110.600,151.385 L110.600,140.149 L99.116,140.149 ZM99.622,154.942 C99.454,154.970 99.286,154.998 99.116,155.027 L99.116,161.886 L99.341,163.298 L101.223,163.298 L99.622,154.942 ZM101.643,163.298 L103.524,163.298 L101.587,154.547 C101.082,154.660 100.576,154.744 100.044,154.857 L101.643,163.298 ZM99.762,154.490 C100.408,154.349 101.053,154.236 101.700,154.095 L101.700,154.067 L101.728,154.067 C102.373,153.926 102.991,153.784 103.608,153.615 L103.637,153.615 L103.694,153.615 C104.311,153.446 104.929,153.276 105.546,153.078 L105.574,153.078 C106.220,152.881 106.837,152.683 107.484,152.486 C108.101,152.288 108.748,152.063 109.364,151.836 C109.448,151.808 109.506,151.780 109.590,151.752 L99.116,151.752 L99.116,154.603 C99.341,154.575 99.538,154.518 99.762,154.490 ZM109.701,152.175 L110.600,154.688 L110.600,151.836 C110.291,151.949 110.011,152.063 109.701,152.175 ZM109.308,152.316 C108.804,152.486 108.298,152.655 107.793,152.825 L110.011,159.657 L109.645,159.882 L107.399,152.966 C106.894,153.107 106.388,153.276 105.883,153.417 L108.017,160.814 L107.652,161.040 L105.490,153.558 C104.985,153.699 104.479,153.841 103.945,153.982 L105.995,161.972 L105.630,162.197 L103.552,154.067 C103.047,154.208 102.515,154.320 102.009,154.434 L103.945,163.157 L103.694,163.298 L110.600,163.298 L110.600,155.930 L109.308,152.316 ZM96.084,28.129 C96.618,28.186 97.123,28.270 97.656,28.327 L98.331,23.979 L96.618,23.979 L96.084,28.129 ZM96.169,23.979 L94.456,23.979 L94.091,27.903 C94.625,27.931 95.129,27.988 95.663,28.073 L96.169,23.979 ZM98.077,28.411 C98.386,28.467 98.723,28.524 99.060,28.581 L99.060,23.979 L98.780,23.979 L98.077,28.411 ZM97.796,28.778 L97.768,28.778 C97.123,28.694 96.477,28.581 95.832,28.524 L95.803,28.496 C93.192,28.186 90.553,28.016 87.858,28.016 C87.773,28.016 87.661,28.016 87.577,28.016 L87.577,35.554 L99.060,35.554 L99.060,29.004 C98.639,28.919 98.218,28.863 97.796,28.778 ZM94.034,23.979 L92.322,23.979 L92.098,27.734 C92.602,27.762 93.136,27.818 93.670,27.846 L94.034,23.979 ZM91.900,23.979 L90.188,23.979 L90.077,27.621 C90.609,27.649 91.143,27.677 91.676,27.706 L91.900,23.979 ZM89.767,23.979 L88.082,23.979 L88.082,27.593 C88.615,27.593 89.149,27.593 89.655,27.621 L89.767,23.979 ZM87.661,27.593 L87.661,23.979 L87.577,23.979 L87.577,27.593 C87.605,27.593 87.633,27.593 87.661,27.593 ZM87.577,35.610 L87.577,47.156 L99.060,47.156 L99.060,35.610 L87.577,35.610 ZM87.577,47.213 L87.577,58.787 L99.060,58.787 L99.060,47.213 L87.577,47.213 ZM87.577,58.844 L87.577,70.391 L99.060,70.391 L99.060,58.844 L87.577,58.844 ZM87.577,70.447 L87.577,81.993 L99.060,81.993 L99.060,70.447 L87.577,70.447 ZM87.577,82.050 L87.577,93.625 L99.060,93.625 L99.060,82.050 L87.577,82.050 ZM87.577,93.681 L87.577,105.228 L99.060,105.228 L99.060,93.681 L87.577,93.681 ZM87.577,105.284 L87.577,116.859 L99.060,116.859 L99.060,105.284 L87.577,105.284 ZM87.577,116.915 L87.577,128.461 L99.060,128.461 L99.060,116.915 L87.577,116.915 ZM87.577,128.518 L87.577,140.092 L99.060,140.092 L99.060,128.518 L87.577,128.518 ZM87.577,140.149 L87.577,151.695 L99.060,151.695 L99.060,140.149 L87.577,140.149 ZM87.577,151.752 L87.577,155.619 C87.661,155.619 87.773,155.619 87.858,155.619 C90.553,155.619 93.192,155.450 95.803,155.112 L95.832,155.112 C96.477,155.027 97.123,154.942 97.768,154.829 L97.796,154.829 C98.218,154.744 98.639,154.688 99.060,154.603 L99.060,151.752 L87.577,151.752 ZM87.577,156.043 L87.577,163.298 L87.661,163.298 L87.661,156.043 C87.633,156.043 87.605,156.043 87.577,156.043 ZM88.082,156.043 L88.082,163.298 L89.879,163.298 L89.655,156.015 C89.149,156.015 88.615,156.043 88.082,156.043 ZM95.663,155.563 C95.129,155.619 94.625,155.676 94.091,155.732 L94.793,163.298 L96.618,163.298 L95.663,155.563 ZM97.068,163.298 L98.920,163.298 L97.656,155.280 C97.123,155.366 96.618,155.422 96.084,155.507 L97.068,163.298 ZM93.670,155.760 C93.136,155.817 92.602,155.845 92.098,155.902 L92.547,163.298 L94.372,163.298 L93.670,155.760 ZM91.676,155.930 C91.143,155.958 90.609,155.958 90.077,155.987 L90.301,163.298 L92.126,163.298 L91.676,155.930 ZM98.077,155.224 L99.060,161.520 L99.060,155.055 C98.723,155.112 98.386,155.167 98.077,155.224 ZM79.940,28.496 L79.912,28.524 L79.884,28.524 C79.239,28.581 78.592,28.694 77.947,28.778 L77.918,28.778 C77.274,28.891 76.627,29.004 75.982,29.145 L75.952,29.145 L75.952,35.554 L87.465,35.554 L87.465,28.016 C84.938,28.044 82.383,28.214 79.940,28.496 ZM87.465,27.593 L87.465,23.979 L85.948,23.979 L86.060,27.621 C86.538,27.593 86.987,27.593 87.465,27.593 ZM85.639,27.621 L85.527,23.979 L83.814,23.979 L84.067,27.706 C84.601,27.677 85.134,27.649 85.639,27.621 ZM83.647,27.734 L83.422,23.979 L81.709,23.979 L82.074,27.846 C82.580,27.818 83.112,27.762 83.647,27.734 ZM78.087,28.327 C78.592,28.270 79.125,28.186 79.660,28.129 L79.125,23.979 L77.413,23.979 L78.087,28.327 ZM76.964,23.979 L75.952,23.979 L75.952,27.931 L76.094,28.694 C76.627,28.581 77.133,28.496 77.665,28.411 L76.964,23.979 ZM80.080,28.073 C80.586,27.988 81.119,27.931 81.653,27.903 L81.288,23.979 L79.547,23.979 L80.080,28.073 ZM75.952,35.610 L75.952,47.156 L87.465,47.156 L87.465,35.610 L75.952,35.610 ZM75.952,47.213 L75.952,58.787 L87.465,58.787 L87.465,47.213 L75.952,47.213 ZM75.952,58.844 L75.952,70.391 L87.465,70.391 L87.465,58.844 L75.952,58.844 ZM75.952,70.447 L75.952,81.993 L87.465,81.993 L87.465,70.447 L75.952,70.447 ZM75.952,82.050 L75.952,93.625 L87.465,93.625 L87.465,82.050 L75.952,82.050 ZM75.952,93.681 L75.952,105.228 L87.465,105.228 L87.465,93.681 L75.952,93.681 ZM75.952,105.284 L75.952,116.859 L87.465,116.859 L87.465,105.284 L75.952,105.284 ZM75.952,116.915 L75.952,128.461 L87.465,128.461 L87.465,116.915 L75.952,116.915 ZM75.952,128.518 L75.952,140.092 L87.465,140.092 L87.465,128.518 L75.952,128.518 ZM75.952,140.149 L75.952,151.695 L87.465,151.695 L87.465,140.149 L75.952,140.149 ZM75.952,151.752 L75.952,154.490 L75.982,154.490 C76.627,154.603 77.274,154.716 77.918,154.829 L77.947,154.829 C78.592,154.942 79.239,155.027 79.884,155.112 L79.912,155.112 L79.940,155.112 C82.383,155.422 84.938,155.591 87.465,155.619 L87.465,151.752 L75.952,151.752 ZM83.647,155.902 C83.112,155.845 82.580,155.817 82.074,155.760 L81.373,163.298 L83.168,163.298 L83.647,155.902 ZM83.590,163.298 L85.415,163.298 L85.639,155.987 C85.134,155.958 84.601,155.958 84.067,155.930 L83.590,163.298 ZM81.653,155.732 C81.119,155.676 80.586,155.619 80.080,155.563 L79.097,163.298 L80.951,163.298 L81.653,155.732 ZM79.660,155.507 C79.125,155.422 78.592,155.366 78.087,155.280 L76.823,163.298 L78.677,163.298 L79.660,155.507 ZM77.665,155.224 C77.133,155.139 76.627,155.027 76.094,154.942 L75.952,155.676 L75.952,163.298 L76.403,163.298 L77.665,155.224 ZM86.060,156.015 L85.836,163.298 L87.465,163.298 L87.465,156.043 C86.987,156.043 86.538,156.015 86.060,156.015 ZM66.435,31.319 C66.912,31.122 67.417,30.952 67.924,30.782 L65.705,23.979 L64.413,23.979 L64.413,25.673 L66.435,31.319 ZM64.413,26.915 L64.413,31.658 L64.554,32.025 C65.031,31.827 65.537,31.629 66.042,31.460 L64.413,26.915 ZM68.315,30.670 C68.822,30.501 69.327,30.331 69.831,30.190 L68.036,23.979 L66.154,23.979 L68.315,30.670 ZM70.253,30.077 C70.759,29.935 71.264,29.795 71.770,29.653 L70.310,23.979 L68.485,23.979 L70.253,30.077 ZM72.191,29.540 C72.696,29.427 73.201,29.286 73.735,29.174 L72.585,23.979 L70.759,23.979 L72.191,29.540 ZM74.128,29.088 C74.662,28.976 75.167,28.863 75.700,28.750 L74.801,23.979 L73.005,23.979 L74.128,29.088 ZM75.897,27.649 L75.897,23.979 L75.222,23.979 L75.897,27.649 ZM74.043,29.540 L74.016,29.540 C73.370,29.682 72.753,29.822 72.106,29.992 L72.078,30.021 L72.050,30.021 C71.433,30.190 70.787,30.359 70.169,30.529 L70.141,30.529 C69.524,30.726 68.878,30.924 68.260,31.122 C67.615,31.348 66.996,31.545 66.378,31.771 C65.733,31.997 65.115,32.250 64.498,32.477 C64.469,32.477 64.440,32.505 64.413,32.505 L64.413,35.554 L75.897,35.554 L75.897,29.174 C75.279,29.258 74.662,29.399 74.043,29.540 ZM64.413,35.610 L64.413,47.156 L75.897,47.156 L75.897,35.610 L64.413,35.610 ZM64.413,47.213 L64.413,58.787 L75.897,58.787 L75.897,47.213 L64.413,47.213 ZM64.413,58.844 L64.413,70.391 L75.897,70.391 L75.897,58.844 L64.413,58.844 ZM64.413,70.447 L64.413,81.993 L75.897,81.993 L75.897,70.447 L64.413,70.447 ZM64.413,82.050 L64.413,93.625 L75.897,93.625 L75.897,82.050 L64.413,82.050 ZM64.413,93.681 L64.413,105.228 L75.897,105.228 L75.897,93.681 L64.413,93.681 ZM64.413,105.284 L64.413,116.859 L75.897,116.859 L75.897,105.284 L64.413,105.284 ZM64.413,116.915 L64.413,128.461 L75.897,128.461 L75.897,116.915 L64.413,116.915 ZM64.413,128.518 L64.413,140.092 L75.897,140.092 L75.897,128.518 L64.413,128.518 ZM64.413,140.149 L64.413,151.102 C64.440,151.102 64.469,151.131 64.498,151.131 C64.975,151.329 65.480,151.526 65.986,151.695 L75.897,151.695 L75.897,140.149 L64.413,140.149 ZM73.735,154.434 C73.201,154.320 72.696,154.208 72.191,154.067 L69.889,163.044 L69.524,162.790 L71.770,153.982 C71.264,153.841 70.759,153.699 70.253,153.558 L67.924,161.633 L67.558,161.378 L69.831,153.417 C69.327,153.276 68.822,153.107 68.315,152.966 L65.958,160.278 L65.593,160.080 L67.924,152.825 C67.417,152.655 66.912,152.486 66.435,152.316 L64.413,157.963 L64.413,163.298 L71.770,163.298 L73.735,154.434 ZM72.191,163.298 L74.071,163.298 L75.700,154.857 C75.167,154.744 74.662,154.660 74.128,154.547 L72.191,163.298 ZM66.042,152.175 C65.649,152.034 65.283,151.893 64.919,151.752 L64.498,151.752 L64.413,151.978 L64.413,156.693 L66.042,152.175 ZM64.779,151.695 C64.694,151.667 64.638,151.639 64.554,151.611 L64.526,151.695 L64.779,151.695 ZM66.126,151.752 C66.210,151.780 66.295,151.808 66.378,151.836 C66.996,152.063 67.615,152.288 68.260,152.486 C68.878,152.683 69.524,152.881 70.141,153.078 L70.169,153.078 C70.787,153.276 71.433,153.446 72.050,153.615 L72.078,153.615 L72.106,153.615 C72.753,153.784 73.370,153.926 74.016,154.067 L74.043,154.095 C74.662,154.236 75.279,154.349 75.897,154.462 L75.897,151.752 L66.126,151.752 ZM74.521,163.298 L75.897,163.298 L75.897,155.987 L74.521,163.298 ZM52.845,163.298 L54.249,163.298 C53.801,163.100 53.323,162.903 52.845,162.677 L52.845,163.298 ZM52.845,161.350 C54.333,162.056 55.822,162.705 57.338,163.298 L64.358,163.298 L64.358,158.132 L63.908,159.374 L63.515,159.205 L64.358,156.861 L64.358,152.119 L61.831,158.499 L61.437,158.330 L64.048,151.752 L62.308,151.752 L59.753,157.652 L59.387,157.483 L61.831,151.752 L60.062,151.752 L57.703,156.777 L57.309,156.608 L59.585,151.752 L57.731,151.752 L55.625,155.902 L55.232,155.760 L57.254,151.752 L55.344,151.752 L53.548,155.055 L53.155,154.885 L54.867,151.752 L52.874,151.752 L52.845,151.780 L52.845,161.350 ZM64.161,151.442 C63.656,151.244 63.178,151.046 62.700,150.821 L62.335,151.695 L64.048,151.695 L64.161,151.442 ZM55.373,151.695 L57.282,151.695 L58.686,148.929 C58.208,148.674 57.760,148.449 57.282,148.195 L55.373,151.695 ZM56.917,147.969 C56.467,147.715 55.990,147.461 55.541,147.179 L52.902,151.695 L54.896,151.695 L56.917,147.969 ZM57.760,151.695 L59.613,151.695 L60.482,149.832 C60.005,149.607 59.527,149.352 59.051,149.126 L57.760,151.695 ZM60.089,151.695 L61.859,151.695 L62.308,150.651 C61.831,150.453 61.353,150.227 60.877,150.002 L60.089,151.695 ZM52.845,150.934 L55.176,146.952 C54.727,146.699 54.277,146.416 53.828,146.134 L52.845,147.687 L52.845,150.934 ZM52.845,146.896 L53.464,145.908 C53.266,145.767 53.043,145.625 52.845,145.485 L52.845,146.896 ZM52.845,144.976 C56.439,147.404 60.286,149.437 64.358,151.074 L64.358,140.149 L52.845,140.149 L52.845,144.976 ZM52.845,140.092 L64.358,140.092 L64.358,128.518 L52.845,128.518 L52.845,140.092 ZM52.845,128.461 L64.358,128.461 L64.358,116.915 L52.845,116.915 L52.845,128.461 ZM52.845,116.859 L64.358,116.859 L64.358,105.284 L52.845,105.284 L52.845,116.859 ZM52.845,105.228 L64.358,105.228 L64.358,93.681 L52.845,93.681 L52.845,105.228 ZM52.845,93.625 L64.358,93.625 L64.358,82.050 L52.845,82.050 L52.845,93.625 ZM52.845,81.993 L64.358,81.993 L64.358,70.447 L52.845,70.447 L52.845,81.993 ZM52.845,70.391 L64.358,70.391 L64.358,58.844 L52.845,58.844 L52.845,70.391 ZM52.845,58.787 L64.358,58.787 L64.358,47.213 L52.845,47.213 L52.845,58.787 ZM52.845,47.156 L64.358,47.156 L64.358,35.610 L57.815,35.610 C56.130,36.541 54.445,37.558 52.845,38.630 L52.845,47.156 ZM63.347,23.979 L61.382,23.979 L64.358,31.517 L64.358,26.774 L63.347,23.979 ZM64.358,25.532 L64.358,23.979 L63.796,23.979 L64.358,25.532 ZM64.358,35.554 L64.358,32.533 C62.139,33.408 60.005,34.424 57.928,35.554 L64.358,35.554 ZM56.917,35.639 L56.889,35.610 L55.064,35.610 L55.541,36.429 C55.990,36.175 56.467,35.892 56.917,35.639 ZM52.845,38.123 C53.043,37.981 53.266,37.841 53.464,37.699 L52.845,36.711 L52.845,38.123 ZM52.845,35.949 L53.828,37.502 C54.277,37.191 54.727,36.937 55.176,36.654 L54.558,35.610 L52.845,35.610 L52.845,35.949 ZM52.845,35.554 L54.530,35.554 L52.845,32.674 L52.845,35.554 ZM52.845,31.856 L55.036,35.554 L56.860,35.554 L53.126,28.722 L53.464,28.440 L57.282,35.441 C57.760,35.187 58.208,34.932 58.686,34.678 L54.896,27.226 L55.232,26.943 L59.051,34.509 C59.527,34.255 60.005,34.029 60.482,33.804 L56.720,25.729 L57.030,25.447 L60.877,33.605 C61.353,33.380 61.831,33.182 62.308,32.957 L58.544,24.233 L58.911,24.007 L62.700,32.787 C63.178,32.589 63.656,32.364 64.161,32.166 L60.932,23.979 L52.845,23.979 L52.845,31.856 ZM41.306,162.847 C41.559,162.988 41.811,163.157 42.036,163.298 L52.790,163.298 L52.790,162.649 C51.976,162.281 51.132,161.886 50.319,161.491 C47.230,159.967 44.226,158.216 41.306,156.240 L41.306,162.847 ZM41.306,154.660 C44.366,156.833 47.568,158.753 50.852,160.390 C51.498,160.730 52.143,161.040 52.790,161.322 L52.790,151.865 L51.442,154.180 L51.048,154.010 L52.368,151.752 L50.263,151.752 L49.308,153.276 L48.915,153.107 L49.757,151.752 L47.623,151.752 L47.174,152.401 L46.781,152.232 L47.118,151.752 L41.306,151.752 L41.306,154.660 ZM52.143,145.033 L47.651,151.695 L49.814,151.695 L52.790,146.981 L52.790,145.456 C52.564,145.315 52.368,145.174 52.143,145.033 ZM52.790,144.948 L52.790,140.149 L46.500,140.149 C48.494,141.871 50.599,143.480 52.790,144.948 ZM50.319,151.695 L52.396,151.695 L52.790,151.046 L52.790,147.771 L50.319,151.695 ZM41.306,151.695 L47.146,151.695 L51.807,144.779 C51.358,144.497 50.937,144.185 50.516,143.876 L45.012,151.498 L44.591,151.329 L50.178,143.621 C49.729,143.311 49.308,143.000 48.915,142.661 L42.794,150.566 L42.401,150.397 L48.578,142.407 C48.157,142.069 47.736,141.758 47.342,141.419 L41.306,148.731 L41.306,151.695 ZM41.306,148.053 L47.005,141.137 C46.640,140.826 46.247,140.488 45.855,140.149 L45.743,140.149 L41.306,145.202 L41.306,148.053 ZM45.489,139.810 C45.097,139.472 44.704,139.105 44.310,138.738 L43.047,140.092 L45.237,140.092 L45.489,139.810 ZM41.306,144.581 L45.180,140.149 L42.991,140.149 L41.306,141.955 L41.306,144.581 ZM41.306,141.335 L42.429,140.149 L41.306,140.149 L41.306,141.335 ZM41.306,140.092 L42.457,140.092 L44.002,138.455 C43.636,138.088 43.242,137.721 42.879,137.354 L41.306,138.935 L41.306,140.092 ZM41.306,138.314 L42.570,137.043 C42.205,136.677 41.840,136.281 41.475,135.914 L41.306,136.084 L41.306,138.314 ZM41.306,135.123 C42.934,136.874 44.620,138.539 46.444,140.092 L52.790,140.092 L52.790,128.518 L41.306,128.518 L41.306,135.123 ZM41.306,128.461 L52.790,128.461 L52.790,116.915 L41.306,116.915 L41.306,128.461 ZM41.306,116.859 L52.790,116.859 L52.790,105.284 L41.306,105.284 L41.306,116.859 ZM41.306,105.228 L52.790,105.228 L52.790,93.681 L41.306,93.681 L41.306,105.228 ZM41.306,93.625 L52.790,93.625 L52.790,82.050 L41.306,82.050 L41.306,93.625 ZM41.306,81.993 L52.790,81.993 L52.790,70.447 L41.306,70.447 L41.306,81.993 ZM41.306,70.391 L52.790,70.391 L52.790,58.844 L41.306,58.844 L41.306,70.391 ZM41.306,58.787 L52.790,58.787 L52.790,47.213 L42.541,47.213 C42.121,47.636 41.698,48.060 41.306,48.512 L41.306,58.787 ZM52.143,35.610 L50.123,35.610 L52.143,38.575 C52.368,38.433 52.564,38.292 52.790,38.151 L52.790,36.626 L52.143,35.610 ZM52.790,35.864 L52.790,35.610 L52.622,35.610 L52.790,35.864 ZM49.616,35.610 L47.511,35.610 L50.516,39.760 C50.937,39.450 51.358,39.139 51.807,38.829 L49.616,35.610 ZM42.598,47.156 L52.790,47.156 L52.790,38.659 C49.112,41.144 45.685,43.994 42.598,47.156 ZM41.306,47.552 L41.475,47.721 C41.643,47.552 41.784,47.382 41.952,47.213 L41.306,47.213 L41.306,47.552 ZM41.306,47.156 L42.008,47.156 C42.205,46.959 42.373,46.762 42.570,46.564 L41.306,45.294 L41.306,47.156 ZM41.306,44.700 L42.879,46.282 C43.242,45.886 43.636,45.519 44.002,45.152 L41.306,42.272 L41.306,44.700 ZM41.306,41.652 L44.310,44.870 C44.704,44.503 45.097,44.164 45.489,43.797 L41.306,39.026 L41.306,41.652 ZM41.306,38.405 L45.799,43.515 C46.191,43.176 46.613,42.837 47.005,42.471 L42.598,37.106 L42.934,36.881 L47.342,42.216 C47.736,41.877 48.157,41.539 48.578,41.200 L44.422,35.864 L44.787,35.610 L48.915,40.945 C49.308,40.635 49.729,40.324 50.178,39.986 L47.005,35.610 L44.787,35.610 L41.306,35.610 L41.306,38.405 ZM41.306,35.554 L46.950,35.554 L46.191,34.509 L46.528,34.255 L47.455,35.554 L49.588,35.554 L47.904,33.069 L48.242,32.815 L50.094,35.554 L52.116,35.554 L49.645,31.629 L49.954,31.376 L52.593,35.554 L52.790,35.554 L52.790,32.589 L51.386,30.190 L51.694,29.907 L52.790,31.771 L52.790,23.979 L49.645,23.979 C49.616,23.979 49.616,24.007 49.588,24.007 C49.224,24.205 48.886,24.403 48.522,24.572 C48.157,24.798 47.820,24.995 47.483,25.193 C46.781,25.616 46.051,26.040 45.349,26.464 C44.647,26.943 43.945,27.395 43.216,27.875 C42.879,28.101 42.486,28.327 42.148,28.581 C41.868,28.778 41.587,28.976 41.306,29.174 L41.306,35.554 ZM41.306,27.169 C41.643,26.943 41.980,26.718 42.317,26.491 C43.075,26.040 43.805,25.588 44.535,25.109 C45.208,24.741 45.883,24.346 46.585,23.979 L41.306,23.979 L41.306,27.169 ZM29.766,155.704 L30.469,154.885 C32.293,156.466 34.230,157.990 36.197,159.430 L35.466,160.447 C33.500,159.035 31.592,157.511 29.766,155.930 L29.766,163.298 L39.621,163.298 C39.116,162.960 38.583,162.621 38.078,162.281 L38.751,161.209 C39.565,161.745 40.408,162.281 41.251,162.819 L41.251,156.212 C39.200,154.829 37.235,153.333 35.298,151.752 L29.766,151.752 L29.766,155.704 ZM41.251,154.603 L41.251,151.752 L37.487,151.752 C38.695,152.740 39.959,153.699 41.251,154.603 ZM29.766,151.695 L35.241,151.695 C33.360,150.114 31.507,148.449 29.766,146.670 L29.766,151.695 ZM29.766,144.610 C32.182,147.151 34.736,149.521 37.403,151.695 L41.251,151.695 L41.251,148.788 L40.548,149.635 L40.240,149.493 L40.155,149.465 L41.251,148.138 L41.251,145.287 L38.442,148.477 L38.133,148.223 L41.251,144.666 L41.251,142.012 L36.786,146.812 L36.504,146.472 L41.251,141.391 L41.251,140.149 L40.099,140.149 L35.494,144.751 L35.298,144.383 L39.481,140.149 L36.982,140.149 L34.315,142.661 L34.091,142.294 L36.365,140.149 L33.640,140.149 L33.136,140.601 L32.939,140.234 L33.024,140.149 L29.766,140.149 L29.766,144.610 ZM41.251,135.039 L41.251,128.518 L36.000,128.518 C37.600,130.805 39.369,133.006 41.251,135.039 ZM40.127,134.418 L33.698,140.092 L36.421,140.092 L41.194,135.604 C40.828,135.209 40.463,134.814 40.127,134.418 ZM37.039,140.092 L39.537,140.092 L41.251,138.370 L41.251,136.112 L37.039,140.092 ZM40.155,140.092 L41.251,140.092 L41.251,138.991 L40.155,140.092 ZM29.766,140.092 L33.108,140.092 L39.846,134.107 C39.481,133.712 39.144,133.289 38.808,132.893 L31.985,138.569 L31.788,138.201 L38.526,132.555 C38.217,132.160 37.881,131.736 37.544,131.313 L30.777,136.620 L30.552,136.253 L37.291,130.974 C36.982,130.578 36.645,130.155 36.336,129.704 L29.766,134.503 L29.766,140.092 ZM29.766,133.995 L36.083,129.365 C35.888,129.083 35.691,128.800 35.494,128.518 L34.512,128.518 L29.766,131.764 L29.766,133.995 ZM34.595,128.461 L35.437,128.461 C35.353,128.320 35.270,128.207 35.185,128.066 L34.595,128.461 ZM34.933,127.728 C34.652,127.275 34.343,126.852 34.062,126.400 L30.834,128.461 L33.866,128.461 L34.933,127.728 ZM29.766,131.256 L33.782,128.518 L30.749,128.518 L29.766,129.139 L29.766,131.256 ZM29.766,128.631 L29.962,128.518 L29.766,128.518 L29.766,128.631 ZM29.766,128.461 L30.048,128.461 L33.838,126.033 C33.556,125.582 33.276,125.130 33.024,124.679 L29.766,126.626 L29.766,128.461 ZM29.766,126.119 L32.798,124.311 C32.518,123.860 32.266,123.380 32.013,122.928 L29.766,124.170 L29.766,126.119 ZM29.766,123.691 L31.815,122.561 C31.563,122.081 31.311,121.630 31.058,121.150 L29.766,121.799 L29.766,123.691 ZM29.766,121.347 L30.861,120.783 C30.637,120.302 30.383,119.823 30.160,119.342 L29.766,119.541 L29.766,121.347 ZM29.766,119.060 L29.991,118.947 C29.907,118.778 29.851,118.637 29.766,118.468 L29.766,119.060 ZM29.766,117.451 C31.480,121.347 33.556,125.017 35.944,128.461 L41.251,128.461 L41.251,116.915 L29.766,116.915 L29.766,117.451 ZM29.766,116.859 L41.251,116.859 L41.251,105.284 L29.766,105.284 L29.766,116.859 ZM29.766,105.228 L41.251,105.228 L41.251,93.681 L29.766,93.681 L29.766,105.228 ZM29.766,93.625 L41.251,93.625 L41.251,82.050 L29.766,82.050 L29.766,93.625 ZM29.766,81.993 L41.251,81.993 L41.251,70.447 L29.766,70.447 L29.766,81.993 ZM29.766,70.391 L41.251,70.391 L41.251,58.844 L33.556,58.844 C32.153,61.187 30.889,63.643 29.766,66.184 L29.766,70.391 ZM38.808,50.742 C39.144,50.319 39.481,49.923 39.846,49.528 L37.235,47.213 L34.568,47.213 L38.808,50.742 ZM33.922,47.213 L31.031,47.213 L37.544,52.295 C37.881,51.871 38.217,51.476 38.526,51.053 L33.922,47.213 ZM40.127,49.189 C40.463,48.794 40.828,48.398 41.194,48.032 L40.323,47.213 L37.909,47.213 L40.127,49.189 ZM41.251,47.496 L41.251,47.213 L40.941,47.213 L41.251,47.496 ZM33.585,58.787 L41.251,58.787 L41.251,48.568 C38.387,51.702 35.803,55.118 33.585,58.787 ZM33.080,58.844 L32.827,58.844 L33.024,58.957 C33.052,58.929 33.052,58.872 33.080,58.844 ZM29.766,65.140 C29.851,64.970 29.907,64.829 29.991,64.660 L29.766,64.546 L29.766,65.140 ZM29.766,64.067 L30.160,64.264 C30.383,63.784 30.637,63.304 30.861,62.853 L29.766,62.288 L29.766,64.067 ZM29.766,61.809 L31.058,62.458 C31.311,62.006 31.563,61.526 31.815,61.075 L29.766,59.945 L29.766,61.809 ZM29.766,59.437 L32.013,60.679 C32.266,60.227 32.518,59.776 32.798,59.296 L32.041,58.844 L29.766,58.844 L29.766,59.437 ZM29.766,58.787 L31.927,58.787 L29.766,57.489 L29.766,58.787 ZM29.766,57.038 L32.742,58.787 L33.108,58.787 C33.332,58.364 33.585,57.968 33.838,57.574 L29.766,54.977 L29.766,57.038 ZM29.766,54.469 L34.062,57.235 C34.343,56.783 34.652,56.331 34.933,55.908 L29.766,52.351 L29.766,54.469 ZM29.766,51.843 L35.185,55.541 C35.466,55.118 35.774,54.666 36.083,54.242 L29.766,49.641 L29.766,51.843 ZM29.766,49.104 L36.336,53.904 C36.645,53.480 36.982,53.057 37.291,52.633 L30.356,47.213 L29.766,47.213 L29.766,49.104 ZM29.766,46.762 L29.766,47.156 L30.272,47.156 L29.766,46.762 L30.019,46.422 L30.945,47.156 L33.866,47.156 L31.255,44.983 L31.563,44.700 L34.512,47.156 L37.179,47.156 L33.136,43.571 L33.500,43.317 L37.824,47.156 L40.267,47.156 L35.073,42.245 L35.437,41.991 L40.886,47.156 L41.251,47.156 L41.251,45.236 L36.982,40.945 L37.347,40.692 L41.251,44.644 L41.251,42.216 L38.864,39.647 L39.229,39.421 L41.251,41.595 L41.251,38.941 L40.744,38.377 L41.082,38.151 L41.251,38.349 L41.251,35.610 L33.500,35.610 C33.220,35.864 32.968,36.090 32.715,36.344 C32.377,36.654 32.041,36.993 31.703,37.332 C31.366,37.643 31.031,37.981 30.692,38.349 C30.383,38.659 30.075,38.998 29.766,39.336 L29.766,46.762 ZM41.251,35.554 L41.251,29.230 C41.194,29.258 41.137,29.315 41.082,29.343 C38.526,31.177 36.000,33.239 33.556,35.554 L41.251,35.554 ZM29.766,36.599 C29.962,36.400 30.188,36.175 30.412,35.977 C30.552,35.864 30.665,35.723 30.805,35.610 L29.766,35.610 L29.766,36.599 ZM29.766,23.979 L29.991,24.261 L29.907,25.165 L29.766,25.165 L29.766,28.835 C30.188,28.440 30.749,27.931 31.423,27.338 C31.872,26.943 32.377,26.520 32.939,26.068 C33.529,25.588 34.119,25.052 34.792,24.544 C35.045,24.374 35.298,24.176 35.550,23.979 L29.766,23.979 ZM34.989,24.798 C34.288,25.277 33.669,25.786 33.080,26.209 C32.518,26.661 31.985,27.056 31.507,27.423 C30.777,28.016 30.216,28.524 29.766,28.891 L29.766,35.554 L30.861,35.554 C31.058,35.356 31.283,35.187 31.480,34.989 C34.288,32.364 37.179,29.992 40.127,27.988 C40.492,27.734 40.857,27.480 41.222,27.226 C41.222,27.226 41.251,27.226 41.251,27.197 L41.251,23.979 L36.167,23.979 C35.747,24.261 35.353,24.515 34.989,24.798 ZM123.459,18.870 C119.360,16.582 115.092,14.804 110.854,13.336 C110.319,13.138 109.786,12.969 109.252,12.771 C108.718,12.630 108.186,12.461 107.652,12.320 C107.119,12.150 106.584,11.981 106.052,11.840 L105.265,11.614 L104.451,11.416 C103.384,11.162 102.317,10.908 101.250,10.654 C100.184,10.456 99.116,10.259 98.077,10.061 L97.291,9.920 L96.477,9.807 C95.971,9.722 95.439,9.666 94.905,9.581 C94.372,9.525 93.866,9.440 93.333,9.384 C92.828,9.327 92.294,9.271 91.788,9.242 C90.749,9.158 89.738,9.045 88.700,8.989 C87.661,8.960 86.622,8.932 85.612,8.876 L84.854,8.847 L84.124,8.876 C83.618,8.876 83.112,8.876 82.607,8.876 C81.625,8.904 80.642,8.904 79.660,8.989 C78.704,9.045 77.722,9.101 76.767,9.158 C75.813,9.271 74.886,9.355 73.931,9.468 C73.005,9.553 72.078,9.722 71.180,9.864 C70.731,9.920 70.282,10.005 69.831,10.061 C69.383,10.118 68.934,10.202 68.485,10.316 C67.615,10.485 66.743,10.654 65.873,10.852 C65.452,10.936 65.031,11.021 64.611,11.134 C64.189,11.247 63.768,11.360 63.347,11.445 C61.689,11.840 60.089,12.348 58.518,12.828 L57.956,12.997 L57.394,13.195 C57.001,13.336 56.637,13.477 56.243,13.590 C55.513,13.872 54.783,14.098 54.053,14.409 C48.353,16.611 43.608,19.151 39.874,21.494 C38.948,22.115 38.049,22.652 37.263,23.217 C36.898,23.471 36.562,23.697 36.225,23.923 L46.669,23.923 C46.698,23.923 46.698,23.894 46.725,23.894 C47.090,23.669 47.455,23.471 47.820,23.273 C48.185,23.104 48.549,22.906 48.915,22.737 C49.645,22.370 50.347,22.003 51.077,21.664 C51.779,21.325 52.509,21.015 53.211,20.704 C54.586,20.055 56.018,19.575 57.366,19.039 C58.040,18.784 58.714,18.559 59.359,18.333 C60.034,18.135 60.679,17.909 61.324,17.712 C62.616,17.317 63.880,17.006 65.088,16.667 C66.295,16.357 67.474,16.159 68.597,15.905 C69.158,15.764 69.692,15.708 70.253,15.595 C70.787,15.510 71.292,15.425 71.826,15.340 C72.332,15.284 72.808,15.171 73.315,15.143 C73.791,15.086 74.268,15.030 74.718,14.974 C75.644,14.889 76.486,14.776 77.300,14.719 C78.901,14.634 80.248,14.522 81.373,14.522 C83.562,14.522 84.741,14.522 84.741,14.522 L84.741,14.719 C84.741,14.719 83.562,14.776 81.373,14.889 C80.838,14.889 80.221,14.974 79.547,15.030 C78.873,15.114 78.143,15.171 77.328,15.256 C76.543,15.312 75.700,15.481 74.801,15.595 C74.353,15.679 73.876,15.736 73.399,15.820 C72.921,15.877 72.444,15.990 71.938,16.074 C71.433,16.187 70.928,16.300 70.393,16.385 C69.860,16.498 69.327,16.611 68.766,16.752 C67.671,17.034 66.520,17.288 65.340,17.627 C64.161,17.994 62.926,18.333 61.662,18.756 C61.044,18.982 60.398,19.208 59.753,19.434 C59.107,19.659 58.433,19.885 57.787,20.168 C56.467,20.733 55.092,21.241 53.744,21.918 C53.071,22.257 52.368,22.567 51.667,22.906 C51.048,23.245 50.403,23.584 49.757,23.923 L60.903,23.923 L60.623,23.189 L61.017,23.076 L61.353,23.923 L63.347,23.923 L62.869,22.624 L63.291,22.539 L63.796,23.923 L65.705,23.923 L65.115,22.115 L65.537,22.031 L66.154,23.923 L68.036,23.923 L67.362,21.608 L67.783,21.523 L68.485,23.923 L70.310,23.923 L69.580,21.099 L70.001,21.015 L70.759,23.923 L72.556,23.923 L71.826,20.591 L72.218,20.478 L72.977,23.923 L74.773,23.923 L74.043,20.083 L74.100,20.055 L74.466,19.999 L75.195,23.923 L76.964,23.923 L76.290,19.688 L76.711,19.603 L77.385,23.923 L79.125,23.923 L78.536,19.321 L78.958,19.236 L79.547,23.923 L81.288,23.923 L80.810,18.954 L81.232,18.870 L81.709,23.923 L83.422,23.923 L83.084,18.559 L83.477,18.502 L83.814,23.923 L85.527,23.923 L85.359,18.192 L85.780,18.135 L85.948,23.923 L87.661,23.923 L87.661,17.824 L88.082,17.740 L88.082,23.923 L89.767,23.923 L89.992,17.429 L90.414,17.373 L90.188,23.923 L91.900,23.923 L92.322,17.203 L92.743,17.203 L92.322,23.923 L94.034,23.923 L94.625,17.571 L95.045,17.712 L94.456,23.923 L96.197,23.923 L96.870,18.530 L97.263,18.728 L96.618,23.923 L98.358,23.923 L99.033,19.575 L99.425,19.773 L98.780,23.923 L100.520,23.923 L101.166,20.620 L101.560,20.817 L100.970,23.923 L102.738,23.923 L103.244,21.636 L103.637,21.806 L103.160,23.923 L104.985,23.923 L105.321,22.624 L105.714,22.821 L105.434,23.923 L107.259,23.923 L107.343,23.612 L107.736,23.810 L107.707,23.923 L131.574,23.923 C128.934,22.059 126.239,20.365 123.459,18.870 ZM133.708,25.476 C133.033,24.967 132.359,24.459 131.658,23.979 L122.224,23.979 L122.224,32.984 L123.543,30.726 L123.965,30.839 L122.224,33.832 L122.224,35.554 L123.122,35.554 L125.734,31.404 L126.155,31.545 L123.601,35.554 L125.620,35.554 L127.952,32.110 L128.373,32.250 L126.155,35.554 L128.260,35.554 L130.226,32.843 L130.647,32.984 L128.794,35.554 L131.011,35.554 L132.529,33.577 L132.949,33.719 L131.517,35.554 L133.708,35.554 L133.708,25.476 ZM133.708,35.610 L131.489,35.610 L127.166,41.200 C127.587,41.539 128.008,41.877 128.401,42.216 L133.708,35.780 L133.708,35.610 ZM133.708,36.429 L128.738,42.471 C129.132,42.837 129.523,43.176 129.917,43.515 L133.708,39.196 L133.708,36.429 ZM133.708,39.845 L130.254,43.797 C130.647,44.164 131.039,44.503 131.404,44.870 L133.708,42.414 L133.708,39.845 ZM133.708,43.035 L131.714,45.152 C132.107,45.519 132.500,45.886 132.865,46.282 L133.708,45.434 L133.708,43.035 ZM133.708,45.999 L133.145,46.564 C133.343,46.762 133.511,46.931 133.708,47.128 L133.708,45.999 ZM133.708,47.749 C133.540,47.580 133.371,47.382 133.202,47.213 L122.224,47.213 L122.224,58.787 L133.708,58.787 L133.708,47.749 ZM133.708,58.844 L122.224,58.844 L122.224,70.391 L133.708,70.391 L133.708,58.844 ZM133.708,70.447 L122.224,70.447 L122.224,81.993 L133.708,81.993 L133.708,70.447 ZM133.708,82.050 L122.224,82.050 L122.224,93.625 L133.708,93.625 L133.708,82.050 ZM133.708,93.681 L122.224,93.681 L122.224,105.228 L133.708,105.228 L133.708,93.681 ZM133.708,105.284 L122.224,105.284 L122.224,116.859 L133.708,116.859 L133.708,105.284 ZM133.708,116.915 L122.224,116.915 L122.224,128.461 L133.708,128.461 L133.708,116.915 ZM133.708,128.518 L122.224,128.518 L122.224,140.092 L129.299,140.092 C130.844,138.765 132.302,137.354 133.708,135.886 L133.708,128.518 ZM130.254,139.810 L130.506,140.092 L132.669,140.092 L131.404,138.738 C131.039,139.105 130.647,139.472 130.254,139.810 ZM133.708,136.479 C133.511,136.677 133.343,136.874 133.145,137.043 L133.708,137.608 L133.708,136.479 ZM133.708,138.201 L132.865,137.354 C132.500,137.721 132.107,138.088 131.714,138.455 L133.259,140.092 L133.708,140.092 L133.708,138.201 ZM133.708,140.149 L133.314,140.149 L133.708,140.572 L133.708,140.149 ZM133.708,141.193 L132.724,140.149 L130.563,140.149 L133.708,143.763 L133.708,141.193 ZM133.708,144.412 L129.973,140.149 L129.861,140.149 C129.496,140.488 129.102,140.826 128.738,141.137 L133.708,147.179 L133.708,144.412 ZM133.708,147.856 L128.401,141.419 C128.008,141.758 127.587,142.069 127.166,142.407 L132.500,149.295 L132.079,149.465 L126.828,142.661 C126.407,143.000 125.986,143.311 125.564,143.621 L130.142,149.973 L129.664,150.029 L125.227,143.876 C124.807,144.185 124.357,144.497 123.936,144.779 L127.587,150.171 L127.137,150.284 L123.571,145.033 C123.151,145.315 122.700,145.625 122.251,145.908 L125.397,150.877 L125.032,151.074 L122.224,146.613 L122.224,149.776 L123.347,151.695 L132.949,151.695 C132.978,151.667 133.033,151.639 133.061,151.611 C133.285,151.413 133.511,151.244 133.708,151.074 L133.708,147.856 ZM133.708,151.442 C133.624,151.526 133.511,151.611 133.426,151.695 L133.708,151.695 L133.708,151.442 ZM133.708,151.752 L133.343,151.752 C133.314,151.780 133.285,151.808 133.259,151.836 C131.995,152.825 130.563,154.010 128.878,155.167 C126.969,156.523 124.750,157.990 122.224,159.430 L122.224,163.298 L126.913,163.298 C126.998,163.242 127.109,163.185 127.193,163.129 C127.980,162.677 128.738,162.141 129.496,161.661 C130.254,161.152 131.039,160.644 131.798,160.080 C132.443,159.629 133.061,159.148 133.708,158.669 L133.708,151.752 ZM133.708,160.503 C133.343,160.757 132.978,161.011 132.612,161.266 C131.854,161.830 131.039,162.338 130.254,162.819 C130.002,162.988 129.748,163.129 129.496,163.298 L133.708,163.298 L133.708,160.503 ZM135.308,26.718 C134.803,26.322 134.268,25.899 133.763,25.532 L133.763,35.554 L133.875,35.554 L134.886,34.340 L135.308,34.481 L134.437,35.554 L136.908,35.554 L137.300,35.102 L137.751,35.243 L137.470,35.554 L144.826,35.554 C141.849,32.335 138.649,29.371 135.308,26.718 ZM145.276,27.931 L144.545,28.722 L143.646,28.750 L143.618,27.846 L145.276,26.068 L145.276,23.979 L141.372,23.979 L140.474,25.080 L139.575,25.165 L139.491,24.261 L139.716,23.979 L135.616,23.979 C139.014,26.520 142.242,29.371 145.276,32.477 L145.276,27.931 ZM145.276,36.033 C145.134,35.892 145.023,35.751 144.882,35.610 L137.442,35.610 L133.763,39.788 L133.763,42.357 L139.800,35.892 L140.250,36.033 L133.763,42.950 L133.763,45.378 L142.354,36.711 L142.777,36.881 L133.763,45.943 L133.763,47.156 L134.859,47.156 L144.629,37.925 L144.966,38.179 L135.476,47.156 L137.920,47.156 L145.276,40.607 L145.276,36.033 ZM145.276,41.200 L138.565,47.156 L141.233,47.156 L145.276,43.797 L145.276,41.200 ZM145.276,44.334 L141.877,47.156 L144.769,47.156 L145.276,46.762 L145.276,44.334 ZM145.276,47.297 L138.453,52.633 C138.761,53.057 139.070,53.480 139.406,53.904 L145.276,49.613 L145.276,47.297 ZM145.276,50.121 L139.632,54.242 C139.940,54.666 140.250,55.118 140.558,55.541 L145.276,52.323 L145.276,50.121 ZM145.276,52.831 L140.812,55.908 C141.091,56.331 141.372,56.783 141.681,57.235 L145.276,54.920 L145.276,52.831 ZM145.276,55.428 L141.905,57.574 C142.158,57.968 142.383,58.364 142.608,58.787 L143.001,58.787 L145.276,57.433 L145.276,55.428 ZM142.665,58.844 C142.665,58.872 142.692,58.929 142.720,58.957 L142.917,58.844 L142.665,58.844 ZM145.276,57.912 L143.787,58.787 L145.276,58.787 L145.276,57.912 ZM145.276,58.844 L143.703,58.844 L142.945,59.296 C143.197,59.776 143.478,60.227 143.731,60.679 L145.276,59.832 L145.276,58.844 ZM145.276,60.312 L143.928,61.075 C144.180,61.526 144.433,62.006 144.685,62.458 L145.276,62.147 L145.276,60.312 ZM145.276,62.627 L144.854,62.853 C144.994,63.107 145.134,63.389 145.276,63.672 L145.276,62.627 ZM145.276,64.631 C144.349,62.655 143.310,60.707 142.186,58.844 L133.763,58.844 L133.763,70.391 L145.276,70.391 L145.276,64.631 ZM145.276,70.447 L133.763,70.447 L133.763,81.993 L145.276,81.993 L145.276,70.447 ZM145.276,82.050 L133.763,82.050 L133.763,93.625 L145.276,93.625 L145.276,82.050 ZM145.276,93.681 L133.763,93.681 L133.763,105.228 L145.276,105.228 L145.276,93.681 ZM145.276,105.284 L133.763,105.284 L133.763,116.859 L145.276,116.859 L145.276,105.284 ZM145.276,116.915 L133.763,116.915 L133.763,128.461 L139.772,128.461 C141.877,125.497 143.703,122.335 145.276,119.004 L145.276,116.915 ZM140.558,128.066 C140.474,128.207 140.361,128.320 140.277,128.461 L141.148,128.461 L140.558,128.066 ZM141.877,128.461 L144.910,128.461 L141.681,126.400 C141.372,126.852 141.091,127.275 140.812,127.728 L141.877,128.461 ZM145.276,119.936 C145.134,120.218 144.994,120.500 144.854,120.783 L145.276,121.009 L145.276,119.936 ZM145.276,121.460 L144.685,121.150 C144.433,121.630 144.180,122.081 143.928,122.561 L145.276,123.295 L145.276,121.460 ZM145.276,123.775 L143.731,122.928 C143.478,123.380 143.197,123.860 142.945,124.311 L145.276,125.695 L145.276,123.775 ZM145.276,126.203 L142.720,124.679 C142.439,125.130 142.186,125.582 141.905,126.033 L145.276,128.179 L145.276,126.203 ZM145.276,128.715 L144.994,128.518 L141.962,128.518 L145.276,130.776 L145.276,128.715 ZM145.276,131.313 L141.204,128.518 L140.250,128.518 C140.053,128.800 139.828,129.083 139.632,129.365 L144.545,132.950 L144.320,133.317 L139.406,129.704 C139.070,130.155 138.761,130.578 138.453,130.974 L143.338,134.814 L143.113,135.181 L138.200,131.313 C137.862,131.736 137.526,132.160 137.188,132.555 L142.158,136.705 L141.934,137.043 L136.936,132.893 C136.599,133.289 136.235,133.712 135.897,134.107 L140.951,138.596 L140.727,138.935 L135.616,134.418 C135.251,134.814 134.914,135.209 134.550,135.604 L139.322,140.092 L145.276,140.092 L145.276,131.313 ZM145.276,140.149 L139.380,140.149 L139.744,140.488 L139.520,140.855 L138.761,140.149 L136.235,140.149 L138.508,142.435 L138.284,142.803 L135.645,140.149 L133.763,140.149 L133.763,140.629 L137.273,144.383 L137.021,144.751 L133.763,141.250 L133.763,143.847 L135.981,146.388 L135.728,146.727 L133.763,144.497 L133.763,147.263 L134.437,148.082 L134.101,148.336 L133.763,147.941 L133.763,151.018 C134.690,150.227 135.504,149.550 136.150,148.957 C137.778,147.461 138.621,146.642 138.621,146.642 L138.761,146.812 C138.761,146.812 137.920,147.630 136.318,149.154 C135.616,149.776 134.746,150.538 133.763,151.385 L133.763,151.695 L141.794,151.695 C142.973,150.538 144.124,149.324 145.276,148.053 L145.276,140.149 ZM145.276,150.651 C144.939,151.018 144.602,151.357 144.264,151.695 L145.276,151.695 L145.276,150.651 ZM145.276,157.567 L143.618,155.760 L143.646,154.885 L144.545,154.913 L145.276,155.704 L145.276,151.752 L144.208,151.752 C143.478,152.458 142.720,153.163 141.990,153.841 C141.233,154.575 140.446,155.196 139.659,155.874 C138.902,156.523 138.143,157.200 137.329,157.793 C136.543,158.414 135.786,159.007 134.998,159.600 C134.606,159.882 134.185,160.193 133.763,160.475 L133.763,163.298 L135.616,163.298 L135.166,162.677 C134.971,162.395 135.027,162.000 135.308,161.802 L136.207,161.943 L137.188,163.298 L145.276,163.298 L145.276,157.567 ZM156.815,23.979 L145.331,23.979 L145.331,26.012 L145.809,25.504 L146.708,25.476 L146.735,26.350 L145.331,27.875 L145.331,32.533 C146.145,33.380 146.931,34.227 147.717,35.102 C147.858,35.243 147.998,35.413 148.110,35.554 L151.394,35.554 L153.614,33.719 L154.484,33.804 L154.400,34.678 L153.362,35.554 L156.815,35.554 L156.815,23.979 ZM156.815,39.958 L155.241,41.115 C154.961,41.313 154.569,41.256 154.344,40.974 C154.147,40.692 154.204,40.268 154.484,40.071 L156.815,38.377 L156.815,35.610 L153.277,35.610 L151.929,36.739 L151.030,36.654 L151.114,35.780 L151.312,35.610 L148.166,35.610 C151.340,39.167 154.204,43.035 156.731,47.156 L156.815,47.156 L156.815,39.958 ZM156.815,47.213 L156.758,47.213 C156.786,47.241 156.786,47.270 156.815,47.297 L156.815,47.213 ZM156.815,52.295 C155.888,50.573 154.877,48.879 153.838,47.213 L149.065,47.213 L149.093,47.354 L145.331,50.092 L145.331,52.295 L149.627,49.358 L149.739,49.782 L145.331,52.802 L145.331,54.892 L150.273,51.730 L150.385,52.153 L145.331,55.372 L145.331,57.405 L150.919,54.073 L151.030,54.497 L145.331,57.884 L145.331,58.787 L147.156,58.787 L151.536,56.360 L151.649,56.783 L148.055,58.787 L151.873,58.787 L152.154,58.647 L152.183,58.787 L156.815,58.787 L156.815,52.295 ZM156.815,58.844 L152.210,58.844 L152.266,59.042 L145.331,62.599 L145.331,63.784 C145.415,63.954 145.472,64.095 145.556,64.264 L152.772,60.876 L152.884,61.300 L145.752,64.660 C145.977,65.140 146.173,65.619 146.398,66.100 L153.362,63.079 L153.474,63.502 L146.566,66.495 C146.763,66.974 146.987,67.483 147.184,67.963 L153.950,65.281 L154.007,65.507 L154.063,65.676 L147.325,68.358 C147.521,68.866 147.717,69.346 147.887,69.854 L154.456,67.483 L154.541,67.906 L148.027,70.249 C148.055,70.306 148.055,70.334 148.083,70.391 L152.772,70.391 L154.933,69.685 L155.018,70.080 L154.063,70.391 L156.815,70.391 L156.815,58.844 ZM156.815,70.447 L153.894,70.447 L148.672,72.169 C148.840,72.677 149.009,73.185 149.150,73.693 L155.412,71.859 L155.495,72.282 L149.261,74.089 C149.402,74.597 149.542,75.105 149.683,75.641 L155.888,74.032 L155.973,74.456 L149.795,76.036 C149.908,76.545 150.048,77.081 150.160,77.590 L156.365,76.206 L156.449,76.602 L150.245,78.013 C150.358,78.521 150.470,79.057 150.582,79.566 L156.815,78.351 L156.815,70.447 ZM156.815,78.803 L150.638,79.989 C150.750,80.497 150.834,81.033 150.919,81.542 L156.815,80.610 L156.815,78.803 ZM156.815,81.033 L151.003,81.965 L151.003,81.993 L156.815,81.993 L156.815,81.033 ZM156.815,82.050 L151.003,82.050 C151.059,82.558 151.142,83.038 151.227,83.546 L156.815,82.840 L156.815,82.050 ZM156.815,83.264 L151.256,83.969 C151.340,84.506 151.394,85.014 151.424,85.551 L156.590,85.070 L156.506,85.494 L151.480,85.974 C151.508,86.510 151.565,87.047 151.593,87.555 L156.196,87.273 L156.113,87.696 L151.621,87.979 C151.649,88.515 151.677,89.051 151.705,89.588 L155.888,89.446 L155.888,89.814 L155.888,89.870 L151.705,90.011 C151.733,90.547 151.733,91.056 151.733,91.592 L155.888,91.592 L155.888,92.016 L151.733,92.016 C151.733,92.552 151.733,93.088 151.705,93.625 L156.815,93.625 L156.815,83.264 ZM156.815,93.681 L153.781,93.681 L155.888,93.738 L155.888,94.161 L151.705,94.048 C151.677,94.584 151.649,95.092 151.621,95.629 L155.888,95.911 L155.888,96.335 L151.593,96.053 C151.565,96.589 151.508,97.125 151.480,97.633 L155.888,98.057 L155.888,98.481 L151.424,98.057 C151.394,98.593 151.340,99.130 151.256,99.638 L155.888,100.231 L155.888,100.654 L151.227,100.061 C151.142,100.598 151.059,101.134 151.003,101.642 L155.888,102.432 L155.888,102.856 L150.919,102.065 C150.834,102.602 150.750,103.110 150.638,103.646 L155.888,104.635 L155.888,105.058 L150.582,104.042 C150.498,104.437 150.413,104.833 150.329,105.228 L156.815,105.228 L156.815,93.681 ZM156.815,105.284 L150.329,105.284 C150.301,105.397 150.273,105.510 150.245,105.623 L155.888,106.893 L155.888,107.316 L150.160,106.018 C150.048,106.554 149.908,107.062 149.795,107.571 L155.888,109.151 L155.888,109.575 L149.683,107.994 C149.542,108.502 149.402,109.010 149.261,109.518 L155.888,111.466 L155.888,111.890 L149.150,109.942 C149.009,110.450 148.840,110.958 148.672,111.466 L155.888,113.810 L155.888,114.261 L148.560,111.862 C148.392,112.370 148.223,112.877 148.027,113.358 L155.860,116.209 L155.860,116.633 L147.887,113.753 C147.717,114.261 147.521,114.769 147.325,115.249 L151.368,116.859 L156.815,116.859 L156.815,105.284 ZM156.815,116.915 L151.508,116.915 L155.495,118.496 L155.354,118.919 L150.358,116.915 L146.651,116.915 C146.623,116.971 146.595,117.056 146.566,117.113 L154.541,120.585 L154.288,120.952 L146.398,117.508 C146.173,117.988 145.977,118.468 145.752,118.947 L153.053,122.420 L152.772,122.759 L145.556,119.342 C145.472,119.512 145.415,119.654 145.331,119.823 L145.331,121.037 L151.508,124.170 L151.227,124.509 L145.331,121.488 L145.331,123.324 L149.992,125.892 L149.683,126.231 L145.331,123.803 L145.331,125.723 L148.476,127.615 L148.195,127.925 L145.331,126.231 L145.331,128.236 L145.696,128.461 L156.815,128.461 L156.815,116.915 ZM156.815,128.518 L145.809,128.518 L146.987,129.280 L146.708,129.619 L145.331,128.744 L145.331,130.805 L145.724,131.087 L145.500,131.454 L145.331,131.341 L145.331,140.092 L151.649,140.092 C152.127,139.415 152.604,138.709 153.080,138.031 C153.670,137.072 154.259,136.140 154.877,135.181 C155.159,134.728 155.439,134.220 155.719,133.741 C155.973,133.261 156.253,132.753 156.534,132.273 C156.618,132.103 156.731,131.934 156.815,131.736 L156.815,128.518 ZM156.815,135.886 C156.731,136.028 156.674,136.140 156.590,136.253 C155.973,137.213 155.326,138.173 154.737,139.132 C154.512,139.443 154.259,139.782 154.035,140.092 L156.815,140.092 L156.815,135.886 ZM156.815,145.259 L154.484,143.537 C154.204,143.339 154.147,142.944 154.344,142.661 C154.569,142.379 154.961,142.323 155.241,142.520 L156.815,143.678 L156.815,140.149 L154.007,140.149 C153.586,140.714 153.164,141.306 152.772,141.871 L152.266,142.548 L151.762,143.198 C151.424,143.621 151.059,144.073 150.722,144.497 C150.385,144.920 150.048,145.372 149.711,145.767 C149.346,146.190 148.980,146.613 148.616,147.009 C147.915,147.828 147.213,148.646 146.454,149.408 C146.089,149.804 145.696,150.199 145.331,150.594 L145.331,151.695 L147.494,151.695 L147.466,151.018 L148.363,150.989 L149.093,151.695 L156.815,151.695 L156.815,145.259 ZM156.815,151.752 L149.150,151.752 L150.694,153.220 L150.722,154.124 L149.852,154.124 L147.494,151.921 L147.494,151.752 L145.331,151.752 L145.331,155.760 L146.735,157.257 L146.708,158.160 L145.809,158.132 L145.331,157.624 L145.331,163.298 L156.815,163.298 L156.815,151.752 ZM154.400,148.929 L154.484,149.832 L153.614,149.916 L151.114,147.856 L151.030,146.952 L151.929,146.867 L154.400,148.929 ZM148.363,32.618 L147.466,32.589 L147.494,31.686 L149.852,29.484 L150.722,29.512 L150.694,30.416 L148.363,32.618 ZM140.474,158.555 L142.524,161.040 L142.439,161.943 L141.569,161.858 L139.491,159.346 L139.575,158.471 L140.474,158.555 ZM22.747,26.350 L22.775,25.476 L23.674,25.504 L25.892,27.846 L25.864,28.750 L24.965,28.722 L22.747,26.350 ZM136.207,21.692 C135.981,21.975 135.587,22.031 135.308,21.834 C135.027,21.608 134.971,21.212 135.166,20.930 L137.077,18.333 L137.947,18.192 C138.227,18.389 138.284,18.784 138.087,19.067 L136.207,21.692 ZM131.714,18.587 C131.517,18.870 131.152,18.954 130.844,18.756 C130.563,18.587 130.479,18.192 130.647,17.909 L132.388,15.171 C132.500,14.974 132.697,14.860 132.892,14.860 C133.033,14.860 133.145,14.889 133.259,14.974 C133.540,15.143 133.624,15.538 133.453,15.848 L131.714,18.587 ZM127.053,15.764 C126.885,16.046 126.491,16.159 126.183,15.990 C125.902,15.848 125.789,15.453 125.958,15.143 L127.502,12.320 C127.615,12.094 127.839,11.981 128.036,11.981 C128.148,11.981 128.260,12.009 128.344,12.066 C128.654,12.235 128.766,12.602 128.597,12.912 L127.053,15.764 ZM122.224,13.223 C122.056,13.562 121.691,13.675 121.381,13.534 C121.072,13.392 120.932,12.997 121.072,12.687 L122.448,9.779 C122.561,9.525 122.786,9.384 123.010,9.384 C123.094,9.384 123.207,9.412 123.291,9.468 C123.601,9.610 123.740,9.977 123.601,10.316 L122.224,13.223 ZM117.226,11.021 C117.114,11.360 116.750,11.501 116.412,11.388 C116.103,11.247 115.935,10.880 116.075,10.569 L117.254,7.549 C117.338,7.295 117.591,7.153 117.845,7.153 C117.900,7.153 117.985,7.153 118.068,7.182 C118.405,7.323 118.547,7.690 118.433,8.000 L117.226,11.021 ZM112.116,9.129 C112.033,9.468 111.667,9.638 111.330,9.525 C110.993,9.440 110.824,9.073 110.937,8.734 L111.920,5.657 C112.004,5.403 112.256,5.234 112.509,5.234 C112.565,5.234 112.649,5.234 112.705,5.262 C113.043,5.375 113.239,5.714 113.127,6.052 L112.116,9.129 ZM106.923,7.577 C106.837,7.916 106.472,8.113 106.136,8.029 C105.800,7.944 105.601,7.577 105.686,7.238 L106.501,4.105 C106.584,3.822 106.810,3.625 107.091,3.625 C107.147,3.625 107.202,3.653 107.259,3.653 C107.595,3.738 107.793,4.076 107.707,4.443 L106.923,7.577 ZM100.857,6.843 C100.520,6.758 100.296,6.448 100.380,6.080 L100.970,2.919 C101.026,2.609 101.306,2.411 101.587,2.411 C101.643,2.411 101.671,2.411 101.700,2.411 C102.037,2.467 102.262,2.806 102.205,3.145 L101.615,6.335 C101.531,6.674 101.223,6.899 100.857,6.843 ZM95.523,5.996 C95.186,5.939 94.933,5.629 94.989,5.291 L95.382,2.072 C95.439,1.761 95.719,1.507 96.027,1.507 C96.057,1.507 96.057,1.507 96.084,1.507 C96.448,1.564 96.674,1.874 96.646,2.213 L96.225,5.431 C96.197,5.770 95.887,6.024 95.523,5.996 ZM90.160,5.459 C89.795,5.459 89.543,5.149 89.571,4.810 L89.767,1.564 C89.795,1.225 90.077,0.971 90.440,0.971 C90.778,0.999 91.030,1.310 91.030,1.648 L90.805,4.867 C90.805,5.234 90.497,5.488 90.160,5.459 ZM84.741,5.291 C84.404,5.291 84.124,5.008 84.124,4.669 L84.124,1.423 C84.124,1.084 84.404,0.802 84.741,0.802 C85.107,0.802 85.387,1.084 85.387,1.423 L85.387,4.669 C85.387,5.008 85.107,5.291 84.741,5.291 ZM79.350,5.459 C78.985,5.488 78.704,5.234 78.677,4.867 L78.480,1.648 C78.452,1.310 78.704,0.999 79.070,0.971 C79.407,0.971 79.715,1.225 79.743,1.564 L79.940,4.810 C79.968,5.149 79.687,5.459 79.350,5.459 ZM73.959,5.996 C73.623,6.024 73.315,5.770 73.258,5.431 L72.865,2.213 C72.808,1.874 73.061,1.564 73.399,1.507 C73.427,1.507 73.427,1.507 73.454,1.507 C73.763,1.507 74.071,1.761 74.100,2.072 L74.521,5.291 C74.550,5.629 74.297,5.939 73.959,5.996 ZM68.625,6.843 C68.288,6.899 67.951,6.674 67.895,6.335 L67.277,3.145 C67.221,2.806 67.446,2.467 67.783,2.411 C67.810,2.411 67.839,2.411 67.895,2.411 C68.176,2.411 68.457,2.609 68.513,2.919 L69.130,6.080 C69.187,6.448 68.961,6.758 68.625,6.843 ZM63.347,8.029 C63.010,8.113 62.673,7.916 62.589,7.577 L61.774,4.443 C61.689,4.076 61.914,3.738 62.251,3.653 C62.308,3.653 62.363,3.625 62.420,3.625 C62.700,3.625 62.926,3.822 63.010,4.105 L63.796,7.238 C63.880,7.577 63.684,7.944 63.347,8.029 ZM58.152,9.525 C57.844,9.638 57.478,9.468 57.366,9.129 L56.383,6.052 C56.271,5.714 56.439,5.375 56.777,5.262 C56.860,5.234 56.917,5.234 56.973,5.234 C57.254,5.234 57.478,5.403 57.561,5.657 L58.573,8.734 C58.686,9.073 58.489,9.440 58.152,9.525 ZM53.071,11.388 C52.761,11.501 52.396,11.360 52.256,11.021 L51.077,8.000 C50.937,7.690 51.106,7.323 51.414,7.182 C51.498,7.153 51.582,7.153 51.638,7.153 C51.919,7.153 52.143,7.295 52.256,7.549 L53.435,10.569 C53.548,10.880 53.408,11.247 53.071,11.388 ZM48.129,13.534 C47.791,13.675 47.427,13.562 47.286,13.223 L45.910,10.316 C45.770,9.977 45.883,9.610 46.220,9.468 C46.304,9.412 46.388,9.384 46.500,9.384 C46.725,9.384 46.921,9.525 47.034,9.779 L48.410,12.687 C48.578,12.997 48.438,13.392 48.129,13.534 ZM43.300,15.990 C42.991,16.159 42.626,16.046 42.457,15.764 L40.886,12.912 C40.715,12.602 40.828,12.235 41.137,12.066 C41.222,12.009 41.334,11.981 41.446,11.981 C41.671,11.981 41.896,12.094 42.008,12.320 L43.552,15.143 C43.721,15.453 43.608,15.848 43.300,15.990 ZM38.639,18.756 C38.358,18.954 37.965,18.870 37.768,18.587 L36.056,15.848 C35.859,15.538 35.944,15.143 36.252,14.974 C36.365,14.889 36.477,14.860 36.589,14.860 C36.786,14.860 37.010,14.974 37.123,15.171 L38.836,17.909 C39.031,18.192 38.948,18.587 38.639,18.756 ZM33.304,21.692 L31.395,19.067 C31.198,18.784 31.255,18.389 31.535,18.192 L32.433,18.333 L34.315,20.930 C34.512,21.212 34.455,21.608 34.175,21.834 C33.894,22.031 33.500,21.975 33.304,21.692 ZM8.455,55.993 C9.494,53.735 10.646,51.532 11.882,49.387 L12.949,50.037 C11.741,52.125 10.618,54.299 9.608,56.529 L8.455,55.993 ZM4.582,65.874 C5.339,63.531 6.210,61.187 7.165,58.901 L8.315,59.409 C7.389,61.639 6.519,63.954 5.788,66.269 L4.582,65.874 ZM3.233,76.432 L1.998,76.178 C2.448,73.750 3.009,71.322 3.655,68.950 L4.891,69.289 C4.245,71.633 3.683,74.032 3.233,76.432 ZM1.970,86.821 L0.707,86.736 C0.847,84.280 1.099,81.796 1.465,79.340 L2.701,79.537 C2.364,81.936 2.111,84.393 1.970,86.821 ZM1.998,97.295 L0.735,97.379 C0.567,94.895 0.511,92.411 0.567,89.926 L1.830,89.955 C1.774,92.383 1.830,94.867 1.998,97.295 ZM3.319,107.684 L2.082,107.909 C1.605,105.482 1.240,103.025 0.988,100.569 L2.251,100.428 C2.504,102.856 2.869,105.284 3.319,107.684 ZM5.929,117.818 L4.751,118.213 C3.964,115.871 3.290,113.443 2.729,111.043 L3.964,110.760 C4.526,113.132 5.171,115.503 5.929,117.818 ZM9.803,127.530 L8.681,128.094 C7.613,125.836 6.631,123.549 5.788,121.234 L6.968,120.783 C7.810,123.069 8.765,125.328 9.803,127.530 ZM14.857,136.705 L13.791,137.382 C12.471,135.293 11.208,133.147 10.085,130.946 L11.179,130.353 C12.302,132.526 13.537,134.644 14.857,136.705 ZM54.445,169.424 L53.969,170.610 C51.694,169.707 49.420,168.690 47.230,167.618 L47.763,166.460 C49.954,167.561 52.171,168.549 54.445,169.424 ZM64.358,172.643 L64.048,173.885 C61.662,173.264 59.275,172.558 56.973,171.739 L57.366,170.553 C59.669,171.344 61.999,172.050 64.358,172.643 ZM74.606,174.590 L74.437,175.833 C71.994,175.522 69.552,175.127 67.136,174.619 L67.417,173.377 C69.777,173.885 72.191,174.280 74.606,174.590 ZM84.741,178.317 C85.107,178.317 85.387,178.599 85.387,178.938 L85.387,182.185 C85.387,182.523 85.107,182.806 84.741,182.806 C84.404,182.806 84.124,182.523 84.124,182.185 L84.124,178.938 C84.124,178.599 84.404,178.317 84.741,178.317 ZM90.160,178.148 C90.188,178.148 90.188,178.148 90.216,178.148 C90.525,178.148 90.805,178.429 90.805,178.741 L91.030,181.959 C91.030,182.326 90.778,182.609 90.440,182.637 C90.077,182.665 89.795,182.382 89.767,182.043 L89.571,178.825 C89.543,178.458 89.795,178.176 90.160,178.148 ZM95.523,177.640 C95.551,177.640 95.579,177.640 95.635,177.640 C95.944,177.640 96.197,177.865 96.225,178.176 L96.646,181.395 C96.674,181.732 96.448,182.072 96.084,182.100 C95.747,182.156 95.439,181.902 95.382,181.563 L94.989,178.345 C94.933,178.006 95.186,177.668 95.523,177.640 ZM100.857,176.792 C100.913,176.792 100.970,176.764 100.997,176.764 C101.306,176.764 101.531,176.990 101.615,177.301 L102.205,180.462 C102.262,180.801 102.037,181.140 101.700,181.196 C101.363,181.281 101.026,181.055 100.970,180.717 L100.380,177.526 C100.296,177.187 100.520,176.849 100.857,176.792 ZM106.136,175.607 C106.192,175.607 106.249,175.579 106.305,175.579 C106.584,175.579 106.837,175.776 106.923,176.059 L107.707,179.192 C107.793,179.531 107.595,179.869 107.259,179.954 C106.923,180.039 106.584,179.841 106.501,179.503 L105.686,176.369 C105.601,176.030 105.800,175.692 106.136,175.607 ZM111.330,174.083 C111.386,174.054 111.471,174.054 111.526,174.054 C111.807,174.054 112.060,174.223 112.116,174.478 L113.127,177.555 C113.239,177.894 113.043,178.260 112.705,178.374 C112.397,178.487 112.033,178.289 111.920,177.949 L110.937,174.873 C110.824,174.535 110.993,174.195 111.330,174.083 ZM116.412,172.247 C116.496,172.219 116.581,172.191 116.665,172.191 C116.917,172.191 117.142,172.360 117.226,172.586 L118.433,175.607 C118.547,175.946 118.405,176.313 118.068,176.426 C117.731,176.567 117.366,176.397 117.254,176.087 L116.075,173.066 C115.935,172.728 116.103,172.360 116.412,172.247 ZM121.381,170.073 C121.465,170.046 121.550,170.017 121.635,170.017 C121.859,170.017 122.111,170.158 122.224,170.384 L123.601,173.320 C123.740,173.631 123.601,173.998 123.291,174.167 C122.982,174.308 122.589,174.167 122.448,173.856 L121.072,170.920 C120.932,170.610 121.072,170.243 121.381,170.073 ZM126.183,167.618 C126.268,167.561 126.379,167.533 126.491,167.533 C126.717,167.533 126.941,167.646 127.053,167.872 L128.597,170.695 C128.766,171.005 128.654,171.401 128.344,171.570 C128.036,171.739 127.670,171.626 127.502,171.316 L125.958,168.464 C125.789,168.182 125.902,167.787 126.183,167.618 ZM130.844,164.851 C130.955,164.766 131.068,164.738 131.180,164.738 C131.404,164.738 131.601,164.851 131.714,165.048 L133.453,167.787 C133.624,168.069 133.540,168.464 133.259,168.662 C132.949,168.831 132.556,168.747 132.388,168.464 L130.647,165.726 C130.479,165.416 130.563,165.048 130.844,164.851 ZM157.405,138.173 C157.517,137.975 157.713,137.863 157.910,137.863 C158.022,137.863 158.134,137.890 158.247,137.975 L160.969,139.698 C161.279,139.895 161.363,140.290 161.166,140.572 C160.997,140.883 160.605,140.968 160.296,140.770 L157.573,139.048 C157.292,138.850 157.207,138.455 157.405,138.173 ZM160.128,133.486 C160.240,133.261 160.465,133.147 160.690,133.147 C160.801,133.147 160.913,133.176 160.997,133.232 L163.806,134.785 C164.114,134.954 164.226,135.350 164.059,135.660 C163.889,135.971 163.525,136.084 163.217,135.914 L160.381,134.333 C160.071,134.164 159.987,133.797 160.128,133.486 ZM162.598,128.631 C162.710,128.405 162.935,128.264 163.159,128.264 C163.244,128.264 163.356,128.292 163.441,128.349 L166.333,129.704 C166.670,129.873 166.781,130.241 166.641,130.550 C166.501,130.861 166.136,131.002 165.799,130.861 L162.907,129.478 C162.570,129.336 162.459,128.970 162.598,128.631 ZM164.732,123.662 C164.844,123.408 165.070,123.267 165.322,123.267 C165.406,123.267 165.462,123.267 165.546,123.295 L168.551,124.481 C168.887,124.622 169.029,124.989 168.915,125.300 C168.775,125.638 168.410,125.808 168.073,125.667 L165.096,124.481 C164.760,124.339 164.620,123.973 164.732,123.662 ZM166.586,118.552 C166.641,118.270 166.893,118.100 167.175,118.100 C167.231,118.100 167.316,118.100 167.371,118.129 L170.432,119.145 C170.768,119.230 170.937,119.597 170.825,119.936 C170.713,120.274 170.376,120.444 170.039,120.331 L166.978,119.342 C166.641,119.230 166.473,118.863 166.586,118.552 ZM168.073,113.330 C168.158,113.047 168.410,112.850 168.691,112.850 C168.747,112.850 168.803,112.877 168.860,112.877 L171.977,113.668 C172.313,113.753 172.510,114.092 172.426,114.430 C172.341,114.769 171.977,114.996 171.639,114.910 L168.523,114.092 C168.186,114.007 167.989,113.668 168.073,113.330 ZM169.252,108.022 C169.336,107.712 169.590,107.514 169.870,107.514 C169.926,107.514 169.956,107.514 169.983,107.514 L173.155,108.135 C173.492,108.191 173.716,108.531 173.661,108.869 C173.605,109.208 173.268,109.434 172.930,109.377 L169.757,108.756 C169.421,108.700 169.196,108.361 169.252,108.022 ZM170.095,102.658 C170.151,102.320 170.432,102.094 170.740,102.094 C170.768,102.094 170.768,102.094 170.797,102.094 L173.997,102.517 C174.334,102.545 174.587,102.884 174.559,103.223 C174.504,103.562 174.195,103.816 173.857,103.759 L170.656,103.364 C170.292,103.308 170.067,102.998 170.095,102.658 ZM174.644,92.439 L171.415,92.439 C171.078,92.439 170.797,92.156 170.797,91.817 C170.797,91.451 171.078,91.168 171.415,91.168 L174.644,91.168 C174.980,91.168 175.261,91.451 175.261,91.817 C175.261,92.156 174.980,92.439 174.644,92.439 ZM171.189,97.916 C170.853,97.887 170.600,97.577 170.600,97.238 C170.628,96.927 170.909,96.645 171.218,96.645 C171.246,96.645 171.246,96.645 171.275,96.645 L174.504,96.843 C174.840,96.871 175.093,97.181 175.093,97.520 C175.065,97.887 174.756,98.141 174.419,98.113 L171.189,97.916 Z"/>
<path fill-rule="evenodd"  stroke-width="2px" stroke-linecap="butt" stroke-linejoin="miter" fill="none"
 d="M86.079,154.066 C51.436,154.066 23.352,125.983 23.352,91.340 C23.352,56.698 51.436,28.614 86.079,28.614 "/>
<path fill-rule="evenodd"  stroke-width="2px" stroke-linecap="butt" stroke-linejoin="miter" fill="none"
 d="M58.922,41.056 C86.826,24.946 122.506,34.506 138.616,62.410 C154.726,90.313 145.165,125.993 117.262,142.102 "/>
<path fill-rule="evenodd"  stroke-width="2px" stroke-linecap="butt" stroke-linejoin="miter" fill="none"
 d="M87.282,39.068 C116.150,39.068 139.553,62.471 139.553,91.340 C139.553,120.209 116.150,143.612 87.282,143.612 C58.413,143.612 35.010,120.209 35.010,91.340 C35.010,62.471 58.413,39.068 87.282,39.068 Z"/>
</svg>