<?xml version="1.0" standalone="no"?><!DOCTYPE svg PUBLIC "-//W3C//DTD SVG 1.1//EN" "http://www.w3.org/Graphics/SVG/1.1/DTD/svg11.dtd"><svg t="1693789251376" class="icon" viewBox="0 0 1321 1024" version="1.1" xmlns="http://www.w3.org/2000/svg" p-id="1625" xmlns:xlink="http://www.w3.org/1999/xlink" width="258.0078125" height="200"><path d="M1274.153 387.964a87.866 87.866 0 0 0-79.442-51.63h-182.338v-1.387a42.942 42.942 0 0 0-22.594-37.789 174.212 174.212 0 0 0 44.626-117.132c0-96.884-78.55-175.699-175.137-175.699-23.122 0-43.768 5.55-43.768 5.55L416.074 117.694a109.37 109.37 0 0 0-61.473 174.377h-2.907c-23.585 0-42.743 19.225-42.743 42.876v1.387H126.613a87.866 87.866 0 0 0-79.476 51.63C16.285 455.514 0 536.675 0 622.658c0 85.983 16.285 167.143 47.137 234.694a87.866 87.866 0 0 0 79.443 51.663h128.76l-9.844 69.136h-4.13a20.711 20.711 0 0 0 0 41.522h154.46a20.711 20.711 0 0 0 0-41.522h-4.13l-9.843-69.136h557.584l-9.843 69.136h-4.13a20.711 20.711 0 0 0 0 41.522h154.46a20.711 20.711 0 0 0 0-41.522h-4.13l-9.843-69.136h128.76a87.866 87.866 0 0 0 79.442-51.663c30.852-67.55 47.137-148.711 47.137-234.694 0-85.983-16.285-167.143-47.137-234.694zM859.268 45.849a134.111 134.111 0 0 1 133.78 134.177 132.889 132.889 0 0 1-46.905 101.772V157.894c0-23.65-19.159-42.909-42.744-42.909h-88.295c-23.552 0-42.744 19.258-42.744 42.91v123.87a132.889 132.889 0 0 1-46.906-101.772A134.111 134.111 0 0 1 859.235 45.816zM813.75 203.545v-45.65c0-0.794 0.594-1.388 1.354-1.388h88.295c0.76 0 1.355 0.594 1.355 1.387v45.65H813.75z m91.004 41.488v47.038H813.75v-47.038h91.004zM715.479 79.872a175.005 175.005 0 0 0-31.38 100.154c0 41.885 14.467 81.061 40.232 112.045H525.345a109.304 109.304 0 0 0-20.348-155.417L715.48 79.84z m-275.49 76.635a67.75 67.75 0 0 1 0 135.564 67.75 67.75 0 0 1 0-135.564z m-89.682 178.44c0-0.76 0.66-1.387 1.387-1.387h617.902c0.76 0 1.354 0.627 1.354 1.387v44.263a1.387 1.387 0 0 1-1.354 1.388H351.694a1.387 1.387 0 0 1-1.387-1.388v-44.263z m-63.025 643.204l15.987-112.21a1.387 1.387 0 0 1 1.354-1.19h27.946c0.66 0 1.255 0.496 1.354 1.19l15.988 112.21h-62.63z m684.098 0l15.987-112.21a1.387 1.387 0 0 1 1.355-1.19h27.945c0.66 0 1.255 0.496 1.354 1.19l15.988 112.21h-62.63z m265.15-138.075c-7.598 16.649-24.015 27.417-41.82 27.417h-5.813V534.132a20.711 20.711 0 1 0-41.39 0v333.361h-87.469l-1.057-7.432a43.008 43.008 0 0 0-42.347-36.831h-27.912c-21.141 0-39.309 15.855-42.315 36.83l-1.057 7.433H375.907l-1.057-7.432a43.008 43.008 0 0 0-42.314-36.831H304.59c-21.14 0-39.308 15.855-42.28 36.83l-1.09 7.433h-87.437V534.132a20.711 20.711 0 1 0-41.39 0v333.361h-5.813c-17.805 0-34.222-10.768-41.82-27.417-27.978-61.274-43.37-138.47-43.37-217.418 0-78.947 15.392-156.143 43.37-217.418 7.598-16.649 24.015-27.417 41.82-27.417h5.813v67.782a20.711 20.711 0 1 0 41.39 0v-67.782H308.95v1.387c0 23.651 19.158 42.876 42.743 42.876h45.519v1.388a20.711 20.711 0 1 0 41.39 0v-1.388h444.085v1.388a20.711 20.711 0 1 0 41.39 0v-1.388h45.518c23.585 0 42.744-19.225 42.744-42.876v-1.387h135.168v67.782a20.711 20.711 0 1 0 41.389 0v-67.782h5.814c17.837 0 34.221 10.768 41.819 27.417 27.978 61.275 43.404 138.504 43.404 217.418 0 78.947-15.426 156.144-43.404 217.418z" fill="#ffffff" p-id="1626"></path></svg>