<?xml version="1.0" encoding="utf-8"?>
<!-- Generator: Adobe Illustrator 14.0.0, SVG Export Plug-In . SVG Version: 6.00 Build 43363)  -->
<!DOCTYPE svg PUBLIC "-//W3C//DTD SVG 1.1//EN" "http://www.w3.org/Graphics/SVG/1.1/DTD/svg11.dtd">
<svg version="1.1" id="图层_1" xmlns="http://www.w3.org/2000/svg" xmlns:xlink="http://www.w3.org/1999/xlink" x="0px" y="0px"
	 width="60px" height="60px" viewBox="-482 354 60 60" enable-background="new -482 354 60 60" xml:space="preserve">
<g>
	<path fill="#FFFFFF" d="M-479.984,372.582"/>
</g>
<g>
	<path fill="#FFFFFF" d="M-478.348,374.195"/>
</g>
<g>
	<path fill="#FFFFFF" d="M-434.497,366.51c-2.983,0-5.411,2.395-5.411,5.336c0,2.942,2.428,5.336,5.411,5.336
		s5.411-2.394,5.411-5.336C-429.086,368.904-431.514,366.51-434.497,366.51z M-434.497,376.195c-2.433,0-4.411-1.951-4.411-4.35
		s1.979-4.35,4.411-4.35s4.412,1.951,4.412,4.35S-432.064,376.195-434.497,376.195z"/>
	<rect x="-435.497" y="378.748" fill="#FFFFFF" width="2" height="3.943"/>
	<rect x="-435.497" y="361" fill="#FFFFFF" width="2" height="3.943"/>
	<polygon fill="#FFFFFF" points="-430.255,377.423 -427.428,380.212 -426.014,378.816 -428.842,376.029 	"/>
	<polygon fill="#FFFFFF" points="-438.738,366.268 -441.566,363.479 -442.98,364.874 -440.152,367.663 	"/>
	<rect x="-445.494" y="370.859" fill="#FFFFFF" width="3.999" height="1.973"/>
	<rect x="-427.499" y="370.859" fill="#FFFFFF" width="3.999" height="1.973"/>
	<polygon fill="#FFFFFF" points="-441.566,380.212 -438.738,377.423 -440.152,376.029 -442.98,378.816 	"/>
	<polygon fill="#FFFFFF" points="-426.014,364.874 -427.428,363.479 -430.255,366.268 -428.842,367.663 	"/>
	<path fill="#FFFFFF" d="M-445.917,379.486c-0.142-0.25-0.388-0.428-0.672-0.484l-32.71-6.63c-0.35-0.069-0.713,0.048-0.95,0.313
		c-0.237,0.265-0.313,0.633-0.197,0.969l8.091,23.515c0.127,0.371,0.465,0.632,0.86,0.666l10.609,0.91l-4.379,6.737
		c-0.197,0.304-0.21,0.689-0.036,1.006c0.176,0.314,0.512,0.512,0.878,0.512h18.995c0.378,0,0.725-0.211,0.894-0.544
		s0.134-0.733-0.093-1.032l-4.284-5.652l13.345,1.145c0.028,0.002,0.058,0.004,0.086,0.004c0.336,0,0.653-0.168,0.838-0.451
		c0.201-0.307,0.215-0.697,0.033-1.016L-445.917,379.486z M-462.595,405.027l3.89-5.984l7.301,0.73l3.98,5.254H-462.595z
		 M-470.672,395.926l-7.321-21.277l30.554,6.193l10.166,17.948L-470.672,395.926z"/>
	<polygon fill="#FFFFFF" points="-473.474,378.047 -470.548,385.913 -462.014,386.928 -465.289,379.662 	"/>
	<polygon fill="#FFFFFF" points="-462.014,386.928 -462.014,387.156 -457.74,395.408 -448.736,396.209 -453.489,388.402 	"/>
	<polygon fill="#FFFFFF" points="-457.092,380.857 -453.692,388.26 -445.507,389.066 -449.586,382.206 	"/>
</g>
</svg>
