<?xml version="1.0" encoding="utf-8"?>
<!-- Generator: Adobe Illustrator 14.0.0, SVG Export Plug-In . SVG Version: 6.00 Build 43363)  -->
<!DOCTYPE svg PUBLIC "-//W3C//DTD SVG 1.1//EN" "http://www.w3.org/Graphics/SVG/1.1/DTD/svg11.dtd">
<svg version="1.1" id="图层_1" xmlns="http://www.w3.org/2000/svg" xmlns:xlink="http://www.w3.org/1999/xlink" x="0px" y="0px"
	 width="60px" height="60px" viewBox="-482 354 60 60" enable-background="new -482 354 60 60" xml:space="preserve">
<path fill="#FFFFFF" d="M-437.682,388.846c0,0.893,0.711,1.616,1.591,1.616c0.878,0,1.591-0.724,1.591-1.616
	c0-0.597-0.322-1.111-0.796-1.392v-4.263v-1.615h-1.591h-6.574l-0.666-4.846l3.264-2.449v1.865
	c-0.474,0.281-0.796,0.795-0.796,1.392c0,0.892,0.712,1.616,1.591,1.616s1.592-0.725,1.592-1.616c0-0.597-0.322-1.11-0.797-1.392
	V373.5v-1.615h-1.59h-3.93l-0.333-2.423h1.876V363h-17.5v6.461h1.876l-0.333,2.423h-4.725h-0.796h-0.795v4.263
	c-0.473,0.281-0.795,0.795-0.795,1.392c0,0.892,0.712,1.616,1.59,1.616c0.879,0,1.591-0.725,1.591-1.616
	c0-0.597-0.322-1.11-0.795-1.392v-2.461l4.059,3.045l-0.666,4.846h-6.575h-1.59v1.615v4.263c-0.474,0.28-0.796,0.795-0.796,1.392
	c0,0.893,0.712,1.616,1.591,1.616c0.879,0,1.591-0.724,1.591-1.616c0-0.597-0.322-1.111-0.796-1.392v-3.519l5.659,4.108l0.028-0.008
	l-1.887,13.731h-6.186V405h34.204v-3.23h-5.392l-1.887-13.731l0.028,0.008l5.657-4.108v3.519
	C-437.359,387.734-437.682,388.25-437.682,388.846z M-441.859,373.5l-2.457,1.846l-0.254-1.846H-441.859z M-457.28,369.461h10.559
	l0.332,2.423h-11.224L-457.28,369.461z M-457.835,373.5h11.67l0.333,2.423h-12.336L-457.835,373.5z M-458.39,377.538h12.781
	l0.555,4.039h-13.89L-458.39,377.538z M-459.167,383.191h14.333l0.555,4.039h-15.443L-459.167,383.191z M-445.001,388.846
	l-6.816,8.236l-6.764-8.236H-445.001z M-462.141,373.5h2.712l-0.253,1.846L-462.141,373.5z M-466.082,383.191h5.321l-0.483,3.515
	L-466.082,383.191z M-460.01,389.33l7.276,8.861l-2.961,3.578h-6.025L-460.01,389.33z M-453.813,401.77l2.017-2.438l2,2.438
	H-453.813z M-442.279,401.77h-5.688l-2.911-3.545l6.957-8.406L-442.279,401.77z M-442.756,386.707l-0.482-3.514h5.32
	L-442.756,386.707z"/>
</svg>
