<?xml version="1.0" encoding="utf-8"?>
<!-- Generator: Adobe Illustrator 14.0.0, SVG Export Plug-In . SVG Version: 6.00 Build 43363)  -->
<!DOCTYPE svg PUBLIC "-//W3C//DTD SVG 1.1//EN" "http://www.w3.org/Graphics/SVG/1.1/DTD/svg11.dtd">
<svg version="1.1" id="图层_1" xmlns="http://www.w3.org/2000/svg" xmlns:xlink="http://www.w3.org/1999/xlink" x="0px" y="0px"
	 width="60px" height="60px" viewBox="-482 354 60 60" enable-background="new -482 354 60 60" xml:space="preserve">
<path fill="#FFFFFF" d="M-433.6,366h-36.8h-1.6v1.637v24.545v1.637h1.6h16v6.545h-5.6V402h16v-1.637h-5.6v-6.545h16h1.6v-1.637
	v-24.545V366H-433.6z M-451.2,400.363h-1.6v-6.545h1.6V400.363z M-433.6,392.182h-16h-1.601h-1.6h-1.6h-16v-24.545h36.8V392.182z"/>
<path fill="#FFFFFF" d="M-468.8,369.273v21.271h33.6v-21.271H-468.8z M-453.6,388.909l3.2-8.183h-6.399l6.399-9.817l-2.399,7.362
	h6.399L-453.6,388.909z"/>
</svg>
