<?xml version="1.0" encoding="utf-8"?>
<!-- Generator: Adobe Illustrator 14.0.0, SVG Export Plug-In . SVG Version: 6.00 Build 43363)  -->
<!DOCTYPE svg PUBLIC "-//W3C//DTD SVG 1.1//EN" "http://www.w3.org/Graphics/SVG/1.1/DTD/svg11.dtd">
<svg version="1.1" id="图层_1" xmlns="http://www.w3.org/2000/svg" xmlns:xlink="http://www.w3.org/1999/xlink" x="0px" y="0px"
	 width="30px" height="30px" viewBox="0 0 30 30" enable-background="new 0 0 30 30" xml:space="preserve">
<g>
	<g>
		<path fill="#FFFFFF" d="M18.974,3.697c1.257,0.495,2.365,1.183,3.28,2.032c-0.42,1.508-0.212,3.116,0.567,4.422
			c0.774,1.399,1.931,2.329,3.354,2.703c0.135,0.672,0.209,1.429,0.209,2.147c0,0.688-0.068,1.378-0.215,2.161
			c-1.485,0.467-2.702,1.443-3.348,2.686c-0.744,1.34-0.934,2.82-0.563,4.405c-0.938,0.798-2.026,1.47-3.314,2.046
			c-1.146-1.109-2.539-1.718-3.946-1.718c-1.545,0-2.977,0.623-3.973,1.721c-1.259-0.496-2.367-1.185-3.281-2.033
			c0.42-1.506,0.213-3.112-0.568-4.422c-0.776-1.4-1.932-2.33-3.354-2.702c-0.134-0.677-0.207-1.433-0.207-2.146
			c0-0.681,0.068-1.371,0.214-2.162c1.487-0.469,2.703-1.446,3.348-2.687C7.92,8.812,8.108,7.332,7.74,5.747
			c0.935-0.797,2.023-1.469,3.314-2.045c1.144,1.109,2.536,1.718,3.944,1.718C16.546,5.419,17.979,4.795,18.974,3.697 M18.872,2.667
			c-0.15,0-0.322,0.083-0.446,0.211c-0.856,1.061-2.143,1.592-3.427,1.592c-1.287,0-2.485-0.619-3.426-1.592
			c-0.127-0.129-0.252-0.211-0.411-0.211c-0.058,0-0.121,0.011-0.189,0.035C9.516,3.323,8.143,4.12,6.947,5.179
			c-0.171,0.088-0.258,0.357-0.171,0.62c0.343,1.325,0.259,2.654-0.427,3.891c-0.597,1.148-1.713,1.945-2.997,2.3
			c-0.171,0.092-0.341,0.267-0.426,0.53c-0.171,0.886-0.258,1.681-0.258,2.479c0,0.797,0.085,1.682,0.254,2.477
			c0,0.27,0.171,0.446,0.428,0.533c1.284,0.264,2.313,1.063,2.998,2.299c0.685,1.148,0.856,2.565,0.428,3.891
			c-0.087,0.18,0,0.444,0.171,0.621c1.196,1.15,2.567,1.944,4.024,2.478v0.003h0.173c0.169,0,0.34-0.091,0.427-0.177
			c0.856-1.06,2.14-1.593,3.427-1.593c1.285,0,2.484,0.619,3.427,1.593c0.127,0.13,0.253,0.211,0.411,0.211
			c0.058,0,0.12-0.011,0.188-0.034c1.457-0.621,2.828-1.419,4.026-2.479c0.171-0.086,0.257-0.356,0.171-0.62
			c-0.344-1.325-0.258-2.655,0.429-3.892c0.598-1.148,1.713-1.946,2.997-2.299c0.172-0.092,0.342-0.268,0.428-0.533
			c0.172-0.883,0.257-1.681,0.257-2.476c0-0.798-0.085-1.683-0.257-2.479c0-0.268-0.172-0.443-0.428-0.531
			c-1.284-0.266-2.313-1.063-2.997-2.299c-0.687-1.15-0.854-2.566-0.429-3.893c0.086-0.18,0-0.442-0.171-0.62
			c-1.198-1.151-2.567-1.945-4.026-2.477C18.979,2.678,18.927,2.667,18.872,2.667L18.872,2.667z"/>
	</g>
</g>
<g>
	<g>
		<path fill="#FFFFFF" d="M15.002,11.125c2.1,0,3.873,1.774,3.873,3.875s-1.773,3.875-3.873,3.875c-2.101,0-3.876-1.774-3.876-3.875
			S12.901,11.125,15.002,11.125 M15.002,10.125c-2.669,0-4.876,2.205-4.876,4.875c0,2.668,2.206,4.875,4.876,4.875
			c2.665,0,4.873-2.207,4.873-4.875C19.875,12.33,17.67,10.125,15.002,10.125L15.002,10.125z"/>
	</g>
</g>
</svg>
