<?xml version="1.0" encoding="utf-8"?>
<!-- Generator: Adobe Illustrator 14.0.0, SVG Export Plug-In . SVG Version: 6.00 Build 43363)  -->
<!DOCTYPE svg PUBLIC "-//W3C//DTD SVG 1.1//EN" "http://www.w3.org/Graphics/SVG/1.1/DTD/svg11.dtd">
<svg version="1.1" id="图层_1" xmlns="http://www.w3.org/2000/svg" xmlns:xlink="http://www.w3.org/1999/xlink" x="0px" y="0px"
	 width="20px" height="20px" viewBox="0 0 20 20" enable-background="new 0 0 20 20" xml:space="preserve">
<path fill="#FFFFFF" d="M10,3.313c0.223,0,0.393,0.051,0.471,0.094L17.5,7.313l-7.029,3.906c-0.078,0.043-0.248,0.094-0.471,0.094
	s-0.393-0.051-0.471-0.094L2.5,7.313l7.029-3.906C9.607,3.363,9.777,3.313,10,3.313 M10,2.313c-0.346,0-0.692,0.073-0.956,0.22
	L1.396,6.781c-0.528,0.293-0.528,0.77,0,1.063l7.648,4.249c0.264,0.146,0.61,0.22,0.956,0.22s0.692-0.073,0.956-0.22l7.647-4.249
	c0.528-0.293,0.528-0.77,0-1.063l-7.647-4.249C10.692,2.386,10.346,2.313,10,2.313L10,2.313z"/>
<g opacity="0.4">
	<path fill="#FFFFFF" d="M10,18c-3.393,0-5.5-1.725-5.5-4.5v-4C4.5,9.224,4.724,9,5,9s0.5,0.224,0.5,0.5v4
		c0,3.248,3.444,3.5,4.5,3.5s4.5-0.252,4.5-3.5v-4C14.5,9.224,14.724,9,15,9s0.5,0.224,0.5,0.5v4C15.5,16.275,13.393,18,10,18L10,18
		z"/>
</g>
</svg>
