<?xml version="1.0" encoding="utf-8"?>
<!-- Generator: Adobe Illustrator 14.0.0, SVG Export Plug-In . SVG Version: 6.00 Build 43363)  -->
<!DOCTYPE svg PUBLIC "-//W3C//DTD SVG 1.1//EN" "http://www.w3.org/Graphics/SVG/1.1/DTD/svg11.dtd">
<svg version="1.1" id="图层_1" xmlns="http://www.w3.org/2000/svg" xmlns:xlink="http://www.w3.org/1999/xlink" x="0px" y="0px"
	 width="20px" height="20px" viewBox="0 0 20 20" enable-background="new 0 0 20 20" xml:space="preserve">
<path fill="#FFFFFF" d="M4,10.5c0.827,0,1.5,0.673,1.5,1.5S4.827,13.5,4,13.5S2.5,12.827,2.5,12S3.173,10.5,4,10.5 M4,9.5
	c-1.381,0-2.5,1.119-2.5,2.5s1.119,2.5,2.5,2.5s2.5-1.119,2.5-2.5S5.381,9.5,4,9.5L4,9.5z"/>
<path fill="#FFFFFF" d="M10,6.5c0.827,0,1.5,0.673,1.5,1.5S10.827,9.5,10,9.5S8.5,8.827,8.5,8S9.173,6.5,10,6.5 M10,5.5
	C8.619,5.5,7.5,6.619,7.5,8s1.119,2.5,2.5,2.5s2.5-1.119,2.5-2.5S11.381,5.5,10,5.5L10,5.5z"/>
<path fill="#FFFFFF" d="M16,12.5c0.827,0,1.5,0.673,1.5,1.5s-0.673,1.5-1.5,1.5s-1.5-0.673-1.5-1.5S15.173,12.5,16,12.5 M16,11.5
	c-1.381,0-2.5,1.119-2.5,2.5s1.119,2.5,2.5,2.5s2.5-1.119,2.5-2.5S17.381,11.5,16,11.5L16,11.5z"/>
<g opacity="0.4">
	<path fill="#FFFFFF" d="M4,10c0.171,0,0.336,0.023,0.5,0.051V2c0-0.276-0.224-0.5-0.5-0.5S3.5,1.724,3.5,2v8.051
		C3.664,10.023,3.829,10,4,10z"/>
	<path fill="#FFFFFF" d="M4,14c-0.171,0-0.336-0.023-0.5-0.051V18c0,0.276,0.224,0.5,0.5,0.5s0.5-0.224,0.5-0.5v-4.051
		C4.336,13.977,4.171,14,4,14z"/>
</g>
<g opacity="0.4">
	<path fill="#FFFFFF" d="M10,6c0.172,0,0.336,0.023,0.5,0.051V2c0-0.276-0.224-0.5-0.5-0.5S9.5,1.724,9.5,2v4.051
		C9.664,6.023,9.828,6,10,6z"/>
	<path fill="#FFFFFF" d="M10,10c-0.172,0-0.336-0.023-0.5-0.051V18c0,0.276,0.224,0.5,0.5,0.5s0.5-0.224,0.5-0.5V9.949
		C10.336,9.977,10.172,10,10,10z"/>
</g>
<g opacity="0.4">
	<path fill="#FFFFFF" d="M16,16c-0.172,0-0.336-0.023-0.5-0.051V18c0,0.276,0.224,0.5,0.5,0.5s0.5-0.224,0.5-0.5v-2.051
		C16.336,15.977,16.172,16,16,16z"/>
	<path fill="#FFFFFF" d="M16,12c0.172,0,0.336,0.023,0.5,0.051V2c0-0.276-0.224-0.5-0.5-0.5S15.5,1.724,15.5,2v10.051
		C15.664,12.023,15.828,12,16,12z"/>
</g>
</svg>
